<?xml version="1.0" encoding="UTF-8" standalone="no"?>
<svg width="88px" height="108px" viewBox="0 0 88 108" version="1.1" xmlns="http://www.w3.org/2000/svg" xmlns:xlink="http://www.w3.org/1999/xlink">
    <!-- Generator: sketchtool 41.2 (35397) - http://www.bohemiancoding.com/sketch -->
    <title>C135CF25-84F4-4A25-9297-23B451EDD0DB</title>
    <desc>Created with sketchtool.</desc>
    <defs>
        <polygon id="path-1" points="0 107.136 87.7627451 107.136 87.7627451 0.084672 0 0.084672"></polygon>
        <polygon id="path-3" points="0.295317647 13.620096 14.7040235 13.620096 14.7040235 0.474401019 0.295317647 0.474401019"></polygon>
    </defs>
    <g id="Page-1" stroke="none" stroke-width="1" fill="none" fill-rule="evenodd">
        <g id="Artboard" transform="translate(-545.000000, -140.000000)">
            <g id="Page-1" transform="translate(545.000000, 140.000000)">
                <polygon id="Fill-1" fill="#FEFEFE" points="0 107.915328 87.7618824 107.915328 87.7618824 0.864 0 0.864"></polygon>
                <polygon id="Fill-2" fill="#005A7A" points="7.19529412 81.435456 80.567451 81.435456 80.567451 7.95744 7.19529412 7.95744"></polygon>
                <g id="Group-20" transform="translate(0.000000, 0.779328)">
                    <path d="M25.4219059,55.2900384 C25.9714745,55.2900384 26.2277098,55.1085984 26.2277098,54.6558624 C26.2277098,54.1789344 25.9714745,54.0095904 25.4132784,54.0095904 L24.2304549,54.0095904 L24.2304549,55.2900384 L25.4219059,55.2900384 Z M25.3796314,53.1723744 C25.8644941,53.1723744 26.0939843,53.0142624 26.0939843,52.6366944 C26.0939843,52.2565344 25.8593176,52.1295264 25.3753176,52.1295264 L24.2304549,52.1295264 L24.2304549,53.1723744 L25.3796314,53.1723744 Z M23.2624549,51.2776224 L25.573749,51.2776224 C26.585749,51.2776224 27.1077098,51.7173984 27.1077098,52.5165984 C27.1077098,53.0090784 26.9179059,53.3417184 26.5253569,53.5274784 C27.036102,53.7287904 27.2811216,54.1106784 27.2811216,54.6878304 C27.2811216,55.6174944 26.6530431,56.1756384 25.4952392,56.1756384 L23.2624549,56.1756384 L23.2624549,51.2776224 Z" id="Fill-3" fill="#FEFEFE"></path>
                    <path d="M36.6847843,54.3455136 L38.0487843,54.3455136 L37.3654902,52.2572256 L36.6847843,54.3455136 Z M37.9443922,51.2774496 L39.7061176,56.1763296 L38.6509804,56.1763296 L38.317098,55.1689056 L36.4207843,55.1689056 L36.0972549,56.1763296 L35.0369412,56.1763296 L36.7788235,51.2774496 L37.9443922,51.2774496 Z" id="Fill-5" fill="#FEFEFE"></path>
                    <polygon id="Fill-7" fill="#FEFEFE" points="47.6940157 51.2776224 48.7508784 51.2776224 50.7377804 54.6446304 50.7377804 51.2776224 51.7316627 51.2776224 51.7316627 56.1756384 50.6903294 56.1756384 48.6904863 52.8112224 48.6904863 56.1756384 47.6940157 56.1756384"></polygon>
                    <polygon id="Fill-9" fill="#FEFEFE" points="60.225302 51.2776224 61.237302 51.2776224 61.237302 53.2855584 63.1456941 51.2776224 64.4044392 51.2776224 62.4511843 53.2622304 64.5847529 56.1756384 63.3501647 56.1756384 61.7566745 53.9352864 61.237302 54.4502304 61.237302 56.1756384 60.225302 56.1756384"></polygon>
                    <path d="M27.4906824,40.4687232 L31.0529569,40.4687232 L29.2774275,35.0125632 L27.4906824,40.4687232 Z M30.7880941,32.4447552 L35.4003294,45.2630592 L32.6395451,45.2630592 L31.7664471,42.6278592 L26.797898,42.6278592 L25.961898,45.2630592 L23.1864471,45.2630592 L27.7434667,32.4447552 L30.7880941,32.4447552 Z" id="Fill-11" fill="#FEFEFE"></path>
                    <path d="M44.7414431,42.948144 C46.1848157,42.948144 46.8655216,42.460848 46.8655216,41.287536 C46.8655216,40.0356 46.1848157,39.591504 44.7259137,39.591504 L41.6269333,39.591504 L41.6269333,42.948144 L44.7414431,42.948144 Z M44.6361882,37.4004 C45.8975216,37.4004 46.5066196,36.99 46.5066196,36.00504 C46.5066196,35.012304 45.8854431,34.672752 44.6163451,34.672752 L41.6269333,34.672752 L41.6269333,37.4004 L44.6361882,37.4004 Z M39.0999529,32.444496 L45.1348549,32.444496 C47.7886588,32.444496 49.1578353,33.60312 49.1578353,35.687088 C49.1578353,36.9684 48.6608941,37.844496 47.6273255,38.326608 C48.9628549,38.862288 49.6056,39.859344 49.6056,41.362704 C49.6056,43.80264 47.9646588,45.2628 44.9398745,45.2628 L39.0999529,45.2628 L39.0999529,32.444496 Z" id="Fill-13" fill="#FEFEFE"></path>
                    <path d="M56.5165333,40.4687232 L60.0762196,40.4687232 L58.2989647,35.0125632 L56.5165333,40.4687232 Z M59.8079059,32.4447552 L64.4270431,45.2630592 L61.6628078,45.2630592 L60.7888471,42.6278592 L55.820298,42.6278592 L54.9834353,45.2630592 L52.2088471,45.2630592 L56.7641412,32.4447552 L59.8079059,32.4447552 Z" id="Fill-15" fill="#FEFEFE"></path>
                    <mask id="mask-2" fill="white">
                        <use xlink:href="#path-1"></use>
                    </mask>
                    <g id="Clip-18"></g>
                    <polygon id="Fill-17" fill="#E30C13" mask="url(#mask-2)" points="65.6134902 34.991136 68.0878431 34.991136 68.0878431 29.897856 65.6134902 29.897856"></polygon>
                    <path d="M80.5427765,88.0950816 L7.19477647,88.0950816" id="Stroke-19" stroke="#E30613" stroke-width="0.813" mask="url(#mask-2)"></path>
                </g>
                <g id="Group-74" transform="translate(6.901961, 91.499328)">
                    <g id="Group-23">
                        <mask id="mask-4" fill="white">
                            <use xlink:href="#path-3"></use>
                        </mask>
                        <g id="Clip-22"></g>
                        <path d="M9.28425882,3.477168 C9.03665098,3.533328 8.85892549,3.573072 8.67774902,3.503952 C8.53884706,3.451248 8.43100392,3.29832 8.33351373,3.159216 L6.6572,0.859248 C6.56143529,0.721872 6.44496471,0.56808 6.30778824,0.511056 C6.1292,0.440208 5.94888627,0.484272 5.70127843,0.540432 L0.295317647,2.030832 L0.295317647,12.109392 L5.72025882,10.627632 C5.96959216,10.574064 6.14904314,10.53 6.32763137,10.600848 C6.4639451,10.656144 6.57437647,10.80648 6.67186667,10.94472 L8.34041569,13.241232 C8.43790588,13.379472 8.5492,13.525488 8.68637647,13.585968 C8.86582745,13.651632 9.04441569,13.613616 9.29202353,13.555728 L14.7040235,12.1068 L14.7040235,2.020464 L9.28425882,3.477168 Z" id="Fill-21" fill="#E21118" mask="url(#mask-4)"></path>
                    </g>
                    <path d="M54.5985647,2.99808 L54.6106431,2.99808 L55.1412314,4.694112 L54.0498588,4.694112 L54.5985647,2.99808 Z M53.8108784,5.435424 L55.3914275,5.435424 L55.6666431,6.319296 L56.6380941,6.319296 L55.1291529,2.0304 L55.1274275,2.0304 L53.8807608,2.63952 L52.5711137,6.319296 L53.5132314,6.319296 L53.8108784,5.435424 Z" id="Fill-24" fill="#002F46"></path>
                    <path d="M50.879702,5.5785888 L49.7822902,5.5785888 L49.7822902,4.4320608 L50.9211137,4.4320608 C51.2437804,4.4320608 51.5655843,4.5754848 51.5655843,4.9513248 C51.5655843,5.3876448 51.3153882,5.5785888 50.879702,5.5785888 L50.879702,5.5785888 Z M49.7822902,2.7714528 L50.8080941,2.7714528 C51.2135843,2.7714528 51.4637804,2.8785888 51.4637804,3.2311008 C51.4637804,3.5715168 51.184251,3.7088928 50.832251,3.7088928 L49.7822902,3.7088928 L49.7822902,2.7714528 Z M51.7985255,4.0078368 C51.9771137,3.9179808 52.3230745,3.7451808 52.3230745,3.1300128 C52.3230745,2.6876448 52.0547608,2.0301408 51.0048,2.0301408 L49.8254275,2.0301408 L48.9229961,2.4716448 L48.9229961,6.3190368 L50.7364863,6.3190368 C51.6130353,6.3190368 51.8459765,6.1704288 52.0909961,5.9311008 C52.3170353,5.7099168 52.460251,5.3876448 52.460251,5.0472288 C52.460251,4.6230048 52.3230745,4.2048288 51.7985255,4.0078368 L51.7985255,4.0078368 Z" id="Fill-26" fill="#002F46"></path>
                    <polygon id="Fill-28" fill="#002F46" points="60.5011216 6.3192096 60.5011216 2.0303136 59.6659843 2.4389856 59.6659843 5.0171616 59.6539059 5.0171616 57.954298 2.0303136 57.0121804 2.4908256 57.0121804 6.3192096 57.8473176 6.3192096 57.8473176 3.2606496 57.8593961 3.2606496 59.6064549 6.3192096"></polygon>
                    <polygon id="Fill-30" fill="#002F46" points="62.2197961 4.867776 62.6373647 4.437504 63.9616784 6.319296 65.1125804 6.319296 63.2637176 3.786912 65.0099137 2.032128 63.6234824 2.27664 62.2197961 3.774816 62.2197961 2.031264 61.3251294 2.468448 61.3251294 6.319296 62.2197961 6.319296"></polygon>
                    <path d="M23.5861569,4.6947168 L24.1348627,2.9986848 L24.1469412,2.9986848 L24.6775294,4.6947168 L23.5861569,4.6947168 Z M24.6637255,2.0310048 L23.4170588,2.6401248 L22.106549,6.3190368 L23.0495294,6.3190368 L23.3471765,5.4351648 L24.9277255,5.4351648 L25.2020784,6.3190368 L26.1752549,6.3190368 L24.665451,2.0310048 L24.6637255,2.0310048 Z" id="Fill-32" fill="#002F46"></path>
                    <path d="M41.0981569,4.694544 L41.6468627,2.998512 L41.6589412,2.998512 L42.1895294,4.694544 L41.0981569,4.694544 Z M42.1722745,2.030832 L40.9256078,2.639952 L39.615098,6.318864 L40.5580784,6.318864 L40.8557255,5.434992 L42.4362745,5.434992 L42.7106275,6.318864 L43.6838039,6.318864 L42.174,2.030832 L42.1722745,2.030832 Z" id="Fill-34" fill="#002F46"></path>
                    <polygon id="Fill-36" fill="#002F46" points="27.8374196 6.3192096 27.8374196 2.7889056 28.6915373 2.7889056 29.128949 2.0303136 26.0834588 2.0303136 25.6486353 2.7854496 25.6486353 2.7889056 26.9427529 2.7889056 26.9427529 6.3192096"></polygon>
                    <polygon id="Fill-38" fill="#002F46" points="30.379498 2.0304864 30.3777725 2.0304864 29.4848314 2.4668064 29.4848314 6.3193824 30.379498 6.3193824"></polygon>
                    <path d="M33.0319216,2.6757216 C33.5150588,2.6757216 34.194902,2.9746656 34.194902,4.1747616 C34.194902,5.3757216 33.5150588,5.6738016 33.0319216,5.6738016 C32.5487843,5.6738016 31.8689412,5.3757216 31.8689412,4.1747616 C31.8689412,2.9746656 32.5487843,2.6757216 33.0319216,2.6757216 M33.0319216,6.4332576 C33.5987451,6.4332576 35.0895686,6.1878816 35.0895686,4.1747616 C35.0895686,2.1625056 33.5987451,1.9171296 33.0319216,1.9171296 C32.993098,1.9171296 32.949098,1.9188576 32.9016471,1.9214496 L31.4203137,2.6454816 C31.1580392,2.9815776 30.9742745,3.4697376 30.9742745,4.1747616 C30.9742745,6.1878816 32.465098,6.4332576 33.0319216,6.4332576" id="Fill-40" fill="#002F46"></path>
                    <polygon id="Fill-42" fill="#002F46" points="19.0271529 3.2609952 19.0392314 3.2609952 20.7862902 6.3195552 21.6809569 6.3195552 21.6809569 2.0306592 20.8458196 2.4384672 20.8458196 5.0166432 20.8346039 5.0166432 19.1341333 2.0306592 18.1920157 2.4911712 18.1920157 6.3195552 19.0271529 6.3195552"></polygon>
                    <polygon id="Fill-44" fill="#002F46" points="38.3370275 5.0174208 38.324949 5.0174208 36.6253412 2.0305728 35.6832235 2.4910848 35.6832235 6.3194688 36.517498 6.3194688 36.517498 3.2617728 36.5295765 3.2617728 38.277498 6.3194688 39.1721647 6.3194688 39.1721647 2.0314368 38.3370275 2.4392448"></polygon>
                    <polygon id="Fill-46" fill="#002F46" points="47.1464314 5.5426464 45.0180392 5.5426464 45.0180392 2.0313504 44.1233725 2.4676704 44.1233725 6.3193824 46.6986667 6.3193824"></polygon>
                    <path d="M32.6068471,10.4880096 L33.1555529,8.7902496 L33.1676314,8.7902496 L33.6990824,10.4880096 L32.6068471,10.4880096 Z M33.6852784,7.8217056 L32.437749,8.4316896 L31.1272392,12.1140576 L32.0702196,12.1140576 L32.3687294,11.2293216 L33.9492784,11.2293216 L34.2236314,12.1140576 L35.1968078,12.1140576 L33.6870039,7.8217056 L33.6852784,7.8217056 Z" id="Fill-48" fill="#002F46"></path>
                    <path d="M49.1072784,10.4880096 L49.6559843,8.7902496 L49.6680627,8.7902496 L50.1995137,10.4880096 L49.1072784,10.4880096 Z M50.1857098,7.8217056 L48.9381804,8.4316896 L47.6268078,12.1140576 L48.5697882,12.1140576 L48.868298,11.2293216 L50.4497098,11.2293216 L50.7240627,12.1140576 L51.6972392,12.1140576 L50.1874353,7.8217056 L50.1857098,7.8217056 Z" id="Fill-50" fill="#002F46"></path>
                    <path d="M41.0540706,10.4880096 L41.6027765,8.7902496 L41.6148549,8.7902496 L42.1463059,10.4880096 L41.0540706,10.4880096 Z M42.1333647,7.8217056 L40.8849725,8.4316896 L39.5736,12.1140576 L40.5165804,12.1140576 L40.8150902,11.2293216 L42.3973647,11.2293216 L42.6717176,12.1140576 L43.6448941,12.1140576 L42.1342275,7.8217056 L42.1333647,7.8217056 Z" id="Fill-52" fill="#002F46"></path>
                    <path d="M30.2592314,10.6478496 C30.1513882,11.1740256 29.8054275,11.4548256 29.3102118,11.4548256 C28.5518588,11.4548256 28.2473098,10.7610336 28.2473098,9.9903456 C28.2473098,8.7764256 28.8805647,8.4895776 29.3102118,8.4895776 C30.0504471,8.4895776 30.1876235,8.9742816 30.2592314,9.2308896 L31.1547608,9.2308896 C31.1064471,8.5975776 30.5870745,7.7128416 29.3041725,7.7128416 C29.2877804,7.7128416 29.2713882,7.7137056 29.2558588,7.7137056 L27.7771137,8.4360096 C27.4993098,8.8083936 27.3336627,9.3224736 27.3336627,9.9782496 C27.3336627,11.4608736 28.1515451,12.2324256 29.2920941,12.2324256 C30.3662118,12.2324256 30.9753098,11.5801056 31.1547608,10.6478496 L30.2592314,10.6478496 Z" id="Fill-54" fill="#002F46"></path>
                    <polygon id="Fill-56" fill="#002F46" points="38.2942353 10.8108864 38.2821569 10.8108864 36.5808235 7.8223104 35.6378431 8.2828224 35.6378431 12.1137984 36.4738431 12.1137984 36.4738431 9.0535104 36.4859216 9.0535104 38.2347059 12.1137984 39.1302353 12.1137984 39.1302353 7.8223104 38.2942353 8.2309824"></polygon>
                    <path d="M45.8350588,11.3726592 L44.9636863,11.3726592 L44.9636863,8.5629312 L45.8229804,8.5629312 C46.2051765,8.5629312 46.8082353,8.6648832 46.8082353,9.9315072 C46.8082353,10.6373952 46.5632157,11.3726592 45.8350588,11.3726592 M45.9782745,7.8216192 L44.9843922,7.8216192 L44.0854118,8.2605312 L44.0854118,12.1139712 L45.9420392,12.1139712 C47.3569412,12.1139712 47.7210196,10.7868672 47.7210196,9.8658432 C47.7210196,9.0528192 47.4225098,7.8216192 45.9782745,7.8216192" id="Fill-58" fill="#002F46"></path>
                    <polygon id="Fill-60" fill="#002F46" points="25.3304549 8.580816 25.7678667 7.82136 23.6550039 7.82136 22.7189255 8.27928 22.7189255 12.113712 23.6144549 12.113712 23.6144549 10.308816 25.0630039 10.308816 25.5004157 9.54936 23.6144549 9.54936 23.6144549 8.580816"></polygon>
                    <path d="M20.0697804,11.4970752 C19.5866431,11.4970752 18.9059373,11.1981312 18.9059373,9.9963072 C18.9059373,8.7953472 19.5866431,8.4964032 20.0697804,8.4964032 C20.5537804,8.4964032 21.2336235,8.7953472 21.2336235,9.9963072 C21.2336235,11.1981312 20.5537804,11.4970752 20.0697804,11.4970752 M20.0697804,7.7369472 C20.0309569,7.7369472 19.9869569,7.7378112 19.9395059,7.7412672 L18.4564471,8.4652992 C18.1941725,8.8022592 18.0104078,9.2904192 18.0104078,9.9963072 C18.0104078,12.0111552 19.5029569,12.2565312 20.0697804,12.2565312 C20.6366039,12.2565312 22.1291529,12.0111552 22.1291529,9.9963072 C22.1291529,7.9823232 20.6366039,7.7369472 20.0697804,7.7369472" id="Fill-62" fill="#002F46"></path>
                    <path d="M55.3212,10.5910848 L56.2650431,10.5910848 L56.2650431,11.1112128 C56.1425333,11.2053888 55.9915529,11.2909248 55.8215922,11.3565888 C55.6421412,11.4231168 55.4721804,11.4611328 55.3022196,11.4611328 C54.9528078,11.4611328 54.6698275,11.3375808 54.4524157,11.0922048 C54.2350039,10.8554688 54.1314745,10.4874048 54.1314745,10.0052928 C54.1314745,9.5508288 54.2350039,9.2104128 54.4524157,8.9840448 C54.6603373,8.7568128 54.9433176,8.6436288 55.3022196,8.6436288 C55.548102,8.6436288 55.7456706,8.6997888 55.896651,8.8233408 C56.0571216,8.9365248 56.1710039,9.0972288 56.2270824,9.2959488 L57.0389255,9.1447488 C56.9638667,8.7663168 56.7749255,8.4734208 56.4919451,8.2556928 C56.2089647,8.0483328 55.812102,7.9437888 55.3022196,7.9437888 C55.226298,7.9437888 55.1512392,7.9437888 55.0761804,7.9532928 L53.7354745,8.6246208 C53.6690431,8.7092928 53.6026118,8.8043328 53.5465333,8.8985088 C53.3765725,9.2294208 53.2816706,9.6078528 53.2816706,10.0329408 C53.2816706,10.4303808 53.3670824,10.7898048 53.5180627,11.1207168 C53.6785333,11.4611328 53.9235529,11.7160128 54.2350039,11.8957248 C54.5568078,12.0754368 54.9243373,12.1601088 55.3496706,12.1601088 C55.6895922,12.1601088 56.0200235,12.0944448 56.3495922,11.9717568 C56.6713961,11.8387008 56.9259059,11.6970048 57.0958667,11.5267968 L57.0958667,9.9007488 L55.3212,9.9007488 L55.3212,10.5910848 Z" id="Fill-64" fill="#002F46"></path>
                    <path d="M59.2860314,9.7402176 L58.6821098,9.7402176 L58.6821098,8.6999616 L59.3239922,8.6999616 C59.6544235,8.6999616 59.8528549,8.6999616 59.9184235,8.7094656 C60.0599137,8.7379776 60.1548157,8.7854976 60.2298745,8.8701696 C60.3057961,8.9557056 60.3437569,9.0688896 60.3437569,9.2105856 C60.3437569,9.3341376 60.3152863,9.4283136 60.2583451,9.5129856 C60.2014039,9.5985216 60.1263451,9.6546816 60.0314431,9.6831936 C59.9279137,9.7212096 59.6820314,9.7402176 59.2860314,9.7402176 M60.5508157,10.6292736 C60.4377961,10.5057216 60.2963059,10.3925376 60.1168549,10.2888576 C60.4757569,10.2413376 60.7397569,10.1091456 60.9192078,9.9104256 C61.0986588,9.7117056 61.192698,9.4568256 61.192698,9.1544256 C61.192698,8.9176896 61.1271294,8.6999616 61.0132471,8.5107456 C60.8907373,8.3223936 60.7302667,8.1893376 60.5413255,8.1236736 C60.3437569,8.0476416 60.0228157,8.0104896 59.5879922,8.0104896 L58.7381882,8.0104896 L57.8607765,8.4545856 L57.8607765,12.0946176 L58.6821098,12.0946176 L58.6821098,10.3830336 L58.8425804,10.3830336 C59.0315216,10.3830336 59.1730118,10.4020416 59.2575608,10.4305536 C59.3524627,10.4685696 59.4275216,10.5247296 59.5129333,10.6007616 C59.5879922,10.6854336 59.7294824,10.8841536 59.9374039,11.2055616 L60.5318353,12.0946176 L61.5231294,12.0946176 L61.0227373,11.3006016 C60.8243059,10.9783296 60.6741882,10.7614656 60.5508157,10.6292736" id="Fill-66" fill="#002F46"></path>
                    <path d="M64.5821647,11.1016224 C64.3742431,11.3383584 64.1102431,11.4610464 63.7798118,11.4610464 C63.4493804,11.4610464 63.1758902,11.3383584 62.9679686,11.1016224 C62.7505569,10.8648864 62.6470275,10.5063264 62.6470275,10.0518624 C62.6470275,9.5792544 62.7505569,9.2293344 62.9584784,8.9934624 C63.1664,8.7567264 63.4398902,8.6435424 63.7798118,8.6435424 C64.1197333,8.6435424 64.3932235,8.7567264 64.5916549,8.9934624 C64.7995765,9.2198304 64.9031059,9.5697504 64.9031059,10.0337184 C64.9031059,10.5063264 64.7995765,10.8648864 64.5821647,11.1016224 M63.7703216,7.9437024 C63.7228706,7.9437024 63.6667922,7.9437024 63.6193412,7.9532064 L63.609851,7.9532064 L62.2130667,8.6530464 L62.2130667,8.6625504 C62.1181647,8.7757344 62.0422431,8.8984224 61.9861647,9.0314784 C61.8636549,9.3148704 61.7972235,9.6647904 61.7972235,10.0803744 C61.7972235,10.7231904 61.9766745,11.2338144 62.3355765,11.6027424 C62.6936157,11.9811744 63.1758902,12.1608864 63.7798118,12.1608864 C64.3837333,12.1608864 64.8556549,11.9716704 65.2145569,11.6027424 C65.5734588,11.2338144 65.7529098,10.7136864 65.7529098,10.0518624 C65.7529098,9.3909024 65.5734588,8.8707744 65.2145569,8.5018464 C64.8556549,8.1234144 64.3742431,7.9437024 63.7703216,7.9437024" id="Fill-68" fill="#002F46"></path>
                    <path d="M68.8209176,10.2696768 C68.8209176,10.5910848 68.8019373,10.8183168 68.7829569,10.9600128 C68.7544863,11.1017088 68.6889176,11.2148928 68.5655451,11.3099328 C68.4525255,11.4136128 68.2730745,11.4611328 68.0375451,11.4611328 C67.8106431,11.4611328 67.6311922,11.4041088 67.4991922,11.3099328 C67.3671922,11.2053888 67.2817804,11.0731968 67.2446824,10.9029888 C67.225702,10.7993088 67.2162118,10.5720768 67.2162118,10.2221568 L67.2162118,8.0103168 L66.3948784,8.4163968 L66.3948784,10.1841408 C66.3948784,10.6481088 66.4138588,10.9885248 66.4699373,11.2243968 C66.507898,11.3851008 66.5838196,11.5363008 66.7063294,11.6779968 C66.819349,11.8205568 66.9798196,11.9337408 67.178251,12.0279168 C67.3766824,12.1134528 67.6786431,12.1609728 68.0660157,12.1609728 C68.3869569,12.1609728 68.6509569,12.1229568 68.8493882,12.0374208 C69.0478196,11.9527488 69.2082902,11.8482048 69.3308,11.7065088 C69.4438196,11.5648128 69.5292314,11.3946048 69.5758196,11.1958848 C69.6232706,10.9885248 69.642251,10.6481088 69.642251,10.1564928 L69.642251,8.0103168 L68.8209176,8.4259008 L68.8209176,10.2696768 Z" id="Fill-70" fill="#002F46"></path>
                    <path d="M72.691451,9.5984352 C72.6250196,9.6839712 72.5404706,9.7496352 72.427451,9.7971552 C72.3230588,9.8351712 72.1065098,9.8628192 71.7855686,9.8628192 L71.3317647,9.8628192 L71.3317647,8.7007392 L71.7286275,8.7007392 C72.021098,8.7007392 72.2195294,8.7093792 72.3230588,8.7283872 C72.4550588,8.7568992 72.5689412,8.8139232 72.6534902,8.9080992 C72.738902,9.0031392 72.7863529,9.1258272 72.7863529,9.2770272 C72.7863529,9.3997152 72.7483922,9.5042592 72.691451,9.5984352 M73.3902745,8.4735072 C73.2392941,8.2652832 73.0408627,8.1330912 72.8044706,8.0665632 C72.6534902,8.0294112 72.332549,8.0104032 71.8321569,8.0104032 L71.3981961,8.0104032 L70.5104314,8.4544992 L70.5104314,12.0945312 L71.3317647,12.0945312 L71.3317647,10.5531552 L71.8701176,10.5531552 C72.2385098,10.5531552 72.5214902,10.5341472 72.7199216,10.4969952 C72.8614118,10.4589792 73.002902,10.4019552 73.1443922,10.2982752 C73.2858824,10.2032352 73.3997647,10.0710432 73.4938039,9.9008352 C73.5878431,9.7306272 73.6258039,9.5137632 73.6258039,9.2675232 C73.6258039,8.9366112 73.5507451,8.6722272 73.3902745,8.4735072" id="Fill-72" fill="#002F46"></path>
                </g>
            </g>
        </g>
    </g>
</svg>