<?xml version="1.0" encoding="UTF-8" standalone="no"?>
<svg width="100px" height="100px" viewBox="0 0 100 100" version="1.1" xmlns="http://www.w3.org/2000/svg" xmlns:xlink="http://www.w3.org/1999/xlink">
    <!-- Generator: sketchtool 42 (36781) - http://www.bohemiancoding.com/sketch -->
    <title>3007F58B-6625-4CB6-AAC3-E35F8D2ADD11</title>
    <desc>Created with sketchtool.</desc>
    <defs>
        <polygon id="path-1" points="39.7327434 28.9501368 39.7327434 0.0276348496 0 0.0276348496 0 28.9501368 39.7327434 28.9501368"></polygon>
    </defs>
    <g id="Page-1" stroke="none" stroke-width="1" fill="none" fill-rule="evenodd">
        <g id="Home-Final" transform="translate(-1018.000000, -2384.000000)">
            <g id="Group-38" transform="translate(1018.000000, 2384.000000)">
                <g id="Group-14" fill="#00d437">
                    <g id="Group-12-Copy">
                        <g id="Group-3">
                            <ellipse id="Oval-5" cx="50" cy="49.5575221" rx="49.5575221" ry="49.5575221"></ellipse>
                        </g>
                    </g>
                </g>
                <g id="Page-1" transform="translate(30.973451, 34.513274)">
                    <path d="M26.3017699,39.796032 L13.4893805,39.796032 C12.6637168,39.796032 11.9920354,39.1564826 11.9920354,38.3682314 L12.8323009,32.4583214 C12.8853982,32.0977524 13.2238938,31.8556185 13.5823009,31.8990447 C13.9460177,31.9503666 14.1982301,32.2833007 14.1464602,32.6425538 L13.3128319,38.4603476 C13.3181416,38.4195533 13.3911504,38.4800868 13.4893805,38.4800868 L26.3017699,38.4800868 C26.3986726,38.4800868 26.4716814,38.4208692 26.4716814,38.3682314 L25.6420354,32.6425538 C25.5915929,32.2833007 25.8438053,31.9503666 26.2061947,31.8990447 C26.5712389,31.8582504 26.9057522,32.0964365 26.9575221,32.4583214 L27.7924779,38.2761152 C27.799115,39.1564826 27.1274336,39.796032 26.3017699,39.796032" id="Fill-1" stroke="#FFFFFF" stroke-width="1.2" fill="#FFFFFF"></path>
                    <g id="Group-5" transform="translate(0.000000, 0.317675)">
                        <mask id="mask-2" fill="white">
                            <use xlink:href="#path-1"></use>
                        </mask>
                        <g id="Clip-4"></g>
                        <path d="M3.37367257,1.34292209 C2.22676991,1.34292209 1.32676991,2.21670972 1.32676991,3.33394721 L1.32676991,25.6326389 C1.32676991,26.7564561 2.22676991,27.6341916 3.37367257,27.6341916 L36.3537611,27.6341916 C37.504646,27.6341916 38.4059735,26.7564561 38.4059735,25.6326389 L38.4059735,3.33394721 C38.4059735,2.21670972 37.504646,1.34292209 36.3537611,1.34292209 L3.37367257,1.34292209 Z M36.3537611,28.9501368 L3.37367257,28.9501368 C1.48207965,28.9501368 -0.000663716814,27.4933855 -0.000663716814,25.6326389 L-0.000663716814,3.33394721 C-0.000663716814,1.4797804 1.48207965,0.026976877 3.37367257,0.026976877 L36.3537611,0.026976877 C38.2480088,0.026976877 39.7334071,1.4797804 39.7334071,3.33394721 L39.7334071,25.6326389 C39.7334071,27.4933855 38.2480088,28.9501368 36.3537611,28.9501368 L36.3537611,28.9501368 Z" id="Fill-3" stroke="#FFFFFF" fill="#FFFFFF" mask="url(#mask-2)"></path>
                    </g>
                    <g id="Group-8" transform="translate(0.884956, 23.008850)" stroke="#FFFFFF" fill="#FFFFFF">
                        <path d="M37.3327522,1.07794395 L0.635613569,1.07794395 C0.285525074,1.07794395 0.00139528024,0.836484502 0.00139528024,0.538971973 C0.00139528024,0.241459444 0.285525074,0 0.635613569,0 L37.3327522,0 C37.6828407,0 37.9669705,0.241459444 37.9669705,0.538971973 C37.9669705,0.836484502 37.6828407,1.07794395 37.3327522,1.07794395" id="Fill-6"></path>
                    </g>
                </g>
            </g>
        </g>
    </g>
</svg>