<?xml version="1.0" encoding="UTF-8" standalone="no"?>
<svg width="100px" height="100px" viewBox="0 0 100 100" version="1.1" xmlns="http://www.w3.org/2000/svg" xmlns:xlink="http://www.w3.org/1999/xlink">
    <!-- Generator: sketchtool 42 (36781) - http://www.bohemiancoding.com/sketch -->
    <title>57CEC9F2-E810-4751-820D-9ED9B06691A9</title>
    <desc>Created with sketchtool.</desc>
    <defs>
        <polygon id="path-1" points="41.7823006 0.39984472 0 0.39984472 0 29.852205 41.7823006 29.852205 41.7823006 0.39984472"></polygon>
        <polygon id="path-3" points="0 29.9575776 41.7824405 29.9575776 41.7824405 0.504937888 0 0.504937888"></polygon>
    </defs>
    <g id="Page-1" stroke="none" stroke-width="1" fill="none" fill-rule="evenodd">
        <g id="Home-Final" transform="translate(-591.000000, -2384.000000)">
            <g id="Group-25" transform="translate(591.000000, 2384.000000)">
                <g id="Group-12" fill="#00d437">
                    <g id="Group-3">
                        <ellipse id="Oval-5" cx="50" cy="50" rx="50" ry="50"></ellipse>
                    </g>
                </g>
                <g id="Page-1" transform="translate(29.464286, 35.714286)">
                    <path d="M34.3343393,22.9208075 L24.415381,22.9208075 C24.0279107,22.9208075 23.7159762,22.607764 23.7159762,22.2220497 C23.7159762,21.8363354 24.0279107,21.5232919 24.415381,21.5232919 L34.3343393,21.5232919 C34.7204107,21.5232919 35.033744,21.8363354 35.033744,22.2220497 C35.033744,22.607764 34.7204107,22.9208075 34.3343393,22.9208075 Z" id="Fill-1" stroke="#FFFFFF" stroke-width="1.5" fill="#FFFFFF"></path>
                    <g id="Group-5" transform="translate(0.000000, 0.105093)">
                        <mask id="mask-2" fill="white">
                            <use xlink:href="#path-1"></use>
                        </mask>
                        <g id="Clip-4"></g>
                        <path d="M3.0073006,1.79708075 C2.12045536,1.79708075 1.39866964,2.52378882 1.39866964,3.41680124 L1.39866964,26.8349689 C1.39866964,27.7279814 2.12045536,28.4546894 3.0073006,28.4546894 L38.7748601,28.4546894 C39.6617054,28.4546894 40.3834911,27.7279814 40.3834911,26.8349689 L40.3834911,3.41680124 C40.3834911,2.52378882 39.6617054,1.79708075 38.7748601,1.79708075 L3.0073006,1.79708075 Z M38.7748601,29.852205 L3.0073006,29.852205 C1.3483125,29.852205 -0.000139880951,28.4980124 -0.000139880951,26.8349689 L-0.000139880951,3.41680124 C-0.000139880951,1.75375776 1.3483125,0.399565217 3.0073006,0.399565217 L38.7748601,0.399565217 C40.4324494,0.399565217 41.7823006,1.75375776 41.7823006,3.41680124 L41.7823006,26.8349689 C41.7823006,28.4980124 40.4324494,29.852205 38.7748601,29.852205 L38.7748601,29.852205 Z" id="Fill-3" stroke="#FFFFFF" stroke-width="1.5" fill="#FFFFFF" mask="url(#mask-2)"></path>
                    </g>
                    <mask id="mask-4" fill="white">
                        <use xlink:href="#path-3"></use>
                    </mask>
                    <g id="Clip-7"></g>
                    <path d="M1.39880952,13.0825776 L40.383631,13.0825776 L40.383631,7.49251553 L1.39880952,7.49251553 L1.39880952,13.0825776 Z M41.0830357,14.4800932 L0.699404762,14.4800932 C0.313333333,14.4800932 0,14.1670497 0,13.7813354 L0,6.79375776 C0,6.40664596 0.313333333,6.095 0.699404762,6.095 L41.0830357,6.095 C41.4691071,6.095 41.7824405,6.40664596 41.7824405,6.79375776 L41.7824405,13.7813354 C41.7824405,14.1670497 41.4691071,14.4800932 41.0830357,14.4800932 L41.0830357,14.4800932 Z" id="Fill-6" stroke="#FFFFFF" stroke-width="1.5" fill="#FFFFFF" mask="url(#mask-4)"></path>
                </g>
            </g>
        </g>
    </g>
</svg>