<?xml version="1.0" encoding="UTF-8" standalone="no"?>
<svg width="72px" height="73px" viewBox="0 0 72 73" version="1.1" xmlns="http://www.w3.org/2000/svg" xmlns:xlink="http://www.w3.org/1999/xlink">
    <!-- Generator: sketchtool 41.2 (35397) - http://www.bohemiancoding.com/sketch -->
    <title>96E2E593-AEF0-475E-AA2D-8F0EB669A932</title>
    <desc>Created with sketchtool.</desc>
    <defs>
        <path d="M4.95227992,0.00032092694 C3.22858378,1.24652012 1.62473508,2.64663499 0.161163917,4.18035476 L0.161163917,51.6609328 C6.48486724,58.2877297 15.4273769,62.4202899 25.3407461,62.4202899 C36.5391468,62.4202899 46.498588,57.1470039 52.8437679,48.9619586 L52.8437679,6.87932894 C50.8156617,4.26314764 48.4183118,1.94444031 45.7292821,0.000320926936 L4.95227992,0.00032092694 L4.95227992,0.00032092694 Z" id="path-1"></path>
    </defs>
    <g id="Final-Design" stroke="none" stroke-width="1" fill="none" fill-rule="evenodd">
        <g id="Chat-Box" transform="translate(-18.000000, -47.000000)">
            <g id="Group-53" transform="translate(18.000000, 47.000000)">
                <ellipse id="Oval-7" fill="#FFFFFF" cx="36" cy="35.9710145" rx="36" ry="35.9710145"></ellipse>
                <g id="Page-1" transform="translate(10.588235, 10.579710)">
                    <mask id="mask-2" fill="white">
                        <use xlink:href="#path-1"></use>
                    </mask>
                    <g id="Clip-2"></g>
                    <polygon id="Fill-1" fill="#F9BDA0" mask="url(#mask-2)" points="1.71090387 63.1590637 51.2946736 63.1590637 51.2946736 50.8353087 1.71090387 50.8353087"></polygon>
                    <path d="M14.1063217,17.7666759 L23.9199695,15.8154401 L24.5397687,29.2685369 L20.8211352,33.4795798 L21.3374731,38.203143 C21.3374731,38.203143 16.9990405,40.7705585 15.5526811,38.1009277 C14.1063217,35.4308156 13.5899839,19.1017319 13.3838684,18.6911059 C13.2804071,18.3828556 14.1063217,17.7666759 14.1063217,17.7666759" id="Fill-3" fill="#542F07" mask="url(#mask-2)"></path>
                    <path d="M13.3838684,18.793963 C13.1771072,18.4855522 14.0036675,17.7666759 14.0036675,17.7666759 L23.8166697,15.8154401 L24.5397687,29.2685369 L20.8211352,33.4795798 L21.3374731,38.203143" id="Fill-4" fill="#3D1F03" mask="url(#mask-2)"></path>
                    <path d="M38.8986101,17.7666759 L29.0849623,15.8154401 L28.4651632,29.2685369 L32.1837966,33.4795798 L31.6674588,38.203143 C31.6674588,38.203143 36.0058913,40.7705585 37.4522507,38.1009277 C38.8986101,35.4308156 39.414948,19.1017319 39.6217091,18.6911059 C39.7251704,18.3828556 38.8986101,17.7666759 38.8986101,17.7666759" id="Fill-5" fill="#542F07" mask="url(#mask-2)"></path>
                    <path d="M39.6217091,18.793963 C39.8286316,18.4855522 39.0020714,17.7666759 39.0020714,17.7666759 L29.1884236,15.8154401 L28.4651632,29.2685369 L32.1837966,33.4795798 L31.6674588,38.203143" id="Fill-6" fill="#3D1F03" mask="url(#mask-2)"></path>
                    <polygon id="Fill-7" fill="#F9BDA0" mask="url(#mask-2)" points="20.3047166 51.861954 32.7008608 51.861954 32.7008608 25.1611535 20.3047166 25.1611535"></polygon>
                    <polygon id="Fill-8" fill="#EBA78C" mask="url(#mask-2)" points="32.7009415 38.1009277 32.7009415 25.1611535 20.3047973 25.1611535 26.6059272 43.0302051"></polygon>
                    <path d="M36.3161137,14.8914914 C36.3161137,24.3394201 31.5641589,32.8634001 26.5024659,32.8634001 C21.4409344,32.8634001 16.6888181,24.3394201 16.6888181,14.8914914 C16.6888181,5.44356276 21.4409344,3.90279252 26.5024659,3.90279252 C31.5641589,3.90279252 36.3161137,5.44356276 36.3161137,14.8914914" id="Fill-9" fill="#FCCCB9" mask="url(#mask-2)"></path>
                    <path d="M26.5024659,3.90279252 C31.5641589,3.90279252 36.3161137,5.44356276 36.3161137,14.8914914 C36.3161137,24.3394201 31.5641589,32.8634001 26.5024659,32.8634001" id="Fill-10" fill="#F9BDA0" mask="url(#mask-2)"></path>
                    <polygon id="Fill-11" fill="#F9BDA0" mask="url(#mask-2)" points="20.717674 38.8199645 0.264625179 45.0842979 1.29730093 62.6449387 26.0895893 56.4834624"></polygon>
                    <polyline id="Fill-12" fill="#FCCCB9" mask="url(#mask-2)" points="0.264625179 45.0842979 1.29730093 62.6449387 26.0895893 56.4834624"></polyline>
                    <polygon id="Fill-13" fill="#F9BDA0" mask="url(#mask-2)" points="32.2872579 38.8199645 52.7411137 45.0842979 51.7076309 62.6449387 26.9161496 56.4834624"></polygon>
                    <polyline id="Fill-14" fill="#EBA78C" mask="url(#mask-2)" points="52.7410976 45.0842979 51.7076148 62.6449387 26.9161334 56.4834624"></polyline>
                    <path d="M24.2301919,2.05441381 C24.2301919,2.05441381 27.2257263,17.0476391 39.6217091,18.5884093 C39.6217091,18.5884093 40.0347471,9.3453925 36.6263361,5.34070567 C33.2172794,1.335377 27.9488253,1.8488601 27.9488253,1.8488601 L24.2301919,2.05441381 Z" id="Fill-15" fill="#663D0C" mask="url(#mask-2)"></path>
                    <path d="M31.1511209,2.05441381 C31.1511209,2.05441381 33.630156,13.761989 13.3838684,19.3072856 C13.3838684,19.3072856 11.8340477,9.44824958 15.8629035,5.13515197 C19.8911137,0.924911441 27.1222651,1.64314593 27.1222651,1.64314593 L31.1511209,2.05441381 Z" id="Fill-16" fill="#894D0C" mask="url(#mask-2)"></path>
                    <path d="M27.1222651,1.64314593 L31.1511209,2.15711043 C31.1511209,2.15711043 33.630156,13.8640438 13.3838684,19.4101427" id="Fill-17" fill="#663D0C" mask="url(#mask-2)"></path>
                    <polygon id="Fill-18" fill="#24D1FF" mask="url(#mask-2)" points="1.71090387 63.1590637 51.2946736 63.1590637 51.2946736 50.8353087 1.71090387 50.8353087"></polygon>
                    <polygon id="Fill-19" fill="#0CAAEF" mask="url(#mask-2)" points="1.71090387 63.1589032 51.2946736 63.1589032 51.2946736 51.861954 1.71090387 51.861954"></polygon>
                    <polygon id="Fill-20" fill="#037193" mask="url(#mask-2)" points="25.6759057 63.1590637 19.3747758 39.3332872 0.161163917 45.494924 0.677501793 63.1590637"></polygon>
                    <polygon id="Fill-21" fill="#0C537A" mask="url(#mask-2)" points="25.6759057 63.1590637 19.3747758 39.3332872 0.161163917 45.494924 2.84712159 63.1590637"></polygon>
                    <polygon id="Fill-22" fill="#00233F" mask="url(#mask-2)" points="25.6759057 63.1590637 19.3747758 39.3332872 0.161163917 45.494924 6.97863164 63.1590637"></polygon>
                    <polygon id="Fill-23" fill="#00233F" mask="url(#mask-2)" points="27.3290262 63.1590637 33.630156 39.3332872 52.8437679 45.494924 52.3274301 63.1590637"></polygon>
                    <path d="M35.0765154,28.2418917 L33.1138181,28.2418917 C32.8035958,28.2418917 32.5974803,28.036338 32.5974803,27.728569 C32.5974803,27.4201582 32.8035958,27.2152464 33.1138181,27.2152464 L35.0765154,27.2152464 C36.5228748,27.2152464 37.8659344,26.0851022 37.8659344,24.6478309 L37.8659344,22.593738 C37.8659344,22.2853272 38.0720499,22.0804153 38.3822722,22.0804153 C38.691849,22.0804153 38.8986101,22.2853272 38.8986101,22.593738 L38.8986101,24.6478309 C38.8986101,26.5990667 37.0392127,28.2418917 35.0765154,28.2418917" id="Fill-24" fill="#0CAAEF" mask="url(#mask-2)"></path>
                    <path d="M33.630156,27.4201582 C33.630156,28.4474454 32.8035958,29.1664822 31.8742199,29.1664822 C30.8408985,29.1664822 30.1184451,28.3447487 30.1184451,27.4201582 C30.1184451,26.3933525 30.9443598,25.6744761 31.8742199,25.6744761 C32.8035958,25.6744761 33.630156,26.4962096 33.630156,27.4201582" id="Fill-25" fill="#24D1FF" mask="url(#mask-2)"></path>
                    <path d="M31.77092,29.2685369 C30.7380829,29.2685369 30.0149839,28.4474454 30.0149839,27.5230153 C30.0149839,26.4962096 30.8408985,25.7773332 31.77092,25.7773332" id="Fill-26" fill="#0CAAEF" mask="url(#mask-2)"></path>
                    <path d="M39.414948,16.3294046 C39.1053712,16.3294046 38.8986101,16.1236904 38.8986101,15.8154401 C38.8986101,7.59971041 33.3205793,1.02696621 26.5024659,1.02696621 C19.6849982,1.02696621 14.1063217,7.59971041 14.1063217,15.8154401 C14.1063217,16.1236904 13.9002062,16.3294046 13.5899839,16.3294046 C13.2804071,16.3294046 13.073646,16.1236904 13.073646,15.8154401 C13.073646,7.08638776 19.0651991,0.000320926941 26.5024659,0.000320926941 C33.9403784,0.000320926941 39.9312859,7.08638776 39.9312859,15.8154401 C39.9312859,16.0209938 39.7251704,16.3294046 39.414948,16.3294046" id="Fill-27" fill="#0CAAEF" mask="url(#mask-2)"></path>
                    <path d="M17.2059631,21.5662904 C17.2059631,22.9015069 15.9663648,24.0316511 14.6234666,24.0316511 C13.2804071,24.0316511 12.0409702,22.9015069 12.0409702,21.5662904 L12.0409702,17.5616036 C12.0409702,16.2265475 13.2804071,15.0964033 14.6234666,15.0964033 C15.9663648,15.0964033 17.2059631,16.2265475 17.2059631,17.5616036 L17.2059631,21.5662904 Z" id="Fill-28" fill="#24D1FF" mask="url(#mask-2)"></path>
                    <path d="M14.5200054,15.0964033 C15.8629035,15.0964033 17.2059631,16.2265475 17.2059631,17.5616036 L17.2059631,21.5662904 C17.2059631,22.9015069 15.9663648,24.0316511 14.6234666,24.0316511" id="Fill-29" fill="#0CAAEF" mask="url(#mask-2)"></path>
                    <path d="M35.7997758,17.5616036 C35.7997758,16.2265475 37.0392127,15.0964033 38.3822722,15.0964033 C39.7251704,15.0964033 40.9647687,16.2265475 40.9647687,17.5616036 L40.9647687,21.5662904 C40.9647687,22.9015069 39.7251704,24.0316511 38.3822722,24.0316511 C37.0392127,24.0316511 35.7997758,22.9015069 35.7997758,21.5662904 L35.7997758,17.5616036 Z" id="Fill-30" fill="#24D1FF" mask="url(#mask-2)"></path>
                    <path d="M38.4855721,24.0316511 C37.142674,24.0316511 35.7997758,22.9015069 35.7997758,21.5662904 L35.7997758,17.5616036 C35.7997758,16.2265475 37.0392127,15.0964033 38.3822722,15.0964033" id="Fill-31" fill="#0CAAEF" mask="url(#mask-2)"></path>
                </g>
            </g>
        </g>
    </g>
</svg>