<?xml version="1.0" encoding="UTF-8" standalone="no"?>
<svg width="21px" height="21px" viewBox="0 0 21 21" version="1.1" xmlns="http://www.w3.org/2000/svg" xmlns:xlink="http://www.w3.org/1999/xlink">
    <!-- Generator: sketchtool 41.2 (35397) - http://www.bohemiancoding.com/sketch -->
    <title>AFD87AA8-3BDE-4A5E-96AD-0E96D8A7E548</title>
    <desc>Created with sketchtool.</desc>
    <defs></defs>
    <g id="Page-1" stroke="none" stroke-width="1" fill="none" fill-rule="evenodd">
        <g id="Pop-up" transform="translate(-1198.000000, -606.000000)" fill="#EF5350">
            <g id="Group-38">
                <g id="Hover" transform="translate(1182.000000, 467.000000)">
                    <g id="Group-35" transform="translate(0.000000, 123.000000)">
                        <g id="Layer_1" transform="translate(16.000000, 16.000000)">
                            <path d="M18.2144094,0 L8.73292982,0 C7.21953801,0 5.98827485,1.23366797 5.98827485,2.75001563 L5.98827485,7.00932422 C4.04059649,7.13852344 2.49511111,8.76639258 2.49511111,10.7500312 C2.49511111,11.8392422 2.96136842,12.8210332 3.70390058,13.5067734 C1.52354386,14.4227344 0,16.4825391 0,18.871248 C0,20.0450332 0.953146199,21 2.12464327,21 L10.2300292,21 C11.4016082,21 12.3546725,20.0450332 12.3546725,18.871248 C12.3546725,17.2827539 11.7176725,15.8002031 10.5609942,14.6966367 C10.0351754,14.1949746 9.42752632,13.797 8.76555556,13.5126797 C9.51173099,12.8266934 9.98052632,11.8422773 9.98052632,10.7499902 C9.98052632,10.4970879 9.95477778,10.2458262 9.90483626,9.99997852 L18.2144503,9.99997852 C19.7278421,9.99997852 20.9591053,8.76631055 20.9591053,7.24996289 L20.9591053,2.75001563 C20.9590643,1.23366797 19.7278012,0 18.2144094,0 Z M5.98831579,8.5141875 L5.98831579,11.2499707 L7.48537427,11.2499707 C7.48537427,10.6861699 7.85993567,10.208584 8.37273684,10.0532578 C8.44523392,10.2770391 8.4834269,10.5121406 8.4834269,10.7499492 C8.4834269,11.9905898 7.47604094,12.9999434 6.23781871,12.9999434 C4.99959649,12.9999434 3.99221053,11.9905898 3.99221053,10.7499492 C3.99221053,9.59388281 4.86708772,8.63903906 5.98831579,8.5141875 Z M10.857614,18.871248 C10.857614,19.2179531 10.5760585,19.5000176 10.2300292,19.5000176 L2.12464327,19.5000176 C1.77861404,19.5000176 1.49705848,19.2179531 1.49705848,18.871248 C1.49705848,16.4609648 3.62374854,14.5000078 6.23781871,14.5000078 C8.82835088,14.5000078 10.857614,16.4200312 10.857614,18.871248 Z M19.4620058,7.25000391 C19.4620058,7.93927148 18.9023333,8.49999609 18.2144503,8.49999609 L8.73292982,8.49999609 C8.2839883,8.49999609 7.8598538,8.60856445 7.48537427,8.8008457 L7.48537427,2.75001563 C7.48537427,2.06074805 8.04504678,1.50002344 8.73292982,1.50002344 L18.2144094,1.50002344 C18.9023333,1.50002344 19.4619649,2.06078906 19.4619649,2.75001563 L19.4619649,7.25000391 L19.4620058,7.25000391 Z" id="Shape"></path>
                            <ellipse id="Oval" cx="9.98052632" cy="5.00000977" rx="0.998052632" ry="1.00000195"></ellipse>
                            <ellipse id="Oval" cx="13.4736901" cy="5.00000977" rx="0.998052632" ry="1.00000195"></ellipse>
                            <ellipse id="Oval" cx="16.9668538" cy="5.00000977" rx="0.998052632" ry="1.00000195"></ellipse>
                        </g>
                    </g>
                </g>
            </g>
        </g>
    </g>
</svg>