<?xml version="1.0" encoding="UTF-8" standalone="no"?>
<svg width="20px" height="20px" viewBox="0 0 20 20" version="1.1" xmlns="http://www.w3.org/2000/svg" xmlns:xlink="http://www.w3.org/1999/xlink">
    <!-- Generator: sketchtool 41.2 (35397) - http://www.bohemiancoding.com/sketch -->
    <title>04B05DD6-B8B4-4624-B27D-DA5A97ABCEB9</title>
    <desc>Created with sketchtool.</desc>
    <defs></defs>
    <g id="Page-1" stroke="none" stroke-width="1" fill="none" fill-rule="evenodd">
        <g id="Pop-up" transform="translate(-1198.000000, -546.000000)" fill="#EF5350">
            <g id="Group-38">
                <g id="Hover" transform="translate(1182.000000, 467.000000)">
                    <g id="Group-36" transform="translate(0.000000, 61.000000)">
                        <g id="telephone-auricular-outlined-tool-symbol" transform="translate(16.000000, 18.000000)">
                            <g id="Capa_1">
                                <g id="Phone">
                                    <path d="M18.3046024,12.5224837 L15.076309,10.8581046 C14.2860454,10.4493464 13.2641731,10.5887255 12.6090716,11.1931046 L12.2323044,11.5393464 C11.8667709,11.8768627 11.2969475,11.955 10.8542111,11.725 C9.75321469,11.1562418 8.87265854,10.2725163 8.30534243,9.17 C8.07308243,8.71748366 8.14719203,8.16248366 8.49152813,7.78748366 L8.83716669,7.41 C9.20768211,7.00562092 9.41132069,6.48062092 9.41132069,5.93251634 C9.41132069,5.58751634 9.32786599,5.24251634 9.17033426,4.935 L7.51012953,1.69751634 C6.97270472,0.65124183 5.91091219,0 4.73955077,0 C4.05081344,0 3.39818663,0.22127451 2.85265404,0.639379085 L1.87125545,1.39062092 C0.329997277,2.56937908 -0.303353225,4.605 0.293854196,6.45562092 C2.28286327,12.6118954 7.10347104,17.5768954 13.1888261,19.7375163 C13.6801767,19.9118954 14.1939294,20 14.7151712,20 C15.9338768,20 17.1220399,19.5031373 17.9758306,18.635 L19.0998804,17.4943791 C19.6802536,16.9056209 19.9990942,16.1268627 19.9990942,15.3012745 C19.9990942,14.1256209 19.3495607,13.0612418 18.3046024,12.5224837 Z M17.7696848,16.1781373 L16.6462862,17.3187582 C15.9251504,18.0512418 14.783029,18.3156209 13.8115616,17.9706209 C8.2710879,16.0043791 3.88204805,11.4831373 2.07114947,5.87813725 C1.71805437,4.78251634 2.09231434,3.57813725 3.00461779,2.88 L3.98666761,2.12813725 C4.20401452,1.96189542 4.46430982,1.87375817 4.73955077,1.87375817 C5.20784787,1.87375817 5.63316401,2.13437908 5.84800369,2.555 L7.50758975,5.79248366 C7.52999195,5.83624183 7.54184427,5.88372549 7.54184427,5.93310458 C7.54184427,6.03310458 7.49700732,6.10248366 7.4590408,6.14372549 L7.11405347,6.52058824 C6.24346109,7.47058824 6.05476816,8.87996732 6.64451904,10.0281046 C7.38932699,11.4793137 8.55007341,12.6418301 9.99794568,13.3905882 C11.1219955,13.9718301 12.5655045,13.7762418 13.4952283,12.9199673 L13.8726141,12.5724837 C13.9336341,12.5162092 14.0917845,12.457451 14.2225834,12.5243464 L17.4508442,14.1887255 C17.8705924,14.4049673 18.1308877,14.8312092 18.1308877,15.3012418 C18.1302365,15.6306209 18.0019774,15.9418627 17.7696848,16.1781373 Z" id="Shape"></path>
                                </g>
                            </g>
                        </g>
                    </g>
                </g>
            </g>
        </g>
    </g>
</svg>