<?xml version="1.0" encoding="UTF-8" standalone="no"?>
<svg width="59px" height="60px" viewBox="0 0 59 60" version="1.1" xmlns="http://www.w3.org/2000/svg" xmlns:xlink="http://www.w3.org/1999/xlink">
    <!-- Generator: sketchtool 41.2 (35397) - http://www.bohemiancoding.com/sketch -->
    <title>F55A244A-5432-4D3D-BC42-0E6EBADD2EF5</title>
    <desc>Created with sketchtool.</desc>
    <defs>
        <path d="M50.9908929,26.0277475 C50.968125,40.3257436 39.556875,51.6728472 25.2313393,51.6405719 C11.22,51.6129072 -0.00910714286,40.0767621 3.75128498e-13,25.7280475 C0.00910714286,11.3655006 11.3429464,-0.00465687716 25.6411607,0.00917543123 C39.7936607,0.0230077396 51.0136607,11.5407099 50.9908929,26.0277475" id="path-1"></path>
        <filter x="-50%" y="-50%" width="200%" height="200%" filterUnits="objectBoundingBox" id="filter-2">
            <feOffset dx="0" dy="2" in="SourceAlpha" result="shadowOffsetOuter1"></feOffset>
            <feGaussianBlur stdDeviation="2" in="shadowOffsetOuter1" result="shadowBlurOuter1"></feGaussianBlur>
            <feColorMatrix values="0 0 0 0 0   0 0 0 0 0   0 0 0 0 0  0 0 0 0.5 0" type="matrix" in="shadowBlurOuter1"></feColorMatrix>
        </filter>
    </defs>
    <g id="Page-1" stroke="none" stroke-width="1" fill="none" fill-rule="evenodd">
        <g id="Working-File-Approved-Copy-4" transform="translate(-1178.000000, -667.000000)">
            <g id="Contact" transform="translate(1182.000000, 669.000000)">
                <g id="Group-34">
                    <g id="Page-1">
                        <g id="Group-3">
                            <g>
                                <g id="Fill-1">
                                    <use fill="black" fill-opacity="1" filter="url(#filter-2)" xlink:href="#path-1"></use>
                                    <use fill="#EF5350" fill-rule="evenodd" xlink:href="#path-1"></use>
                                </g>
                            </g>
                        </g>
                    </g>
                    <g id="message" transform="translate(13.000000, 15.500000)" fill="#FFFFFF">
                        <g id="Capa_1">
                            <g id="Group">
                                <path d="M26.0379832,0.0952054795 L0.850840336,0.0952054795 C0.38094958,0.0952054795 0,0.478538813 0,0.951369863 L0,18.5141553 C0,18.9869863 0.38094958,19.3703196 0.850840336,19.3703196 L7.14615126,19.3703196 C7.61604202,19.3703196 7.9969916,18.9869863 7.9969916,18.5141553 C7.9969916,18.0413242 7.61604202,17.6579909 7.14615126,17.6579909 L1.70168067,17.6579909 L1.70168067,1.80753425 L25.1871429,1.80753425 L25.1871429,17.6579909 L15.0834706,17.6579909 C14.9102395,17.6579909 14.7410924,17.7111872 14.5987185,17.8106164 L6.66139916,23.3473744 C6.27523109,23.6166667 6.1792563,24.1501142 6.44687395,24.5388128 C6.61205042,24.778653 6.87717227,24.9073059 7.14694538,24.9073059 C7.31416387,24.9073059 7.48308403,24.8578767 7.63090336,24.7546804 L15.3495,19.3704338 L26.0378697,19.3704338 C26.5077605,19.3704338 26.8887101,18.9871005 26.8887101,18.5142694 L26.8887101,0.951369863 C26.8888235,0.478538813 26.5078739,0.0952054795 26.0379832,0.0952054795 Z" id="Shape"></path>
                                <path d="M16.5930882,6.90079909 C17.062979,6.90079909 17.4439286,6.51746575 17.4439286,6.0446347 C17.4439286,5.57180365 17.062979,5.18847032 16.5930882,5.18847032 L10.2961891,5.18847032 C9.82629832,5.18847032 9.44534874,5.57180365 9.44534874,6.0446347 C9.44534874,6.51746575 9.82629832,6.90079909 10.2961891,6.90079909 L16.5930882,6.90079909 Z" id="Shape"></path>
                                <path d="M6.29701261,9.73287671 C6.29701261,10.2057078 6.67796218,10.5890411 7.14785294,10.5890411 L19.7414244,10.5890411 C20.2113151,10.5890411 20.5922647,10.2057078 20.5922647,9.73287671 C20.5922647,9.26004566 20.2113151,8.87671233 19.7414244,8.87671233 L7.14785294,8.87671233 C6.67796218,8.87671233 6.29701261,9.25993151 6.29701261,9.73287671 Z" id="Shape"></path>
                                <path d="M7.14785294,14.2769406 L19.7414244,14.2769406 C20.2113151,14.2769406 20.5922647,13.8936073 20.5922647,13.4207763 C20.5922647,12.9479452 20.2113151,12.5646119 19.7414244,12.5646119 L7.14785294,12.5646119 C6.67796218,12.5646119 6.29701261,12.9479452 6.29701261,13.4207763 C6.29701261,13.8936073 6.67796218,14.2769406 7.14785294,14.2769406 Z" id="Shape"></path>
                            </g>
                        </g>
                    </g>
                </g>
            </g>
        </g>
    </g>
</svg>