<?xml version="1.0" encoding="UTF-8" standalone="no"?>
<svg width="23px" height="17px" viewBox="0 0 23 17" version="1.1" xmlns="http://www.w3.org/2000/svg" xmlns:xlink="http://www.w3.org/1999/xlink">
    <!-- Generator: sketchtool 41.2 (35397) - http://www.bohemiancoding.com/sketch -->
    <title>98F3C444-DAA9-46B4-9378-7B584ECD7616</title>
    <desc>Created with sketchtool.</desc>
    <defs></defs>
    <g id="Page-1" stroke="none" stroke-width="1" fill="none" fill-rule="evenodd">
        <g id="Pop-up" transform="translate(-1196.000000, -485.000000)" stroke-width="0.5" stroke="#EF5350" fill="#EF5350">
            <g id="Group-38">
                <g id="Hover" transform="translate(1182.000000, 467.000000)">
                    <g id="Group-37">
                        <g id="email" transform="translate(15.000000, 19.000000)">
                            <g id="Layer_1">
                                <path d="M20.9390877,0.387834225 C20.8604094,0.178074866 20.6578187,0.0386229947 20.4297251,0.0386229947 L0.574900585,0.0386229947 C0.346807018,0.0386229947 0.142947368,0.178034759 0.0642690058,0.387834225 C0.0402807018,0.451804813 0.0142046784,0.518141711 0.0157602339,0.583596257 C0.0157192982,0.58540107 0,0.587165775 0,0.588970588 L0,14.4458021 C0,14.740107 0.274432749,14.961377 0.574859649,14.961377 L20.4296842,14.961377 C20.7300702,14.961377 20.9427719,14.7401471 20.9427719,14.4458021 L20.9427719,0.588970588 C20.9427719,0.587205882 20.958,0.58552139 20.9579591,0.583676471 C20.9595146,0.518262032 20.963076,0.45184492 20.9390877,0.387834225 Z M18.9280409,1.10454545 L10.5022515,8.11580214 L2.07654386,1.10454545 L18.9280409,1.10454545 Z M1.08794737,1.72347594 L8.02990058,7.5 L1.08794737,13.2765642 L1.08794737,1.72347594 Z M2.05566667,13.8954545 L8.9011345,8.1992246 L10.1502047,9.23859626 C10.2517661,9.3230615 10.3770292,9.36533422 10.5023743,9.36533422 C10.6277193,9.36533422 10.7529415,9.3230615 10.8545439,9.23859626 L12.103614,8.1992246 L18.949,13.8954545 L2.05566667,13.8954545 Z M19.8548246,13.2765642 L12.9129123,7.5 L19.8548246,1.72347594 L19.8548246,13.2765642 Z" id="Shape"></path>
                            </g>
                        </g>
                    </g>
                </g>
            </g>
        </g>
    </g>
</svg>