<?xml version="1.0" encoding="UTF-8" standalone="no"?>
<svg width="174px" height="29px" viewBox="0 0 174 29" version="1.1" xmlns="http://www.w3.org/2000/svg" xmlns:xlink="http://www.w3.org/1999/xlink">
    <!-- Generator: sketchtool 41.2 (35397) - http://www.bohemiancoding.com/sketch -->
    <title>BF8562B4-1BDF-430A-93C2-E020F59731B6</title>
    <desc>Created with sketchtool.</desc>
    <defs>
        <polygon id="path-1" points="0.215197059 5.54411765 6.39731471 5.54411765 6.39731471 0.175066176 0.215197059 0.175066176 0.215197059 5.54411765"></polygon>
        <polygon id="path-3" points="0.358832353 5.54411765 6.59468529 5.54411765 6.59468529 0.175066176 0.358832353 0.175066176 0.358832353 5.54411765"></polygon>
        <polygon id="path-5" points="0 0.110711765 0 20.0166529 30.0080912 20.0166529 30.0080912 0.110711765"></polygon>
    </defs>
    <g id="Page-1" stroke="none" stroke-width="1" fill="none" fill-rule="evenodd">
        <g id="Working-File-Approved-Copy-4" transform="translate(-62.000000, -810.000000)">
            <g id="Page-1" transform="translate(62.000000, 810.000000)">
                <path d="M82.9051147,25.6907162 C83.5107029,25.6907162 83.8714971,25.4838779 83.8714971,25.0390691 C83.8714971,24.7631426 83.6488794,24.5558779 83.1273059,24.5558779 L82.0150706,24.5558779 L81.7156882,25.6907162 L82.9051147,25.6907162 Z M82.5212912,27.8542015 C83.1119529,27.8542015 83.4804235,27.592775 83.4804235,27.179525 C83.4804235,26.8647897 83.2266735,26.6724515 82.7434824,26.6724515 L81.4478647,26.6724515 L81.1331294,27.8542015 L82.5212912,27.8542015 Z M81.1484824,23.5204074 L83.23435,23.5204074 C84.5001147,23.5204074 85.0523941,24.1183191 85.0523941,24.8399074 C85.0523941,25.5529662 84.5922324,26.0131279 83.9022029,26.1662309 C84.3470118,26.3739221 84.6536441,26.7035838 84.6536441,27.2558632 C84.6536441,28.2145691 83.8331147,28.8892456 82.3451588,28.8892456 L79.7065853,28.8892456 L81.1484824,23.5204074 Z" id="Fill-1" fill="#045B83"></path>
                <polygon id="Fill-3" fill="#045B83" points="89.7800338 26.7726721 88.668225 23.5204074 89.9791956 23.5204074 90.6078132 25.7448779 92.4488868 23.5204074 93.8754309 23.5204074 90.9379015 26.8797162 90.3932985 28.8892456 89.2124015 28.8892456"></polygon>
                <path d="M105.123763,26.6418309 L104.878116,24.8702721 L103.697219,26.6418309 L105.123763,26.6418309 Z M104.655925,23.4821103 L105.790763,23.4821103 L106.642425,28.8893309 L105.429969,28.8893309 L105.261513,27.6854044 L102.990984,27.6854044 L102.178557,28.8893309 L100.905116,28.8893309 L104.655925,23.4821103 Z" id="Fill-5" fill="#045B83"></path>
                <path d="M113.571506,25.6907162 C114.177094,25.6907162 114.537888,25.4838779 114.537888,25.0390691 C114.537888,24.7631426 114.315271,24.5558779 113.793697,24.5558779 L112.681462,24.5558779 L112.382079,25.6907162 L113.571506,25.6907162 Z M113.187682,27.8542015 C113.778344,27.8542015 114.146815,27.592775 114.146815,27.179525 C114.146815,26.8647897 113.893065,26.6724515 113.409874,26.6724515 L112.114256,26.6724515 L111.799521,27.8542015 L113.187682,27.8542015 Z M111.814874,23.5204074 L113.900741,23.5204074 C115.166932,23.5204074 115.718785,24.1183191 115.718785,24.8399074 C115.718785,25.5529662 115.258624,26.0131279 114.568594,26.1662309 C115.013403,26.3739221 115.320035,26.7035838 115.320035,27.2558632 C115.320035,28.2145691 114.499506,28.8892456 113.01155,28.8892456 L110.372976,28.8892456 L111.814874,23.5204074 Z" id="Fill-7" fill="#045B83"></path>
                <path d="M122.632087,26.6418309 L122.38644,24.8702721 L121.205543,26.6418309 L122.632087,26.6418309 Z M122.164249,23.4821103 L123.299087,23.4821103 L124.150749,28.8893309 L122.938293,28.8893309 L122.769837,27.6854044 L120.499307,27.6854044 L119.686881,28.8893309 L118.41344,28.8893309 L122.164249,23.4821103 Z" id="Fill-9" fill="#045B83"></path>
                <path d="M136.450203,25.6907162 C137.055791,25.6907162 137.416585,25.4838779 137.416585,25.0390691 C137.416585,24.7631426 137.193968,24.5558779 136.672394,24.5558779 L135.560159,24.5558779 L135.260776,25.6907162 L136.450203,25.6907162 Z M136.066379,27.8542015 C136.657041,27.8542015 137.025512,27.592775 137.025512,27.179525 C137.025512,26.8647897 136.771762,26.6724515 136.288571,26.6724515 L134.992953,26.6724515 L134.678218,27.8542015 L136.066379,27.8542015 Z M134.693571,23.5204074 L136.779438,23.5204074 C138.045203,23.5204074 138.597482,24.1183191 138.597482,24.8399074 C138.597482,25.5529662 138.137321,26.0131279 137.447291,26.1662309 C137.8921,26.3739221 138.198732,26.7035838 138.198732,27.2558632 C138.198732,28.2145691 137.378203,28.8892456 135.890247,28.8892456 L133.251674,28.8892456 L134.693571,23.5204074 Z" id="Fill-11" fill="#045B83"></path>
                <path d="M145.510784,26.6418309 L145.265137,24.8702721 L144.08424,26.6418309 L145.510784,26.6418309 Z M145.042946,23.4821103 L146.177784,23.4821103 L147.029446,28.8893309 L145.81699,28.8893309 L145.648534,27.6854044 L143.378004,27.6854044 L142.565578,28.8893309 L141.292137,28.8893309 L145.042946,23.4821103 Z" id="Fill-13" fill="#045B83"></path>
                <g id="Group-17" transform="translate(150.544118, 23.345299)">
                    <mask id="mask-2" fill="white">
                        <use xlink:href="#path-1"></use>
                    </mask>
                    <g id="Clip-16"></g>
                    <polygon id="Fill-15" fill="#045B83" mask="url(#mask-2)" points="1.65709412 0.175066176 2.7463 0.175066176 4.31144706 3.58811029 5.23134412 0.175066176 6.39731471 0.175066176 4.95541765 5.54433088 3.95065294 5.54433088 2.32409412 2.02381618 1.38116765 5.54433088 0.215197059 5.54433088"></polygon>
                </g>
                <g id="Group-20" transform="translate(159.500000, 23.345299)">
                    <mask id="mask-4" fill="white">
                        <use xlink:href="#path-3"></use>
                    </mask>
                    <g id="Clip-19"></g>
                    <polygon id="Fill-18" fill="#045B83" mask="url(#mask-4)" points="1.80072941 0.175066176 2.98247941 0.175066176 2.34533235 2.55306618 4.99925882 0.175066176 6.59468529 0.175066176 3.97956765 2.42256618 5.24447941 5.54433088 3.94886176 5.54433088 3.04346471 3.12794853 1.93080294 4.07897794 1.54015588 5.54433088 0.358832353 5.54433088"></polygon>
                </g>
                <g id="Group-23" transform="translate(0.000000, 0.315887)">
                    <mask id="mask-6" fill="white">
                        <use xlink:href="#path-5"></use>
                    </mask>
                    <g id="Clip-22"></g>
                    <path d="M20.5916206,6.36874118 C20.1340176,7.79869706 19.0814882,8.51431471 17.4327529,8.51431471 L11.0646941,8.51431471 L12.0259588,5.35544706 L20.8897235,5.35544706 L20.5916206,6.36874118 Z M30.0080912,0.110711765 L6.07925294,0.110711765 L4.47017941,5.35544706 L3.51616471,8.51431471 L-8.52941175e-05,20.0166529 L7.53948824,20.0166529 L9.30976765,14.2076971 L9.32682647,14.2243294 L9.46884118,13.7586235 L19.2209441,13.7586235 C20.1741059,13.7586235 21.09315,13.6349471 21.9772235,13.3863147 C22.8608706,13.1381088 23.6703118,12.7803 24.4059735,12.3133147 C25.1407824,11.8471824 25.77665,11.2757118 26.3127235,10.6001824 C26.84965,9.92465294 27.2466941,9.15018235 27.5047088,8.27549118 L30.0080912,0.110711765 Z" id="Fill-21" fill="#045B83" mask="url(#mask-6)"></path>
                </g>
                <path d="M38.5302956,8.83020147 L38.8283985,7.81690735 C39.2651044,6.386525 40.3180603,5.67133382 41.9872662,5.67133382 L48.4691926,5.67133382 L47.4699721,8.83020147 L38.5302956,8.83020147 Z M54.9421632,8.83020147 L55.9034279,5.67133382 L57.5125015,0.426598529 L40.2587809,0.426598529 C39.3051926,0.426598529 38.3814574,0.555819118 37.4871485,0.813833824 C36.5932662,1.072275 35.7740162,1.44970147 35.0289721,1.94653971 C34.2839279,2.44337794 33.6331338,3.03915735 33.0770162,3.73430441 C32.5204721,4.43030441 32.1131926,5.204775 31.8551779,6.05856912 L27.504325,20.3325397 L35.0140456,20.3325397 L36.9212221,14.0745103 L45.8016191,14.0745103 L43.8940162,20.3325397 L51.4335897,20.3325397 L53.2042956,14.5402162 L53.205575,14.535525 L54.9498397,8.83020147 L54.9421632,8.83020147 Z" id="Fill-24" fill="#045B83"></path>
                <path d="M77.4182294,0.426427941 L75.1835235,7.75703088 L68.8952147,7.75703088 C67.2063912,7.75703088 66.5905676,7.04183971 67.0481706,5.61145735 L68.6273912,0.426427941 L61.0882441,0.426427941 L58.9128176,7.60819265 C58.3763176,9.35672206 58.5204647,10.6877368 59.3448324,11.6012368 C60.1692,12.5155897 61.6341265,12.9723397 63.7400382,12.9723397 L73.1735676,12.9723397 C72.05195,14.4001632 70.3004353,15.1179132 67.9122,15.1179132 L56.6184059,15.1179132 L55.0089059,20.3323691 L67.0481706,20.3323691 C69.1340382,20.3323691 70.9763912,20.1485603 72.5756559,19.7813691 C74.1744941,19.4137515 75.5652147,18.847825 76.7478176,18.0827368 C77.9295676,17.318075 78.9228176,16.3640603 79.7275676,15.2215456 C80.5323176,14.0794574 81.1728765,12.7335162 81.6496706,11.1837221 L84.9275235,0.426427941 L77.4182294,0.426427941 Z" id="Fill-26" fill="#045B83"></path>
                <path d="M111.240588,0.426427941 L106.77075,15.1179132 L102.819074,15.1179132 L107.426235,0.426427941 L99.8870882,0.426427941 L95.3089265,15.0249426 C94.3476618,14.8961485 93.6196765,14.6313103 93.1373382,14.2231779 C92.4319559,13.6273985 92.2980441,12.6145309 92.7351765,11.1837221 L96.0130294,0.426427941 L88.5037353,0.426427941 L85.2258824,11.1837221 C84.7490882,12.7335162 84.5597353,14.0794574 84.6595294,15.2215456 C84.7588971,16.3640603 85.1708676,17.318075 85.8962941,18.0827368 C86.6208676,18.847825 87.6738235,19.4137515 89.0547353,19.7813691 C90.4352206,20.1485603 92.1585882,20.3323691 94.2252647,20.3323691 L112.700397,20.3323691 L118.779735,0.426427941 L111.240588,0.426427941 Z" id="Fill-28" fill="#00CDD4"></path>
                <path d="M166.189788,0.426427941 L163.955082,7.75703088 L157.666774,7.75703088 C155.978376,7.75703088 155.362126,7.04183971 155.819729,5.61145735 L157.39895,0.426427941 L149.859803,0.426427941 L147.684376,7.60819265 C147.147876,9.35672206 147.292024,10.6877368 148.116391,11.6012368 C148.940759,12.5155897 150.405685,12.9723397 152.511597,12.9723397 L161.945126,12.9723397 C160.823509,14.4001632 159.071994,15.1179132 156.683759,15.1179132 L145.389965,15.1179132 L143.780465,20.3323691 L155.819729,20.3323691 C157.905597,20.3323691 159.74795,20.1485603 161.347215,19.7813691 C162.946053,19.4137515 164.336774,18.847825 165.519376,18.0827368 C166.701126,17.318075 167.694376,16.3640603 168.499126,15.2215456 C169.303876,14.0794574 169.944435,12.7335162 170.421229,11.1837221 L173.699082,0.426427941 L166.189788,0.426427941 Z" id="Fill-30" fill="#00CDD4"></path>
                <path d="M127.301812,8.83020147 L127.599915,7.81690735 C128.036621,6.386525 129.089576,5.67133382 130.758782,5.67133382 L137.239856,5.67133382 L136.240635,8.83020147 L127.301812,8.83020147 Z M144.674091,5.67133382 L144.674944,5.67133382 L146.284018,0.426598529 L129.030297,0.426598529 C128.076709,0.426598529 127.152974,0.555819118 126.258665,0.813833824 C125.364782,1.072275 124.545532,1.44970147 123.800488,1.94653971 C123.055444,2.44337794 122.40465,3.03915735 121.848532,3.73430441 C121.291988,4.43030441 120.884709,5.204775 120.626694,6.05856912 L116.275841,20.3325397 L123.785562,20.3325397 L125.692738,14.0745103 L134.573135,14.0745103 L134.330474,14.8703044 L134.307444,14.9432309 L134.308297,14.9432309 L132.665959,20.3325397 L140.205106,20.3325397 L143.721356,8.83020147 L143.712826,8.83020147 L144.674091,5.67133382 Z" id="Fill-32" fill="#00CDD4"></path>
            </g>
        </g>
    </g>
</svg>