<?xml version="1.0" encoding="UTF-8" standalone="no"?>
<svg width="195px" height="33px" viewBox="0 0 195 33" version="1.1" xmlns="http://www.w3.org/2000/svg" xmlns:xlink="http://www.w3.org/1999/xlink">
    <!-- Generator: sketchtool 41.2 (35397) - http://www.bohemiancoding.com/sketch -->
    <title>1D4EEA9F-213E-4196-A154-90B932A0703E</title>
    <desc>Created with sketchtool.</desc>
    <defs>
        <polygon id="path-1" points="0.241169118 6.27586207 7.16940441 6.27586207 7.16940441 0.198172414 0.241169118 0.198172414 0.241169118 6.27586207"></polygon>
        <polygon id="path-3" points="0.402139706 6.27586207 7.39059559 6.27586207 7.39059559 0.198172414 0.402139706 0.198172414 0.402139706 6.27586207"></polygon>
        <polygon id="path-5" points="0 0.125324138 0 22.6585655 33.6297574 22.6585655 33.6297574 0.125324138"></polygon>
    </defs>
    <g id="Page-1" stroke="none" stroke-width="1" fill="none" fill-rule="evenodd">
        <g id="Working-File-Approved-Copy-4" transform="translate(-62.000000, -38.000000)">
            <g id="Page-1" transform="translate(62.000000, 38.000000)">
                <path d="M92.9109044,29.0815241 C93.5895809,29.0815241 93.9939191,28.8473862 93.9939191,28.343869 C93.9939191,28.0315241 93.7444338,27.7969034 93.1599118,27.7969034 L91.9134412,27.7969034 L91.5779265,29.0815241 L92.9109044,29.0815241 Z M92.4807574,31.5305586 C93.1427059,31.5305586 93.5556471,31.2346276 93.5556471,30.7668345 C93.5556471,30.4105586 93.2712721,30.1928345 92.7297647,30.1928345 L91.2777794,30.1928345 L90.9250588,31.5305586 L92.4807574,31.5305586 Z M90.9422647,26.6247655 L93.279875,26.6247655 C94.6984044,26.6247655 95.3173382,27.3015931 95.3173382,28.1184207 C95.3173382,28.9255931 94.8016397,29.4464897 94.0283309,29.6198 C94.5268235,29.8549034 94.8704632,30.2280759 94.8704632,30.8532483 C94.8704632,31.9384897 93.9509044,32.7022138 92.2833676,32.7022138 L89.3263456,32.7022138 L90.9422647,26.6247655 Z" id="Fill-1" fill="#FFFFFF"></path>
                <polygon id="Fill-3" fill="#FFFFFF" points="100.615555 30.3062828 99.3695625 26.6247655 100.838754 26.6247655 101.543239 29.1428345 103.606511 26.6247655 105.205224 26.6247655 101.913165 30.4274552 101.302835 32.7022138 99.9794154 32.7022138"></polygon>
                <path d="M117.811114,30.1581724 L117.53582,28.1527931 L116.212401,30.1581724 L117.811114,30.1581724 Z M117.286813,26.5814138 L118.558614,26.5814138 L119.513063,32.7023103 L118.154276,32.7023103 L117.965489,31.3394828 L115.42093,31.3394828 L114.510452,32.7023103 L113.08332,32.7023103 L117.286813,26.5814138 Z" id="Fill-5" fill="#FFFFFF"></path>
                <path d="M127.278412,29.0815241 C127.957088,29.0815241 128.361426,28.8473862 128.361426,28.343869 C128.361426,28.0315241 128.111941,27.7969034 127.527419,27.7969034 L126.280949,27.7969034 L125.945434,29.0815241 L127.278412,29.0815241 Z M126.848265,31.5305586 C127.510213,31.5305586 127.923154,31.2346276 127.923154,30.7668345 C127.923154,30.4105586 127.638779,30.1928345 127.097272,30.1928345 L125.645287,30.1928345 L125.292566,31.5305586 L126.848265,31.5305586 Z M125.309772,26.6247655 L127.647382,26.6247655 C129.06639,26.6247655 129.684846,27.3015931 129.684846,28.1184207 C129.684846,28.9255931 129.169147,29.4464897 128.395838,29.6198 C128.894331,29.8549034 129.237971,30.2280759 129.237971,30.8532483 C129.237971,31.9384897 128.318412,32.7022138 126.650875,32.7022138 L123.693853,32.7022138 L125.309772,26.6247655 Z" id="Fill-7" fill="#FFFFFF"></path>
                <path d="M137.432511,30.1581724 L137.157217,28.1527931 L135.833798,30.1581724 L137.432511,30.1581724 Z M136.90821,26.5814138 L138.180011,26.5814138 L139.13446,32.7023103 L137.775673,32.7023103 L137.586886,31.3394828 L135.042327,31.3394828 L134.131849,32.7023103 L132.704717,32.7023103 L136.90821,26.5814138 Z" id="Fill-9" fill="#FFFFFF"></path>
                <path d="M152.918331,29.0815241 C153.597007,29.0815241 154.001346,28.8473862 154.001346,28.343869 C154.001346,28.0315241 153.75186,27.7969034 153.167338,27.7969034 L151.920868,27.7969034 L151.585353,29.0815241 L152.918331,29.0815241 Z M152.488184,31.5305586 C153.150132,31.5305586 153.563074,31.2346276 153.563074,30.7668345 C153.563074,30.4105586 153.278699,30.1928345 152.737191,30.1928345 L151.285206,30.1928345 L150.932485,31.5305586 L152.488184,31.5305586 Z M150.949691,26.6247655 L153.287301,26.6247655 C154.705831,26.6247655 155.324765,27.3015931 155.324765,28.1184207 C155.324765,28.9255931 154.809066,29.4464897 154.035757,29.6198 C154.53425,29.8549034 154.87789,30.2280759 154.87789,30.8532483 C154.87789,31.9384897 153.958331,32.7022138 152.290794,32.7022138 L149.333772,32.7022138 L150.949691,26.6247655 Z" id="Fill-11" fill="#FFFFFF"></path>
                <path d="M163.07243,30.1581724 L162.797136,28.1527931 L161.473717,30.1581724 L163.07243,30.1581724 Z M162.548129,26.5814138 L163.81993,26.5814138 L164.774379,32.7023103 L163.415592,32.7023103 L163.226805,31.3394828 L160.682246,31.3394828 L159.771768,32.7023103 L158.344636,32.7023103 L162.548129,26.5814138 Z" id="Fill-13" fill="#FFFFFF"></path>
                <g id="Group-17" transform="translate(168.713235, 26.426545)">
                    <mask id="mask-2" fill="white">
                        <use xlink:href="#path-1"></use>
                    </mask>
                    <g id="Clip-16"></g>
                    <polygon id="Fill-15" fill="#FFFFFF" mask="url(#mask-2)" points="1.85708824 0.198172414 3.07775 0.198172414 4.83179412 4.06168966 5.86271324 0.198172414 7.16940441 0.198172414 5.55348529 6.27610345 4.42745588 6.27610345 2.60458824 2.29093103 1.54786029 6.27610345 0.241169118 6.27610345"></polygon>
                </g>
                <g id="Group-20" transform="translate(178.750000, 26.426545)">
                    <mask id="mask-4" fill="white">
                        <use xlink:href="#path-3"></use>
                    </mask>
                    <g id="Clip-19"></g>
                    <polygon id="Fill-18" fill="#FFFFFF" mask="url(#mask-4)" points="2.01805882 0.198172414 3.34243382 0.198172414 2.62838971 2.89003448 5.60261765 0.198172414 7.39059559 0.198172414 4.45986029 2.74231034 5.87743382 6.27610345 4.42544853 6.27610345 3.41077941 3.5407931 2.16383088 4.61734483 1.72603676 6.27610345 0.402139706 6.27610345"></polygon>
                </g>
                <g id="Group-23" transform="translate(0.000000, 0.357579)">
                    <mask id="mask-6" fill="white">
                        <use xlink:href="#path-5"></use>
                    </mask>
                    <g id="Clip-22"></g>
                    <path d="M23.0768162,7.20932414 C22.5639853,8.82801379 21.3844265,9.63808276 19.5367059,9.63808276 L12.4000882,9.63808276 L13.4773676,6.06228966 L23.4108971,6.06228966 L23.0768162,7.20932414 Z M33.6297574,0.125324138 L6.81295588,0.125324138 L5.00968382,6.06228966 L3.94052941,9.63808276 L-9.55882351e-05,22.6585655 L8.44942647,22.6585655 L10.4333603,16.0829103 L10.4524779,16.1017379 L10.6116324,15.5745655 L21.5407132,15.5745655 C22.6089118,15.5745655 23.638875,15.4345655 24.6296471,15.1531172 C25.6199412,14.8721517 26.5270735,14.4671172 27.3515221,13.9384966 C28.1750147,13.4108414 28.887625,12.7639448 29.4883971,11.9992552 C30.090125,11.2345655 30.5350882,10.3578759 30.8242426,9.36773793 L33.6297574,0.125324138 Z" id="Fill-21" fill="#FFFFFF" mask="url(#mask-6)"></path>
                </g>
                <path d="M43.1805037,9.99566207 L43.5145846,8.84862759 C44.0039963,7.22945517 45.1840331,6.41986897 47.0546949,6.41986897 L54.3189228,6.41986897 L53.1991066,9.99566207 L43.1805037,9.99566207 Z M61.573114,9.99566207 L62.6503934,6.41986897 L64.4536654,0.482903448 L45.1175993,0.482903448 C44.0489228,0.482903448 43.0137022,0.62917931 42.0114596,0.921248276 C41.0096949,1.2138 40.0915699,1.64104138 39.2566066,2.20345517 C38.4216434,2.76586897 37.6923051,3.44028276 37.0690699,4.22717931 C36.4453566,5.01504138 35.9889228,5.89173103 35.6997684,6.85821379 L30.8238125,23.0161448 L39.2398787,23.0161448 L41.3772316,15.9321448 L51.3294007,15.9321448 L49.1915699,23.0161448 L57.6410919,23.0161448 L59.6255037,16.4593172 L59.6269375,16.4540069 L61.5817169,9.99566207 L61.573114,9.99566207 Z" id="Fill-24" fill="#FFFFFF"></path>
                <path d="M86.7618088,0.482710345 L84.2573971,8.78084828 L77.2101544,8.78084828 C75.3175074,8.78084828 74.6273603,7.97126207 75.1401912,6.35208966 L76.9100074,0.482710345 L68.4609632,0.482710345 L66.0229853,8.61236552 C65.4217353,10.5916759 65.5832794,12.0983655 66.5071397,13.1324345 C67.431,14.167469 69.0727279,14.6845034 71.4328015,14.6845034 L82.0048603,14.6845034 C80.747875,16.3007793 78.7849706,17.1132621 76.1085,17.1132621 L63.4516618,17.1132621 L61.6479118,23.0159517 L75.1401912,23.0159517 C77.4778015,23.0159517 79.5425074,22.8078828 81.3347868,22.3922276 C83.1265882,21.9760897 84.6851544,21.335469 86.0104853,20.4694 C87.3348603,19.6038138 88.4479853,18.5238828 89.3498603,17.2305724 C90.2517353,15.9377448 90.9696029,14.4141586 91.5039412,12.6598138 L95.1773971,0.482710345 L86.7618088,0.482710345 Z" id="Fill-26" fill="#FFFFFF"></path>
                <path d="M124.666176,0.482710345 L119.656875,17.1132621 L115.228272,17.1132621 L120.391471,0.482710345 L111.942426,0.482710345 L106.811728,17.0080207 C105.734449,16.8622276 104.918603,16.5624345 104.378051,16.1004345 C103.587537,15.4260207 103.437463,14.279469 103.927353,12.6598138 L107.600809,0.482710345 L99.1852206,0.482710345 L95.5117647,12.6598138 C94.9774265,14.4141586 94.7652206,15.9377448 94.8770588,17.2305724 C94.9884191,18.5238828 95.4501103,19.6038138 96.2630882,20.4694 C97.0751103,21.335469 98.2551471,21.9760897 99.8027206,22.3922276 C101.349816,22.8078828 103.281176,23.0159517 105.597279,23.0159517 L126.302169,23.0159517 L133.115221,0.482710345 L124.666176,0.482710345 Z" id="Fill-28" fill="#00CDD4"></path>
                <path d="M186.247176,0.482710345 L183.742765,8.78084828 L176.695522,8.78084828 C174.803353,8.78084828 174.112728,7.97126207 174.625559,6.35208966 L176.395375,0.482710345 L167.946331,0.482710345 L165.508353,8.61236552 C164.907103,10.5916759 165.068647,12.0983655 165.992507,13.1324345 C166.916368,14.167469 168.558096,14.6845034 170.918169,14.6845034 L181.490228,14.6845034 C180.233243,16.3007793 178.270338,17.1132621 175.593868,17.1132621 L162.937029,17.1132621 L161.133279,23.0159517 L174.625559,23.0159517 C176.963169,23.0159517 179.027875,22.8078828 180.820154,22.3922276 C182.611956,21.9760897 184.170522,21.335469 185.495853,20.4694 C186.820228,19.6038138 187.933353,18.5238828 188.835228,17.2305724 C189.737103,15.9377448 190.454971,14.4141586 190.989309,12.6598138 L194.662765,0.482710345 L186.247176,0.482710345 Z" id="Fill-30" fill="#00CDD4"></path>
                <path d="M142.665824,9.99566207 L142.999904,8.84862759 C143.489316,7.22945517 144.669353,6.41986897 146.540015,6.41986897 L153.803287,6.41986897 L152.683471,9.99566207 L142.665824,9.99566207 Z M162.134757,6.41986897 L162.135713,6.41986897 L163.938985,0.482903448 L144.602919,0.482903448 C143.534243,0.482903448 142.499022,0.62917931 141.496779,0.921248276 C140.495015,1.2138 139.57689,1.64104138 138.741926,2.20345517 C137.906963,2.76586897 137.177625,3.44028276 136.55439,4.22717931 C135.930676,5.01504138 135.474243,5.89173103 135.185088,6.85821379 L130.309132,23.0161448 L138.725199,23.0161448 L140.862551,15.9321448 L150.814721,15.9321448 L150.542772,16.8329724 L150.516963,16.9155241 L150.517919,16.9155241 L148.677368,23.0161448 L157.126412,23.0161448 L161.067037,9.99566207 L161.057478,9.99566207 L162.134757,6.41986897 Z" id="Fill-32" fill="#00CDD4"></path>
            </g>
        </g>
    </g>
</svg>