<?xml version="1.0" encoding="utf-8"?>
<!-- Generator: Adobe Illustrator 17.0.0, SVG Export Plug-In . SVG Version: 6.00 Build 0)  -->
<!DOCTYPE svg PUBLIC "-//W3C//DTD SVG 1.1//EN" "http://www.w3.org/Graphics/SVG/1.1/DTD/svg11.dtd">
<svg version="1.1" id="Layer_1" xmlns="http://www.w3.org/2000/svg" xmlns:xlink="http://www.w3.org/1999/xlink" x="0px" y="0px"
	 width="31.125px" height="24px" viewBox="0 0 31.125 24" enable-background="new 0 0 31.125 24" xml:space="preserve">
<g>
	<g>
		<path fill="#FFFFFF" d="M5.289,21.545c-0.088-0.089-0.193-0.158-0.315-0.207c-0.122-0.049-0.255-0.074-0.399-0.074
			c-0.077,0-0.156,0.007-0.238,0.02c-0.082,0.013-0.163,0.036-0.242,0.07c-0.079,0.033-0.154,0.08-0.226,0.138
			c-0.071,0.059-0.134,0.133-0.186,0.223c-0.085-0.141-0.2-0.251-0.346-0.331c-0.145-0.08-0.312-0.12-0.499-0.12
			c-0.063,0-0.128,0.006-0.195,0.017c-0.067,0.011-0.134,0.031-0.2,0.059c-0.066,0.028-0.13,0.066-0.19,0.115
			c-0.06,0.048-0.115,0.109-0.164,0.183V21.33h-0.53v2.525h0.536v-1.399c0-0.107,0.017-0.202,0.051-0.286
			c0.034-0.083,0.079-0.153,0.136-0.21c0.057-0.056,0.124-0.099,0.2-0.128c0.077-0.029,0.158-0.043,0.245-0.043
			c0.18,0,0.32,0.057,0.42,0.171c0.099,0.114,0.149,0.278,0.149,0.49v1.405H3.83v-1.399c0-0.107,0.017-0.202,0.051-0.286
			c0.034-0.083,0.079-0.153,0.136-0.21c0.057-0.056,0.124-0.099,0.2-0.128c0.077-0.029,0.158-0.043,0.245-0.043
			c0.18,0,0.32,0.057,0.42,0.171c0.099,0.114,0.149,0.278,0.149,0.49v1.405h0.536v-1.586c0-0.148-0.024-0.283-0.073-0.406
			C5.445,21.739,5.377,21.633,5.289,21.545z"/>
		<path fill="#FFFFFF" d="M8.113,21.636c-0.088-0.112-0.197-0.202-0.327-0.27c-0.13-0.068-0.286-0.101-0.466-0.101
			c-0.177,0-0.343,0.033-0.495,0.099c-0.153,0.066-0.286,0.158-0.401,0.275c-0.114,0.118-0.204,0.258-0.269,0.42
			c-0.065,0.163-0.098,0.34-0.098,0.534c0,0.193,0.033,0.371,0.098,0.534c0.065,0.163,0.155,0.303,0.269,0.42
			c0.114,0.118,0.248,0.21,0.401,0.275c0.153,0.066,0.318,0.099,0.495,0.099c0.181,0,0.336-0.033,0.466-0.1
			c0.13-0.067,0.239-0.156,0.327-0.269v0.303h0.551V21.33H8.113V21.636z M8.092,22.914c-0.037,0.098-0.089,0.184-0.155,0.256
			c-0.067,0.072-0.147,0.129-0.24,0.17c-0.093,0.041-0.197,0.062-0.311,0.062c-0.119,0-0.226-0.021-0.32-0.065
			c-0.094-0.043-0.174-0.101-0.238-0.174c-0.065-0.073-0.115-0.159-0.15-0.257c-0.035-0.098-0.053-0.203-0.053-0.314
			c0-0.111,0.018-0.215,0.053-0.314c0.035-0.098,0.085-0.184,0.15-0.257c0.065-0.073,0.144-0.131,0.238-0.174
			c0.094-0.043,0.201-0.065,0.32-0.065c0.114,0,0.218,0.021,0.311,0.062c0.093,0.041,0.173,0.098,0.24,0.17
			c0.067,0.072,0.119,0.157,0.155,0.256c0.037,0.098,0.055,0.206,0.055,0.321C8.147,22.708,8.129,22.815,8.092,22.914z"/>
		<path fill="#FFFFFF" d="M11.196,22.588c-0.155-0.12-0.37-0.201-0.646-0.241l-0.261-0.04c-0.058-0.009-0.112-0.019-0.163-0.03
			c-0.051-0.011-0.095-0.027-0.132-0.046c-0.037-0.019-0.066-0.044-0.088-0.074c-0.022-0.03-0.033-0.067-0.033-0.111
			c0-0.09,0.042-0.162,0.125-0.217c0.083-0.055,0.201-0.083,0.352-0.083c0.079,0,0.157,0.007,0.233,0.021
			c0.076,0.014,0.149,0.032,0.217,0.053c0.069,0.021,0.131,0.044,0.187,0.07c0.056,0.025,0.104,0.05,0.142,0.072l0.237-0.43
			c-0.132-0.084-0.285-0.15-0.461-0.196c-0.176-0.047-0.363-0.07-0.561-0.07c-0.162,0-0.307,0.019-0.435,0.057
			c-0.128,0.038-0.238,0.091-0.328,0.161c-0.091,0.069-0.16,0.154-0.208,0.254c-0.048,0.1-0.072,0.213-0.072,0.337
			c0,0.204,0.072,0.369,0.217,0.494c0.145,0.126,0.358,0.208,0.639,0.246l0.264,0.034c0.151,0.021,0.262,0.055,0.332,0.101
			c0.07,0.047,0.105,0.106,0.105,0.178c0,0.095-0.048,0.17-0.145,0.225c-0.097,0.055-0.24,0.083-0.43,0.083
			c-0.104,0-0.196-0.007-0.278-0.021c-0.082-0.014-0.156-0.033-0.224-0.057c-0.068-0.024-0.128-0.051-0.182-0.082
			c-0.054-0.031-0.103-0.064-0.149-0.099l-0.256,0.414c0.091,0.069,0.187,0.124,0.287,0.166c0.1,0.042,0.199,0.075,0.295,0.099
			c0.097,0.024,0.188,0.04,0.274,0.047c0.086,0.008,0.162,0.012,0.227,0.012c0.181,0,0.343-0.02,0.486-0.061
			c0.143-0.04,0.264-0.097,0.361-0.17c0.098-0.073,0.172-0.16,0.224-0.261s0.078-0.212,0.078-0.333
			C11.427,22.877,11.35,22.709,11.196,22.588z"/>
		<path fill="#FFFFFF" d="M16.352,21.632c-0.105-0.117-0.23-0.207-0.377-0.271c-0.147-0.064-0.308-0.096-0.484-0.096
			c-0.186,0-0.356,0.032-0.51,0.096c-0.154,0.064-0.286,0.155-0.397,0.271c-0.111,0.117-0.197,0.257-0.258,0.42
			c-0.061,0.163-0.092,0.343-0.092,0.54c0,0.2,0.032,0.382,0.095,0.546c0.063,0.163,0.152,0.303,0.266,0.419
			c0.114,0.116,0.25,0.206,0.408,0.269c0.158,0.063,0.332,0.095,0.522,0.095c0.191,0,0.374-0.026,0.547-0.079
			c0.173-0.053,0.337-0.145,0.491-0.277l-0.274-0.393c-0.105,0.084-0.222,0.15-0.349,0.196c-0.127,0.047-0.254,0.07-0.381,0.07
			c-0.09,0-0.176-0.012-0.258-0.037c-0.083-0.025-0.157-0.063-0.224-0.115c-0.067-0.052-0.124-0.118-0.171-0.199
			c-0.047-0.081-0.08-0.178-0.097-0.293h1.866c0.004-0.032,0.006-0.065,0.008-0.1c0.002-0.035,0.003-0.07,0.003-0.105
			c0-0.197-0.029-0.376-0.088-0.539C16.539,21.888,16.457,21.749,16.352,21.632z M14.812,22.376
			c0.014-0.091,0.039-0.175,0.074-0.252c0.035-0.076,0.08-0.142,0.136-0.198c0.055-0.055,0.121-0.098,0.198-0.128
			c0.076-0.03,0.164-0.045,0.262-0.045c0.176,0,0.319,0.054,0.43,0.163c0.111,0.109,0.181,0.262,0.211,0.459H14.812z"/>
		<path fill="#FFFFFF" d="M23.67,21.636c-0.088-0.112-0.197-0.202-0.327-0.27c-0.13-0.068-0.286-0.101-0.466-0.101
			c-0.177,0-0.343,0.033-0.495,0.099c-0.153,0.066-0.286,0.158-0.401,0.275c-0.114,0.118-0.204,0.258-0.269,0.42
			c-0.065,0.163-0.098,0.34-0.098,0.534c0,0.193,0.033,0.371,0.098,0.534c0.065,0.163,0.155,0.303,0.269,0.42
			c0.114,0.118,0.248,0.21,0.401,0.275c0.153,0.066,0.318,0.099,0.495,0.099c0.181,0,0.336-0.033,0.466-0.1s0.239-0.156,0.327-0.269
			v0.303h0.551V21.33H23.67V21.636z M23.649,22.914c-0.037,0.098-0.089,0.184-0.156,0.256c-0.067,0.072-0.147,0.129-0.24,0.17
			c-0.093,0.041-0.197,0.062-0.311,0.062c-0.119,0-0.226-0.021-0.32-0.065c-0.094-0.043-0.173-0.101-0.238-0.174
			c-0.065-0.073-0.115-0.159-0.15-0.257c-0.035-0.098-0.053-0.203-0.053-0.314c0-0.111,0.018-0.215,0.053-0.314
			c0.035-0.098,0.085-0.184,0.15-0.257c0.065-0.073,0.145-0.131,0.238-0.174c0.094-0.043,0.201-0.065,0.32-0.065
			c0.114,0,0.218,0.021,0.311,0.062c0.093,0.041,0.173,0.098,0.24,0.17c0.067,0.072,0.119,0.157,0.156,0.256
			c0.037,0.098,0.055,0.206,0.055,0.321C23.704,22.708,23.686,22.815,23.649,22.914z"/>
		<path fill="#FFFFFF" d="M13.557,23.351c-0.089,0.033-0.176,0.05-0.262,0.05c-0.056,0-0.109-0.009-0.157-0.026
			c-0.048-0.017-0.091-0.045-0.126-0.083c-0.036-0.038-0.065-0.087-0.086-0.146c-0.021-0.06-0.032-0.132-0.032-0.216v-1.099h0.885
			V21.33h-0.885v-0.764h-0.553v0.764h-0.503v0.501h0.503v1.109c0,0.336,0.079,0.583,0.238,0.742
			c0.159,0.159,0.382,0.238,0.668,0.238c0.16,0,0.303-0.025,0.431-0.074c0.084-0.033,0.162-0.07,0.235-0.111l-0.188-0.461
			C13.672,23.303,13.616,23.329,13.557,23.351z"/>
		<path fill="#FFFFFF" d="M18.53,21.264c-0.155,0-0.294,0.028-0.419,0.084c-0.125,0.056-0.229,0.192-0.314,0.313V21.33h-0.5v2.525
			h0.505v-1.389c0-0.107,0.015-0.203,0.045-0.287c0.03-0.084,0.071-0.155,0.124-0.213c0.053-0.058,0.116-0.102,0.19-0.132
			c0.074-0.03,0.155-0.045,0.242-0.045c0.067,0,0.139,0.008,0.216,0.024c0.039,0.008,0.076,0.018,0.111,0.03l0.163-0.527
			c-0.044-0.014-0.089-0.026-0.135-0.034C18.69,21.27,18.614,21.264,18.53,21.264z"/>
		<path fill="#FFFFFF" d="M26.186,21.264c-0.155,0-0.294,0.028-0.419,0.084c-0.125,0.056-0.229,0.192-0.314,0.313V21.33h-0.5v2.525
			h0.505v-1.389c0-0.107,0.015-0.203,0.045-0.287c0.03-0.084,0.071-0.155,0.124-0.213c0.053-0.058,0.116-0.102,0.19-0.132
			c0.074-0.03,0.155-0.045,0.242-0.045c0.067,0,0.139,0.008,0.216,0.024c0.039,0.008,0.076,0.018,0.111,0.03l0.163-0.527
			c-0.044-0.014-0.089-0.026-0.135-0.034C26.346,21.27,26.27,21.264,26.186,21.264z"/>
		<path fill="#FFFFFF" d="M28.758,20.304v1.332c-0.088-0.112-0.197-0.202-0.327-0.27c-0.13-0.068-0.286-0.101-0.466-0.101
			c-0.177,0-0.343,0.033-0.495,0.099c-0.153,0.066-0.286,0.158-0.401,0.275c-0.114,0.118-0.204,0.258-0.269,0.42
			c-0.065,0.163-0.098,0.34-0.098,0.534c0,0.193,0.032,0.371,0.098,0.534c0.065,0.163,0.155,0.303,0.269,0.42
			c0.114,0.118,0.248,0.21,0.401,0.275c0.153,0.066,0.318,0.099,0.495,0.099c0.181,0,0.336-0.033,0.466-0.1
			c0.13-0.067,0.239-0.156,0.327-0.269v0.303h0.551v-3.551H28.758z M28.737,22.914c-0.037,0.098-0.089,0.184-0.156,0.256
			c-0.067,0.072-0.147,0.129-0.24,0.17c-0.093,0.041-0.197,0.062-0.311,0.062c-0.119,0-0.226-0.021-0.32-0.065
			c-0.094-0.043-0.174-0.101-0.239-0.174c-0.065-0.073-0.115-0.159-0.15-0.257c-0.035-0.098-0.053-0.203-0.053-0.314
			c0-0.111,0.018-0.215,0.053-0.314c0.035-0.098,0.085-0.184,0.15-0.257c0.065-0.073,0.145-0.131,0.239-0.174
			c0.094-0.043,0.201-0.065,0.32-0.065c0.114,0,0.218,0.021,0.311,0.062c0.093,0.041,0.173,0.098,0.24,0.17
			c0.067,0.072,0.119,0.157,0.156,0.256c0.037,0.098,0.055,0.206,0.055,0.321C28.793,22.708,28.774,22.815,28.737,22.914z"/>
		<path fill="#FFFFFF" d="M19.848,22.009c0.07-0.071,0.154-0.127,0.25-0.166c0.097-0.04,0.201-0.059,0.314-0.059v0
			c0.124,0,0.239,0.02,0.345,0.059c0.103,0.038,0.192,0.092,0.267,0.159l0.265-0.441c-0.099-0.079-0.211-0.145-0.336-0.195
			c-0.166-0.068-0.347-0.101-0.541-0.101c-0.195,0-0.376,0.034-0.542,0.101c-0.166,0.068-0.309,0.161-0.43,0.279
			c-0.12,0.119-0.215,0.259-0.283,0.42c-0.069,0.162-0.103,0.337-0.103,0.527c0,0.19,0.034,0.365,0.103,0.527
			c0.069,0.162,0.163,0.302,0.283,0.42c0.12,0.119,0.263,0.212,0.43,0.279c0.166,0.068,0.347,0.101,0.542,0.101
			c0.195,0,0.375-0.034,0.541-0.101c0.125-0.051,0.237-0.116,0.336-0.195l-0.265-0.441c-0.076,0.068-0.165,0.121-0.267,0.159
			c-0.106,0.04-0.221,0.059-0.345,0.059v0c-0.112,0-0.217-0.02-0.314-0.059c-0.097-0.039-0.18-0.095-0.25-0.166
			c-0.07-0.071-0.126-0.156-0.166-0.256c-0.04-0.099-0.061-0.209-0.061-0.328c0-0.119,0.02-0.229,0.061-0.328
			C19.722,22.165,19.778,22.08,19.848,22.009z"/>
	</g>
	<g>
		<path fill="#FFFFFF" d="M30.47,23.485c0.037,0,0.071,0.007,0.103,0.02c0.032,0.014,0.06,0.032,0.084,0.055
			c0.024,0.023,0.043,0.051,0.056,0.082c0.014,0.031,0.021,0.064,0.021,0.1c0,0.035-0.007,0.068-0.021,0.1
			c-0.014,0.031-0.033,0.059-0.056,0.082c-0.024,0.024-0.052,0.042-0.084,0.056C30.541,23.993,30.506,24,30.47,24
			c-0.037,0-0.072-0.007-0.105-0.02c-0.032-0.014-0.061-0.032-0.085-0.056c-0.024-0.024-0.043-0.051-0.056-0.082
			c-0.014-0.031-0.02-0.065-0.02-0.1c0-0.036,0.007-0.069,0.02-0.1c0.014-0.031,0.032-0.058,0.056-0.082
			c0.024-0.023,0.052-0.042,0.085-0.055C30.397,23.491,30.432,23.485,30.47,23.485z M30.47,23.928c0.026,0,0.05-0.005,0.072-0.015
			c0.023-0.01,0.042-0.023,0.059-0.04c0.017-0.017,0.03-0.036,0.039-0.059c0.01-0.023,0.014-0.047,0.014-0.073
			c0-0.026-0.005-0.05-0.014-0.073c-0.01-0.023-0.023-0.042-0.039-0.059c-0.017-0.017-0.036-0.03-0.059-0.04
			c-0.023-0.01-0.047-0.015-0.072-0.015c-0.026,0-0.051,0.005-0.074,0.015c-0.023,0.01-0.043,0.023-0.059,0.04
			c-0.017,0.017-0.03,0.036-0.04,0.059c-0.01,0.023-0.014,0.047-0.014,0.073c0,0.026,0.005,0.05,0.014,0.073
			c0.01,0.023,0.023,0.042,0.04,0.059c0.017,0.017,0.037,0.03,0.059,0.04C30.419,23.923,30.443,23.928,30.47,23.928z M30.484,23.628
			c0.031,0,0.055,0.007,0.071,0.021c0.016,0.014,0.024,0.033,0.024,0.056c0,0.018-0.006,0.034-0.017,0.046
			c-0.012,0.012-0.029,0.02-0.051,0.024l0.071,0.082h-0.077l-0.064-0.08h-0.007v0.08h-0.064v-0.228H30.484z M30.435,23.684v0.042
			h0.048c0.01,0,0.018-0.002,0.023-0.005c0.005-0.003,0.008-0.008,0.008-0.016c0-0.007-0.003-0.013-0.008-0.016
			c-0.005-0.003-0.013-0.005-0.023-0.005H30.435z"/>
	</g>
	<g>
		<path fill="#E20D17" d="M11.803,9.529c0-3.024,1.413-5.717,3.613-7.46c-1.622-1.285-3.671-2.054-5.902-2.054
			C4.26,0.015,0,4.274,0,9.529s4.26,9.514,9.514,9.514c2.23,0,4.279-0.769,5.902-2.054C13.216,15.246,11.803,12.554,11.803,9.529z"
			/>
		<path fill="#EA610A" d="M11.803,9.529c0,3.024,1.413,5.717,3.613,7.46c2.2-1.743,3.613-4.436,3.613-7.46s-1.413-5.717-3.613-7.46
			C13.216,3.812,11.803,6.505,11.803,9.529z"/>
		<path fill="#F59E00" d="M30.187,14.675v-0.278h-0.113V14.32h0.308v0.077H30.27v0.278H30.187z M30.783,14.675v-0.246l-0.08,0.212
			h-0.088l-0.08-0.212v0.246h-0.083V14.32h0.119l0.088,0.227l0.088-0.227h0.119v0.355H30.783z"/>
		<path fill="#F59E00" d="M21.318,0.015c-2.23,0-4.279,0.769-5.902,2.054c2.2,1.743,3.613,4.436,3.613,7.46s-1.413,5.717-3.613,7.46
			c1.622,1.285,3.671,2.054,5.902,2.054c5.255,0,9.514-4.26,9.514-9.514S26.572,0.015,21.318,0.015z"/>
	</g>
</g>
</svg>
