<?xml version="1.0" encoding="UTF-8" standalone="no"?>
<svg width="67px" height="91px" viewBox="0 0 67 91" version="1.1" xmlns="http://www.w3.org/2000/svg" xmlns:xlink="http://www.w3.org/1999/xlink">
    <!-- Generator: sketchtool 41.2 (35397) - http://www.bohemiancoding.com/sketch -->
    <title>819BFEF5-96FC-44FA-A8F7-8C7D6BDD429E</title>
    <desc>Created with sketchtool.</desc>
    <defs></defs>
    <g id="Page-1" stroke="none" stroke-width="1" fill="none" fill-rule="evenodd">
        <g id="Working-File-Approved-Copy-4" transform="translate(-95.000000, -2044.000000)" fill="#FFFFFF">
            <g id="Group-7" transform="translate(95.000000, 2040.000000)">
                <g id="icon" transform="translate(0.000000, 4.000000)">
                    <g id="Group">
                        <path d="M48.3634606,32.4875049 C39.3605116,38.0184112 32.8714645,45.0036514 30.2367987,48.1079784 L23.4720073,42.7969367 C23.2928742,42.6678419 19.5793841,45.9718625 19.678008,46.074735 L31.9979389,58.6271893 C32.0885119,58.7300618 32.2133012,58.7764552 32.3481542,58.7764552 C32.372307,58.7764552 32.4105489,58.7764552 32.4427526,58.7683868 C32.6037712,58.7320789 32.7406369,58.6231551 32.8010189,58.4617866 C34.7855724,53.3766609 41.3390269,42.7303722 49.7079654,35.0088881 C49.8569076,34.8676907 49.9092386,34.645809 49.8267166,34.4541838 C49.8247039,34.4521667 48.48825,32.4108548 48.3634606,32.4875049 Z" id="Shape"></path>
                        <path d="M65.648816,11.3868936 C39.3032662,11.3868936 34.846013,1.36476353 34.8062161,1.27075265 C34.6129169,0.78075652 34.1353541,0.453142832 33.5952532,0.441747573 L33.5725121,0.441747573 C33.0494671,0.441747573 32.566219,0.769361261 32.355864,1.24796213 C32.324595,1.35336827 27.7706922,11.3868936 1.52463463,11.3868936 C0.791234559,11.3868936 0.211336829,11.9822958 0.211336829,12.7001971 L0.211336829,57.6089118 C0.211336829,75.9923129 31.7191135,90.0369693 33.0523098,90.626674 C33.2285532,90.703592 33.3962687,90.7320801 33.5867253,90.7320801 C33.7601261,90.7320801 33.9477401,90.703592 34.1154556,90.626674 C35.4600224,90.0369693 66.9621138,75.9923129 66.9621138,57.6089118 L66.9621138,12.7001971 C66.9564286,11.9822958 66.3736882,11.3868936 65.648816,11.3868936 Z M59.7133922,54.9965487 C59.7133922,69.3802141 35.0449976,80.3851852 33.9960649,80.8409955 C33.8681463,80.9065183 33.7174866,80.9293088 33.5838827,80.9293088 C33.4389083,80.9293088 33.3053044,80.9065183 33.1688578,80.8409955 C32.1312957,80.3851852 7.45437319,69.3802141 7.45437319,54.9965487 L7.45437319,19.8450244 C7.45437319,19.2781102 7.91203757,18.8109046 8.4834074,18.8109046 C29.0328226,18.8109046 32.5946454,10.9595714 32.628757,10.8826534 C32.7907873,10.503761 33.1660152,10.2473677 33.5781974,10.2473677 L33.5952532,10.2473677 C34.0159634,10.2530653 34.3883487,10.5094587 34.5390084,10.8997463 C34.57312,10.9709666 38.0638769,18.8109046 58.684358,18.8109046 C59.2557278,18.8109046 59.7105496,19.2781102 59.7105496,19.8450244 L59.7133922,54.9965487 L59.7133922,54.9965487 Z" id="Shape"></path>
                    </g>
                </g>
            </g>
        </g>
    </g>
</svg>