<?xml version="1.0" encoding="utf-8"?>
<!-- Generator: Adobe Illustrator 17.0.0, SVG Export Plug-In . SVG Version: 6.00 Build 0)  -->
<!DOCTYPE svg PUBLIC "-//W3C//DTD SVG 1.1//EN" "http://www.w3.org/Graphics/SVG/1.1/DTD/svg11.dtd">
<svg version="1.1" id="Layer_1" xmlns="http://www.w3.org/2000/svg" xmlns:xlink="http://www.w3.org/1999/xlink" x="0px" y="0px"
	 width="80px" height="46px" viewBox="0 0 80 46" enable-background="new 0 0 80 46" xml:space="preserve">
<g>
	<path fill="#FFFFFF" d="M18.029,9.471c-5.95,0-10.791,4.841-10.791,10.791c0,5.95,4.841,10.792,10.791,10.792h44.979
		c5.95,0,10.791-4.841,10.791-10.792c0-5.951-4.841-10.791-10.791-10.791H18.029z"/>
	<path fill="#CFCFCF" d="M63.008,31.973H18.029c-6.457,0-11.71-5.254-11.71-11.711s5.253-11.71,11.71-11.71h44.979
		c6.457,0,11.71,5.253,11.71,11.71S69.465,31.973,63.008,31.973 M18.029,9.471c-5.95,0-10.791,4.841-10.791,10.791
		c0,5.95,4.841,10.792,10.791,10.792h44.979c5.95,0,10.791-4.841,10.791-10.792c0-5.951-4.841-10.791-10.791-10.791H18.029z"/>
	<path fill="#1D1D1B" d="M57.613,13.709c-1.746,0-3.162,1.416-3.162,3.163c0,1.746,1.416,3.161,3.162,3.161
		c1.747,0,3.162-1.415,3.162-3.161C60.775,15.125,59.36,13.709,57.613,13.709 M57.613,18.493c-0.896,0-1.623-0.726-1.623-1.622
		c0-0.897,0.727-1.623,1.623-1.623c0.896,0,1.623,0.726,1.623,1.623C59.236,17.768,58.509,18.493,57.613,18.493"/>
	<path fill="#1D1D1B" d="M43.11,13.709c-1.746,0-3.162,1.416-3.162,3.163c0,1.746,1.416,3.161,3.162,3.161
		c1.747,0,3.163-1.415,3.163-3.161C46.273,15.125,44.857,13.709,43.11,13.709 M43.11,18.493c-0.895,0-1.622-0.726-1.622-1.622
		c0-0.897,0.727-1.623,1.622-1.623c0.897,0,1.623,0.726,1.623,1.623C44.733,17.768,44.007,18.493,43.11,18.493"/>
	<path fill="#1D1D1B" d="M54.247,18.582c-0.2,0.058-0.506,0.115-0.622,0.115c-0.54,0-0.658-0.186-0.658-0.704v-2.921h1.293v-1.221
		h-1.293v-1.726h-1.455l-0.306,1.726h-1.013v0.001h-0.082c-0.829,0.004-1.454,0.51-1.855,1.302l-0.506-1.302h-1.043v6.068h1.783
		v-2.64c0-1.331,0.786-2.181,1.718-2.207h0.975v3.016c0,1.42,0.728,1.948,1.913,1.948c0.612,0,1.08-0.129,1.362-0.222L54.247,18.582
		z"/>
	<polyline fill="#1D1D1B" points="62.935,15.771 62.935,19.919 61.202,19.919 61.202,13.851 62.254,13.851 62.607,14.778 	"/>
	<path fill="#1D1D1B" d="M62.599,14.784c0.527-0.611,1.248-1.074,2.093-1.074c1.444,0,2.038,1.151,2.038,2.219v3.991h-1.785v-3.94
		c0-0.52-0.433-0.803-0.903-0.803c-0.5,0-0.821,0.286-1.104,0.592"/>
	<polygon fill="#1D1D1B" points="32.994,11.655 34.98,11.655 37.709,16.851 37.709,11.655 39.354,11.655 39.354,19.92 37.554,19.92 
		34.64,14.207 34.64,19.92 32.994,19.92 	"/>
	<polygon fill="#B1B1B1" points="71.995,8.552 71.995,8.848 71.562,8.848 71.562,10.304 71.224,10.304 71.224,8.848 70.799,8.848 
		70.799,8.552 	"/>
	<polygon fill="#B1B1B1" points="72.237,10.304 72.237,8.552 72.694,8.552 72.998,9.699 73.307,8.552 73.769,8.552 73.769,10.304 
		73.49,10.304 73.49,8.933 73.482,8.933 73.128,10.304 72.881,10.304 72.524,8.933 72.516,8.933 72.516,10.304 	"/>
	<path fill="#B1B1B1" d="M32.498,27.245l0.412-0.641c0.335,0.248,0.838,0.477,1.451,0.477c0.596,0,0.964-0.27,0.964-0.739
		c0-0.539-0.465-0.682-1.229-0.948c-0.685-0.241-1.359-0.586-1.359-1.557c0-0.909,0.717-1.405,1.682-1.405
		c0.641,0,1.114,0.126,1.495,0.35l-0.33,0.682c-0.319-0.166-0.701-0.279-1.149-0.279c-0.538,0-0.86,0.203-0.86,0.629
		c0,0.501,0.374,0.628,1.076,0.859c0.733,0.238,1.539,0.577,1.539,1.652c0,0.91-0.65,1.509-1.817,1.509
		C33.508,27.836,32.872,27.537,32.498,27.245"/>
	<polygon fill="#B1B1B1" points="37.755,22.515 40.879,22.515 40.879,23.241 38.644,23.241 38.644,24.675 40.409,24.675 
		40.409,25.385 38.644,25.385 38.644,27.042 41.015,27.042 41.015,27.767 37.755,27.767 	"/>
	<path fill="#B1B1B1" d="M42.286,25.145c0-1.532,0.734-2.712,2.198-2.712c0.656,0,1.174,0.208,1.539,0.633l-0.518,0.6
		c-0.313-0.307-0.579-0.457-1.006-0.457c-0.86,0-1.257,0.704-1.257,2.003c0,1.22,0.419,1.838,1.264,1.838
		c0.47,0,0.8-0.247,1.089-0.553l0.523,0.583c-0.381,0.449-0.857,0.755-1.62,0.755C42.989,27.836,42.286,26.685,42.286,25.145"/>
	<path fill="#B1B1B1" d="M47.567,25.757v-3.242h0.896v3.386c0,0.722,0.179,1.195,0.941,1.195c0.755,0,0.942-0.473,0.942-1.195
		v-3.386h0.905v3.242c0,1.301-0.501,2.079-1.854,2.079C48.066,27.836,47.567,27.058,47.567,25.757"/>
	<path fill="#B1B1B1" d="M56.731,27.768h-0.972l-1.008-2.227h-0.83v2.227h-0.889v-5.253h1.713c1.061,0,1.889,0.38,1.889,1.531
		c0,0.785-0.471,1.179-0.995,1.367L56.731,27.768z M54.713,24.854c0.666,0,1.008-0.216,1.008-0.823c0-0.583-0.349-0.791-0.956-0.791
		h-0.844v1.614H54.713z"/>
	<polygon fill="#B1B1B1" points="58.252,22.515 61.375,22.515 61.375,23.241 59.14,23.241 59.14,24.675 60.902,24.675 
		60.902,25.385 59.14,25.385 59.14,27.042 61.509,27.042 61.509,27.767 58.252,27.767 	"/>
	<path fill="#B1B1B1" d="M63.01,22.515h1.311c1.712,0,2.535,0.927,2.535,2.607c0,1.712-0.837,2.646-2.49,2.646H63.01V22.515z
		 M64.27,27.042c1.226,0,1.645-0.566,1.645-1.92c0-1.188-0.329-1.882-1.535-1.882h-0.477v3.802H64.27z"/>
	<path fill="#FCC200" d="M17.975,32.897c-6.967,0-12.636-5.669-12.636-12.636c0-6.967,5.669-12.635,12.636-12.635
		c6.966,0,12.634,5.668,12.635,12.635C30.609,27.228,24.941,32.897,17.975,32.897 M17.975,11.624c-2.306,0-4.475,0.899-6.109,2.53
		c-1.631,1.632-2.53,3.802-2.53,6.108c0,2.306,0.899,4.475,2.53,6.108c1.632,1.63,3.802,2.529,6.109,2.53
		c2.306-0.001,4.475-0.9,6.109-2.531c1.629-1.632,2.528-3.802,2.529-6.107c-0.001-2.306-0.9-4.475-2.53-6.109
		C22.45,12.523,20.28,11.624,17.975,11.624"/>
	<rect x="31.739" y="5.681" fill="#FCC200" width="0.985" height="0.985"/>
	<rect x="31.739" y="3.718" fill="#FCC200" width="0.985" height="0.987"/>
	<rect x="28.967" y="6.659" fill="#FCC200" width="0.92" height="0.962"/>
	<rect x="27.143" y="8.548" fill="#1D1D1B" width="0.928" height="0.92"/>
	<rect x="29.887" y="7.622" fill="#1D1D1B" width="1.032" height="0.927"/>
	<rect x="26.219" y="7.667" fill="#1D1D1B" width="0.924" height="0.881"/>
	<rect x="28.967" y="8.548" fill="#1D1D1B" width="0.92" height="0.92"/>
	<rect x="30.764" y="4.705" fill="#1D1D1B" width="0.975" height="0.976"/>
	<rect x="28.967" y="5.681" fill="#1D1D1B" width="1.797" height="0.978"/>
	<rect x="28.071" y="6.66" fill="#1D1D1B" width="0.896" height="1.889"/>
	<path fill="#1D1D1B" d="M28.071,9.468v0.927h-0.928V9.468h-1.539v0.668h-0.825v0.824H25.7v0.918h-0.921V10.96H23.8v1.44h-0.926
		v0.919h-0.614v0.923h-0.676c-0.759,1.129-2.661,4.647-3.236,6.079c-2.073-2.884-3.682-4.028-4.95-4.441
		c-0.683-0.206-1.507,0.539-0.372,1.71c2.608,2.868,3.429,5.243,4.222,7.137c0.419,0.999,2.299,1.154,2.677,0.137
		c0.803-2.15,1.966-4.565,3.345-6.549v-1.028h0.736v-0.927h0.773v-1.074h0.924v-1.036h-0.935V13.31h0.935v0.941h0.914l-0.002-0.932
		h0.733v-1.125h0.825v-0.774h0.794V9.468H28.071z"/>
	<path fill="#B1B1B1" d="M10.247,37.229h0.692v0.504c0.223-0.315,0.537-0.566,1.023-0.566c0.715,0,1.406,0.566,1.406,1.566v0.011
		c0,1.001-0.686,1.566-1.406,1.566c-0.497,0-0.812-0.251-1.023-0.532v1.384h-0.692V37.229z M12.665,38.744v-0.011
		c0-0.583-0.395-0.966-0.863-0.966s-0.881,0.389-0.881,0.966v0.011c0,0.583,0.412,0.967,0.881,0.967
		C12.276,39.711,12.665,39.339,12.665,38.744"/>
	<path fill="#B1B1B1" d="M13.932,38.755v-0.012c0-0.863,0.686-1.578,1.613-1.578c0.926,0,1.607,0.703,1.607,1.566v0.011
		c0,0.858-0.686,1.573-1.618,1.573C14.612,40.316,13.932,39.613,13.932,38.755 M16.459,38.755v-0.012
		c0-0.532-0.383-0.972-0.926-0.972c-0.555,0-0.909,0.434-0.909,0.96v0.011c0,0.526,0.383,0.972,0.92,0.972
		C16.104,39.716,16.459,39.276,16.459,38.755"/>
	<polygon fill="#B1B1B1" points="17.484,37.229 18.194,37.229 18.799,39.299 19.468,37.218 20.057,37.218 20.732,39.299 
		21.349,37.229 22.041,37.229 21.052,40.271 20.434,40.271 19.76,38.207 19.079,40.271 18.462,40.271 	"/>
	<path fill="#B1B1B1" d="M22.396,38.75v-0.012c0-0.863,0.612-1.572,1.475-1.572c0.961,0,1.447,0.755,1.447,1.624
		c0,0.063-0.006,0.125-0.011,0.194h-2.218c0.074,0.491,0.423,0.766,0.869,0.766c0.337,0,0.578-0.125,0.817-0.36l0.406,0.36
		c-0.286,0.343-0.68,0.566-1.235,0.566C23.071,40.316,22.396,39.681,22.396,38.75 M24.632,38.527
		c-0.046-0.446-0.309-0.794-0.766-0.794c-0.423,0-0.72,0.326-0.783,0.794H24.632z"/>
	<path fill="#B1B1B1" d="M26.038,37.229h0.692v0.68c0.188-0.451,0.537-0.76,1.069-0.737v0.732h-0.04
		c-0.606,0-1.029,0.395-1.029,1.195v1.149h-0.692V37.229z"/>
	<path fill="#B1B1B1" d="M28.201,38.75v-0.012c0-0.863,0.612-1.572,1.475-1.572c0.961,0,1.446,0.755,1.446,1.624
		c0,0.063-0.006,0.125-0.011,0.194h-2.219c0.074,0.491,0.423,0.766,0.869,0.766c0.338,0,0.578-0.125,0.818-0.36l0.406,0.36
		c-0.286,0.343-0.68,0.566-1.235,0.566C28.876,40.316,28.201,39.681,28.201,38.75 M30.436,38.527
		c-0.046-0.446-0.309-0.794-0.766-0.794c-0.423,0-0.72,0.326-0.783,0.794H30.436z"/>
	<path fill="#B1B1B1" d="M31.684,38.744v-0.011c0-1,0.68-1.566,1.4-1.566c0.497,0,0.812,0.252,1.029,0.532v-1.624h0.692v4.174
		h-0.692v-0.503c-0.223,0.314-0.537,0.566-1.029,0.566C32.375,40.31,31.684,39.745,31.684,38.744 M34.125,38.744v-0.011
		c0-0.583-0.412-0.966-0.875-0.966c-0.475,0-0.869,0.366-0.869,0.966v0.011c0,0.583,0.4,0.967,0.869,0.967
		C33.713,39.711,34.125,39.321,34.125,38.744"/>
	<path fill="#B1B1B1" d="M38.073,39.779v0.469h-0.692v-4.174h0.692v1.659c0.223-0.315,0.537-0.566,1.023-0.566
		c0.715,0,1.406,0.566,1.406,1.566v0.011c0,1.001-0.686,1.566-1.406,1.566C38.599,40.31,38.284,40.059,38.073,39.779 M39.8,38.744
		v-0.011c0-0.583-0.395-0.966-0.863-0.966c-0.469,0-0.881,0.389-0.881,0.966v0.011c0,0.583,0.411,0.967,0.881,0.967
		C39.411,39.711,39.8,39.339,39.8,38.744"/>
	<path fill="#B1B1B1" d="M40.974,40.996l0.234-0.514c0.126,0.069,0.263,0.115,0.406,0.115c0.195,0,0.315-0.086,0.429-0.349
		l-1.257-3.019h0.737l0.858,2.241l0.783-2.241h0.72l-1.201,3.105c-0.24,0.617-0.509,0.846-0.995,0.846
		C41.397,41.18,41.186,41.111,40.974,40.996"/>
	<polygon fill="#A40344" points="45.928,36.246 46.705,36.246 47.912,39.321 49.112,36.246 49.873,36.246 48.209,40.276 
		47.592,40.276 	"/>
	<path fill="#A40344" d="M50.014,38.75v-0.012c0-0.863,0.612-1.572,1.475-1.572c0.961,0,1.446,0.755,1.446,1.624
		c0,0.063-0.006,0.125-0.011,0.194h-2.218c0.074,0.491,0.423,0.766,0.869,0.766c0.338,0,0.578-0.125,0.817-0.36l0.406,0.36
		c-0.286,0.343-0.68,0.566-1.235,0.566C50.689,40.316,50.014,39.681,50.014,38.75 M52.25,38.527
		c-0.046-0.446-0.309-0.794-0.766-0.794c-0.423,0-0.72,0.326-0.783,0.794H52.25z"/>
	<path fill="#A40344" d="M53.656,37.229h0.692v0.68c0.189-0.451,0.538-0.76,1.069-0.737v0.732h-0.04
		c-0.606,0-1.029,0.395-1.029,1.195v1.149h-0.692V37.229z"/>
	<path fill="#A40344" d="M55.983,36.109h0.743v0.657h-0.743V36.109z M56.012,37.229h0.692v3.019h-0.692V37.229z"/>
	<path fill="#A40344" d="M57.421,39.665l0.423-0.504c0.383,0.332,0.766,0.52,1.263,0.52c0.435,0,0.709-0.2,0.709-0.503v-0.012
		c0-0.285-0.16-0.44-0.903-0.611c-0.852-0.206-1.332-0.457-1.332-1.195v-0.012c0-0.686,0.571-1.16,1.366-1.16
		c0.583,0,1.046,0.177,1.452,0.503l-0.377,0.531c-0.36-0.269-0.721-0.411-1.087-0.411c-0.411,0-0.651,0.212-0.651,0.475v0.012
		c0,0.309,0.182,0.446,0.949,0.629c0.846,0.206,1.286,0.508,1.286,1.172v0.011c0,0.75-0.589,1.195-1.43,1.195
		C58.479,40.305,57.901,40.093,57.421,39.665"/>
	<path fill="#A40344" d="M61.283,36.109h0.743v0.657h-0.743V36.109z M61.311,37.229h0.691v3.019h-0.691V37.229z"/>
	<path fill="#A40344" d="M62.874,40.814l0.257-0.52c0.32,0.2,0.663,0.319,1.075,0.319c0.618,0,0.954-0.319,0.954-0.926v-0.234
		c-0.251,0.325-0.566,0.554-1.063,0.554c-0.709,0-1.372-0.526-1.372-1.412v-0.012c0-0.892,0.669-1.417,1.372-1.417
		c0.509,0,0.823,0.235,1.058,0.514v-0.452h0.691v2.401c0,0.509-0.131,0.886-0.383,1.138c-0.274,0.274-0.697,0.406-1.241,0.406
		C63.726,41.174,63.262,41.048,62.874,40.814 M65.166,38.595v-0.012c0-0.497-0.406-0.835-0.886-0.835
		c-0.48,0-0.858,0.332-0.858,0.83v0.011c0,0.497,0.383,0.835,0.858,0.835C64.76,39.424,65.166,39.082,65.166,38.595"/>
	<path fill="#A40344" d="M66.735,37.229h0.691v0.469c0.195-0.285,0.474-0.532,0.943-0.532c0.681,0,1.075,0.458,1.075,1.16v1.921
		h-0.692v-1.715c0-0.469-0.234-0.737-0.646-0.737c-0.401,0-0.681,0.28-0.681,0.749v1.704h-0.691V37.229z"/>
</g>
</svg>
