<?xml version="1.0" encoding="utf-8"?>
<!-- Generator: Adobe Illustrator 17.0.0, SVG Export Plug-In . SVG Version: 6.00 Build 0)  -->
<!DOCTYPE svg PUBLIC "-//W3C//DTD SVG 1.1//EN" "http://www.w3.org/Graphics/SVG/1.1/DTD/svg11.dtd">
<svg version="1.1" id="Layer_1" xmlns="http://www.w3.org/2000/svg" xmlns:xlink="http://www.w3.org/1999/xlink" x="0px" y="0px"
	 width="80px" height="46px" viewBox="0 0 80 46" enable-background="new 0 0 80 46" xml:space="preserve">
<g>
	<path fill="#0033A0" d="M32.874,23.517l-3.684,9.936l-0.393-2.019c-0.918-2.475-2.904-5.072-5.218-6.125l3.371,12.758l3.984-0.002
		l5.925-14.549H32.874L32.874,23.517z"/>
	<polygon fill="#0033A0" points="36.032,38.082 38.387,23.503 42.151,23.503 39.795,38.082 36.032,38.082 	"/>
	<path fill="#0033A0" d="M53.45,23.863c-0.744-0.294-1.917-0.614-3.373-0.614c-3.724,0-6.34,1.979-6.363,4.81
		c-0.024,2.097,1.871,3.267,3.295,3.963c1.47,0.713,1.961,1.17,1.956,1.808c-0.014,0.977-1.176,1.422-2.255,1.422
		c-1.505,0-2.306-0.219-3.54-0.762l-0.489-0.232l-0.527,3.263c0.881,0.406,2.506,0.758,4.196,0.776c3.952,0,6.523-1.957,6.553-4.979
		c0.016-1.663-0.99-2.922-3.164-3.962c-1.312-0.675-2.124-1.123-2.112-1.809c0.001-0.605,0.681-1.253,2.157-1.253
		c1.233-0.02,2.119,0.262,2.817,0.56l0.336,0.167L53.45,23.863L53.45,23.863z"/>
	<path fill="#0033A0" d="M63.104,23.518h-2.908c-0.902,0-1.577,0.257-1.975,1.21l-5.588,13.358h3.953c0,0,0.647-1.798,0.793-2.192
		c0.431,0,4.271,0.009,4.819,0.009c0.116,0.508,0.458,2.183,0.458,2.183h3.496L63.104,23.518L63.104,23.518z M58.462,32.913
		c0.312-0.837,1.5-4.075,1.5-4.075c-0.023,0.04,0.309-0.843,0.501-1.389l0.251,1.257c0,0,0.723,3.479,0.874,4.207
		C61.001,32.913,59.196,32.913,58.462,32.913L58.462,32.913z"/>
	<path fill="#FF9E16" d="M25.771,23.51h-6.071l-0.036,0.251c4.72,1.207,7.835,4.172,9.131,7.678l-1.319-6.7
		C27.25,23.816,26.59,23.543,25.771,23.51L25.771,23.51z"/>
	<polygon fill="#0033A0" points="8.314,19.987 5.913,19.987 3.144,7.505 5.797,7.062 7.692,16.83 12.517,7.191 15.066,7.191 
		8.314,19.987 	"/>
	<path fill="#0033A0" d="M20.797,15.907h-5.724c-0.157,1.736,0.65,2.493,2.017,2.493c1.145,0,2.152-0.425,3.236-1.108l-0.009,1.736
		c-1.063,0.665-2.291,1.09-3.732,1.09c-2.493,0-4.139-1.422-3.644-4.635c0.446-2.899,2.452-4.653,4.778-4.653
		c2.677,0,3.568,2.013,3.179,4.542C20.869,15.556,20.816,15.777,20.797,15.907L20.797,15.907z M17.428,12.361
		c-0.887,0-1.715,0.701-2.105,2.16h3.545C18.933,13.137,18.499,12.361,17.428,12.361L17.428,12.361z"/>
	<path fill="#0033A0" d="M24.528,14.817l-0.787,5.115h-2.216l1.373-8.919h1.883l0.001,1.791c0.75-1.034,1.77-1.902,3.166-1.976
		l0.013,2.197C26.562,13.119,25.303,13.857,24.528,14.817L24.528,14.817z"/>
	<path fill="#0033A0" d="M27.932,19.932l1.373-8.919h2.216l-1.373,8.919H27.932L27.932,19.932z M30.661,9.518
		c-0.738,0-1.25-0.517-1.136-1.255c0.116-0.757,0.79-1.293,1.528-1.293c0.72,0,1.229,0.535,1.112,1.293
		C32.052,9.001,31.382,9.518,30.661,9.518L30.661,9.518z"/>
	<path fill="#0033A0" d="M37.657,8.576c-0.757,0-1.214,0.332-1.337,1.126l-0.202,1.311h1.699l-0.001,1.81H35.84l-1.094,7.109h-2.197
		l1.094-7.109H32.35l0.278-1.81h1.293l0.236-1.532c0.304-1.976,1.673-2.714,3.501-2.714c0.388,0,0.678,0.037,0.894,0.074l0.017,1.81
		C38.353,8.613,38.026,8.576,37.657,8.576L37.657,8.576z"/>
	<path fill="#0033A0" d="M37.681,19.932l1.373-8.919h2.216l-1.373,8.919H37.681L37.681,19.932z M40.41,9.518
		c-0.738,0-1.25-0.517-1.136-1.255c0.117-0.757,0.79-1.293,1.528-1.293c0.72,0,1.229,0.535,1.112,1.293
		C41.801,9.001,41.131,9.518,40.41,9.518L40.41,9.518z"/>
	<path fill="#0033A0" d="M49.86,15.907h-5.724c-0.156,1.736,0.65,2.493,2.017,2.493c1.145,0,2.152-0.425,3.236-1.108l-0.009,1.736
		c-1.063,0.665-2.291,1.09-3.732,1.09c-2.493,0-4.138-1.422-3.644-4.635c0.446-2.899,2.452-4.653,4.778-4.653
		c2.677,0,3.568,2.013,3.179,4.542C49.933,15.556,49.88,15.777,49.86,15.907L49.86,15.907z M46.491,12.361
		c-0.887,0-1.715,0.701-2.105,2.16h3.545C47.996,13.137,47.562,12.361,46.491,12.361L46.491,12.361z"/>
	<path fill="#0033A0" d="M56.423,19.932l0.006-1.237c-0.744,0.757-1.715,1.422-2.952,1.422c-1.865,0-3.147-1.385-2.684-4.395
		c0.511-3.323,2.567-4.801,4.635-4.801c0.85,0,1.51,0.148,2.017,0.332l0.662-4.302l2.27-0.351l-2.052,13.332H56.423L56.423,19.932z
		 M57.164,13.082c-0.514-0.259-0.919-0.388-1.676-0.388c-1.163,0-2.158,0.942-2.459,2.899c-0.267,1.736,0.346,2.548,1.325,2.548
		c0.812,0,1.514-0.48,2.218-1.219L57.164,13.082L57.164,13.082z"/>
	<path fill="#0033A0" d="M65.113,20.016c-1.049,0-1.904-0.168-2.7-0.448l1.457-9.469l1.719-0.266l-0.63,4.098
		c0.502-0.448,1.2-0.895,2.054-0.895c1.427,0,2.382,1.063,2.033,3.329C68.663,18.855,67.127,20.016,65.113,20.016L65.113,20.016z
		 M66.351,14.519c-0.559,0-1.121,0.378-1.618,0.882l-0.471,3.063c0.331,0.126,0.559,0.182,1.035,0.182
		c1.063,0,1.806-0.643,2.042-2.182C67.539,15.162,67.107,14.519,66.351,14.519L66.351,14.519z"/>
	<path fill="#0033A0" d="M73,20.296c-0.857,1.664-1.706,2.182-3.007,2.182c-0.294,0-0.457-0.028-0.604-0.07l-0.011-1.385
		c0.215,0.056,0.446,0.098,0.768,0.098c0.49,0,0.916-0.224,1.201-0.713l0.222-0.448l-1.423-6.658l1.783-0.224l0.826,4.811
		l2.236-4.713h1.665L73,20.296L73,20.296z"/>
</g>
</svg>
