<?xml version="1.0" encoding="UTF-8" standalone="no"?>
<svg width="100px" height="100px" viewBox="0 0 100 100" version="1.1" xmlns="http://www.w3.org/2000/svg" xmlns:xlink="http://www.w3.org/1999/xlink">
    <!-- Generator: sketchtool 42 (36781) - http://www.bohemiancoding.com/sketch -->
    <title>3D23107F-D95D-4F02-9E5D-D75CAD02B019</title>
    <desc>Created with sketchtool.</desc>
    <defs>
        <polygon id="path-1" points="7.20432645 0.0273100583 7.20432645 2.57965195 0.2106588 2.57965195 0.2106588 0.0273100583 7.20432645 0.0273100583"></polygon>
    </defs>
    <g id="Page-1" stroke="none" stroke-width="1" fill="none" fill-rule="evenodd">
        <g id="Home-Final" transform="translate(-165.000000, -2384.000000)">
            <g id="Group-24" transform="translate(165.000000, 2384.000000)">
                <g id="Group-18" fill="#00d437">
                    <g id="Group-3">
                        <circle id="Oval-5" cx="50" cy="49.5575221" r="49.5575221"></circle>
                    </g>
                </g>
                <g id="Page-1" transform="translate(27.433628, 35.398230)">
                    <path d="M22.0450344,35.9397815 L23.4025565,35.9397815 L24.5939036,34.7529425 C24.8342183,34.5155747 25.1588987,34.3803006 25.4989184,34.3803006 L26.1712881,34.3803006 L26.1712881,28.4001635 L19.2788594,28.4001635 L19.2788594,34.3803006 L19.9537856,34.3803006 C20.2912488,34.3803006 20.6159292,34.5155747 20.8562439,34.7554948 L22.0450344,35.9397815 Z M23.9317601,38.4921234 L21.5158309,38.4921234 C21.1758112,38.4921234 20.8511308,38.3568492 20.6108161,38.1194814 L19.4245821,36.9326425 L18.00059,36.9326425 C17.2949853,36.9326425 16.7223206,36.3634702 16.7223206,35.6564715 L16.7223206,27.1239926 C16.7223206,26.4195462 17.2949853,25.8478216 18.00059,25.8478216 L27.4495575,25.8478216 C28.1577188,25.8478216 28.7278269,26.4195462 28.7278269,27.1239926 L28.7278269,35.6564715 C28.7278269,36.3634702 28.1577188,36.9326425 27.4495575,36.9326425 L26.0281219,36.9326425 L24.8367748,38.1194814 C24.5964602,38.3568492 24.2717797,38.4921234 23.9317601,38.4921234 L23.9317601,38.4921234 Z" id="Fill-1" fill="#FFFFFF"></path>
                    <path d="M19.8157325,25.8488425 L25.672763,25.8488425 C26.2786627,22.9825626 28.6562439,20.3179177 28.960472,19.9861132 C30.9290069,17.7017672 32.1663717,14.5547297 32.1663717,11.8058574 C32.1663717,6.70372599 27.9301868,2.55361807 22.7250737,2.55361807 C17.5199607,2.55361807 13.2837758,6.70372599 13.2837758,11.8058574 C13.2837758,14.5598343 14.5262537,17.7119766 16.5254671,20.0269507 C16.5510324,20.0550264 16.5714848,20.0856545 16.5944936,20.1162826 C17.1594887,20.7441588 19.2481809,23.2046163 19.8157325,25.8488425 M26.8104228,28.4011844 L26.7720747,28.4011844 L18.6806293,28.4011844 C17.972468,28.4011844 17.4023599,27.8294599 17.4023599,27.1250135 C17.4023599,25.1673673 15.3903638,22.5716355 14.6157325,21.7370197 C14.5671583,21.6859729 14.5288102,21.6323737 14.4904621,21.5787746 C12.1307768,18.7890649 10.727237,15.1494253 10.727237,11.8058574 C10.727237,5.2973856 16.1113078,0.00127617095 22.7250737,0.00127617095 C29.3413963,0.00127617095 34.7229105,5.2973856 34.7229105,11.8058574 C34.7229105,15.1902628 33.2861357,18.8809492 30.872763,21.6783159 C30.0827925,22.5486645 28.0886922,25.1597102 28.0886922,27.1250135 C28.0886922,27.6329295 27.7870206,28.0923511 27.319174,28.2965384 C27.1555556,28.3654517 26.9842675,28.4011844 26.8104228,28.4011844" id="Fill-3" fill="#FFFFFF"></path>
                    <path d="M22.7243068,28.4011844 C22.0187021,28.4011844 21.4460374,27.8294599 21.4460374,27.1250135 L21.4460374,17.6430633 C21.4460374,16.938617 22.0187021,16.3668924 22.7243068,16.3668924 C23.4299115,16.3668924 24.0025762,16.938617 24.0025762,17.6430633 L24.0025762,27.1250135 C24.0025762,27.8294599 23.4299115,28.4011844 22.7243068,28.4011844" id="Fill-5" fill="#FFFFFF"></path>
                    <path d="M5.71718781,12.9960145 L1.27903638,12.9960145 C0.570875123,12.9960145 0.000766961653,12.4242899 0.000766961653,11.7198435 C0.000766961653,11.0153972 0.570875123,10.4436726 1.27903638,10.4436726 L5.71718781,10.4436726 C6.42279253,10.4436726 6.99545723,11.0153972 6.99545723,11.7198435 C6.99545723,12.4242899 6.42279253,12.9960145 5.71718781,12.9960145" id="Fill-7" fill="#FFFFFF"></path>
                    <path d="M7.50983284,6.55543492 C7.19026549,6.55543492 6.87325467,6.4380272 6.62271386,6.2006594 L3.03844641,2.76265487 C2.52969518,2.27515757 2.51435595,1.46606518 3.00265487,0.958149147 C3.49351032,0.447680768 4.3013766,0.437471401 4.81012783,0.919864019 L8.39695182,4.35786855 C8.90570305,4.8479182 8.92104228,5.65445823 8.43018682,6.16237427 C8.18220256,6.42526549 7.84473943,6.55543492 7.50983284,6.55543492" id="Fill-9" fill="#FFFFFF"></path>
                    <path d="M3.92479843,23.2354997 C3.58989184,23.2354997 3.25242871,23.1053302 3.00444444,22.842439 C2.51358899,22.334523 2.52892822,21.5279829 3.03767945,21.0379333 L6.62450344,17.5999288 C7.13581121,17.1175362 7.94367748,17.1277455 8.4319764,17.6382139 C8.92027532,18.1461299 8.90493609,18.9552223 8.39618486,19.4427196 L4.8119174,22.8807242 C4.5613766,23.1180919 4.24436578,23.2354997 3.92479843,23.2354997" id="Fill-11" fill="#FFFFFF"></path>
                    <g id="Group-15" transform="translate(38.348083, 10.416363)">
                        <mask id="mask-2" fill="white">
                            <use xlink:href="#path-1"></use>
                        </mask>
                        <g id="Clip-14"></g>
                        <path d="M5.92707965,2.57965195 L1.48892822,2.57965195 C0.780766962,2.57965195 0.2106588,2.00792737 0.2106588,1.30348101 C0.2106588,0.599034643 0.780766962,0.0273100583 1.48892822,0.0273100583 L5.92707965,0.0273100583 C6.63268437,0.0273100583 7.20534907,0.599034643 7.20534907,1.30348101 C7.20534907,2.00792737 6.63268437,2.57965195 5.92707965,2.57965195" id="Fill-13" fill="#FFFFFF" mask="url(#mask-2)"></path>
                    </g>
                    <path d="M38.0435988,6.55543492 C37.7061357,6.55543492 37.3712291,6.42526549 37.1232448,6.16237427 C36.6323894,5.65445823 36.6477286,4.8479182 37.1564798,4.35786855 L40.7458604,0.919864019 C41.2597247,0.434919059 42.067591,0.447680768 42.5533333,0.958149147 C43.0416323,1.46606518 43.026293,2.27515757 42.5175418,2.76265487 L38.9307178,6.2006594 C38.680177,6.4380272 38.3631662,6.55543492 38.0435988,6.55543492" id="Fill-16" fill="#FFFFFF"></path>
                    <path d="M41.6311898,23.2354997 C41.3116224,23.2354997 40.9946116,23.1180919 40.7440708,22.8807242 L37.1572468,19.4427196 C36.6484956,18.9552223 36.6331563,18.1461299 37.1214553,17.6382139 C37.6071976,17.1277455 38.4150639,17.1149838 38.9289282,17.5999288 L42.5183088,21.0379333 C43.02706,21.5279829 43.0423992,22.334523 42.5515438,22.842439 C42.3035595,23.1053302 41.9686529,23.2354997 41.6311898,23.2354997" id="Fill-18" fill="#FFFFFF"></path>
                    <path d="M21.4884759,13.7502315 C21.3376401,13.7502315 21.1893609,13.7247081 21.0461947,13.6711089 L18.7095182,12.8109697 C18.0448181,12.5659449 17.707355,11.8334227 17.9527827,11.1698138 C18.1982104,10.5087573 18.9421632,10.1718482 19.5940806,10.4143206 L21.3580924,11.0651678 L22.2886726,10.513862 C22.6900492,10.2790465 23.1936873,10.2790465 23.5925074,10.513862 L24.4745133,11.0370921 L26.3203343,10.4041113 C26.9850344,10.1795052 27.7162045,10.5317284 27.9411799,11.1978896 C28.1712684,11.8666032 27.8159095,12.5914683 27.1486529,12.821179 L24.7429499,13.6430331 C24.3901475,13.7629932 23.9989971,13.7247081 23.6768732,13.5332824 L22.94059,13.096832 L22.1403933,13.5715676 C21.9409833,13.6915276 21.7160079,13.7502315 21.4884759,13.7502315" id="Fill-20" fill="#FFFFFF"></path>
                </g>
            </g>
        </g>
    </g>
</svg>