<?xml version="1.0" encoding="utf-8"?>
<!-- Generator: Adobe Illustrator 17.0.0, SVG Export Plug-In . SVG Version: 6.00 Build 0)  -->
<!DOCTYPE svg PUBLIC "-//W3C//DTD SVG 1.1//EN" "http://www.w3.org/Graphics/SVG/1.1/DTD/svg11.dtd">
<svg version="1.1" id="Layer_1" xmlns="http://www.w3.org/2000/svg" xmlns:xlink="http://www.w3.org/1999/xlink" x="0px" y="0px"
	 width="80px" height="46px" viewBox="0 0 80 46" enable-background="new 0 0 80 46" xml:space="preserve">
<g>
	<rect x="-10.349" y="-10.54" fill="none" width="98.886" height="45.84"/>
	<g>
		<g>
			<path fill="#F79E1B" d="M7.349,16.751c-0.415-0.263-0.849-0.467-1.301-0.613c-0.452-0.145-0.925-0.218-1.419-0.218
				c-0.323,0-0.618,0.034-0.886,0.1c-0.268,0.067-0.497,0.164-0.689,0.291c-0.191,0.127-0.34,0.279-0.446,0.456
				c-0.106,0.178-0.159,0.378-0.159,0.599c0,0.203,0.046,0.376,0.139,0.519c0.092,0.143,0.225,0.264,0.398,0.363
				c0.173,0.099,0.384,0.181,0.633,0.246c0.249,0.065,0.531,0.12,0.845,0.166l0.671,0.09c0.392,0.055,0.775,0.141,1.149,0.256
				c0.374,0.115,0.707,0.277,1,0.485c0.293,0.207,0.528,0.468,0.706,0.782c0.178,0.314,0.267,0.695,0.267,1.142
				c0,0.494-0.104,0.93-0.311,1.308C7.736,23.102,7.455,23.42,7.1,23.678c-0.355,0.259-0.767,0.455-1.235,0.588
				c-0.468,0.134-0.966,0.201-1.492,0.201c-0.328,0-0.668-0.028-1.021-0.083c-0.353-0.055-0.701-0.137-1.045-0.246
				c-0.344-0.108-0.673-0.244-0.986-0.405c-0.314-0.162-0.595-0.351-0.844-0.568l0.851-1.246c0.166,0.152,0.366,0.293,0.599,0.422
				c0.233,0.129,0.483,0.242,0.751,0.339c0.268,0.097,0.546,0.172,0.834,0.225c0.288,0.053,0.573,0.08,0.855,0.08
				c0.318,0,0.615-0.032,0.889-0.097c0.275-0.065,0.513-0.159,0.717-0.284c0.203-0.125,0.363-0.276,0.481-0.453
				c0.118-0.178,0.177-0.377,0.177-0.599c0-0.379-0.186-0.667-0.557-0.866C5.7,20.49,5.159,20.343,4.449,20.246l-0.754-0.104
				c-0.36-0.051-0.712-0.134-1.056-0.249c-0.344-0.115-0.65-0.278-0.92-0.488c-0.27-0.21-0.487-0.472-0.651-0.789
				c-0.164-0.316-0.246-0.7-0.246-1.152c0-0.485,0.1-0.915,0.301-1.291c0.201-0.376,0.474-0.692,0.82-0.948
				c0.346-0.257,0.751-0.451,1.215-0.585c0.464-0.134,0.958-0.201,1.485-0.201c0.706,0,1.344,0.093,1.913,0.28
				s1.099,0.442,1.589,0.765L7.349,16.751z M12.629,17.491c0.461,0,0.885,0.084,1.27,0.253c0.385,0.169,0.715,0.406,0.99,0.713
				c0.274,0.307,0.489,0.674,0.644,1.101c0.154,0.427,0.232,0.899,0.232,1.415c0,0.092-0.002,0.184-0.007,0.277
				c-0.005,0.092-0.012,0.18-0.021,0.263h-4.9c0.046,0.3,0.132,0.556,0.256,0.768c0.125,0.212,0.275,0.387,0.45,0.523
				c0.176,0.136,0.371,0.236,0.588,0.301c0.217,0.065,0.443,0.097,0.678,0.097c0.332,0,0.666-0.061,1-0.183
				c0.335-0.122,0.64-0.294,0.917-0.516l0.72,1.031c-0.406,0.346-0.836,0.588-1.291,0.727c-0.455,0.139-0.933,0.208-1.436,0.208
				c-0.498,0-0.955-0.083-1.37-0.249c-0.415-0.166-0.773-0.402-1.073-0.706c-0.3-0.305-0.533-0.672-0.699-1.101
				c-0.166-0.429-0.249-0.907-0.249-1.433c0-0.517,0.081-0.99,0.242-1.418c0.161-0.429,0.388-0.797,0.678-1.104
				c0.291-0.307,0.638-0.544,1.042-0.713C11.694,17.576,12.14,17.491,12.629,17.491z M12.601,18.779
				c-0.258,0-0.488,0.039-0.689,0.118c-0.201,0.079-0.374,0.19-0.519,0.336c-0.145,0.145-0.264,0.318-0.356,0.519
				c-0.092,0.2-0.157,0.421-0.194,0.661h3.44c-0.079-0.517-0.263-0.918-0.554-1.204C13.439,18.922,13.063,18.779,12.601,18.779z
				 M20.291,17.491c0.498,0,0.962,0.089,1.391,0.267c0.429,0.178,0.791,0.442,1.087,0.792l-0.928,0.99
				c-0.235-0.221-0.48-0.391-0.734-0.509c-0.254-0.118-0.54-0.176-0.858-0.176c-0.277,0-0.535,0.052-0.775,0.156
				c-0.24,0.103-0.448,0.249-0.623,0.436c-0.175,0.187-0.313,0.411-0.412,0.671c-0.099,0.261-0.149,0.548-0.149,0.862
				c0,0.314,0.05,0.601,0.149,0.862c0.099,0.261,0.236,0.485,0.412,0.671c0.175,0.187,0.383,0.332,0.623,0.436
				c0.24,0.104,0.498,0.156,0.775,0.156c0.318,0,0.616-0.066,0.893-0.197c0.277-0.131,0.521-0.296,0.734-0.495l0.893,0.997
				c-0.304,0.35-0.669,0.615-1.094,0.792c-0.424,0.178-0.886,0.267-1.384,0.267c-0.526,0-1.004-0.089-1.433-0.267
				c-0.429-0.178-0.796-0.422-1.1-0.734c-0.305-0.311-0.54-0.679-0.706-1.104c-0.166-0.424-0.249-0.886-0.249-1.384
				c0-0.498,0.083-0.959,0.249-1.384c0.166-0.424,0.401-0.792,0.706-1.104c0.304-0.311,0.671-0.556,1.1-0.734
				C19.287,17.58,19.765,17.491,20.291,17.491z M30.187,21.485c0,0.526-0.088,0.978-0.263,1.356
				c-0.175,0.379-0.406,0.688-0.692,0.928c-0.286,0.24-0.614,0.416-0.983,0.529c-0.369,0.113-0.748,0.17-1.135,0.17
				c-0.387,0-0.766-0.057-1.135-0.17c-0.369-0.113-0.698-0.289-0.986-0.529c-0.288-0.24-0.519-0.549-0.692-0.928
				c-0.173-0.378-0.26-0.83-0.26-1.356v-3.82h1.453v3.689c0,0.318,0.042,0.589,0.125,0.813c0.083,0.224,0.197,0.405,0.343,0.544
				c0.145,0.138,0.317,0.238,0.516,0.301s0.411,0.093,0.637,0.093c0.226,0,0.438-0.031,0.637-0.093
				c0.198-0.062,0.37-0.163,0.516-0.301c0.145-0.139,0.26-0.32,0.342-0.544c0.083-0.223,0.125-0.495,0.125-0.813v-3.689h1.453
				V21.485z M35.468,17.491c0.222,0,0.421,0.015,0.599,0.045c0.178,0.03,0.349,0.077,0.516,0.142l-0.346,1.433
				c-0.152-0.079-0.33-0.139-0.533-0.18c-0.203-0.042-0.392-0.062-0.568-0.062c-0.231,0-0.443,0.039-0.637,0.117
				c-0.194,0.079-0.36,0.194-0.498,0.346c-0.139,0.152-0.247,0.339-0.325,0.56c-0.079,0.221-0.118,0.473-0.118,0.755v3.647h-1.446
				v-6.63h1.433v0.747c0.221-0.318,0.496-0.551,0.824-0.699C34.695,17.565,35.062,17.491,35.468,17.491z M40.327,17.491
				c0.461,0,0.885,0.084,1.27,0.253c0.385,0.169,0.715,0.406,0.99,0.713c0.274,0.307,0.489,0.674,0.644,1.101
				c0.154,0.427,0.232,0.899,0.232,1.415c0,0.092-0.002,0.184-0.007,0.277c-0.005,0.092-0.012,0.18-0.021,0.263h-4.9
				c0.046,0.3,0.132,0.556,0.256,0.768c0.125,0.212,0.275,0.387,0.45,0.523c0.175,0.136,0.371,0.236,0.588,0.301
				c0.217,0.065,0.443,0.097,0.678,0.097c0.332,0,0.666-0.061,1-0.183c0.335-0.122,0.64-0.294,0.917-0.516l0.719,1.031
				c-0.406,0.346-0.836,0.588-1.29,0.727c-0.455,0.139-0.933,0.208-1.436,0.208c-0.498,0-0.955-0.083-1.37-0.249
				c-0.415-0.166-0.773-0.402-1.073-0.706c-0.3-0.305-0.533-0.672-0.699-1.101c-0.166-0.429-0.249-0.907-0.249-1.433
				c0-0.517,0.081-0.99,0.242-1.418c0.161-0.429,0.388-0.797,0.678-1.104c0.291-0.307,0.638-0.544,1.042-0.713
				C39.391,17.576,39.838,17.491,40.327,17.491z M40.299,18.779c-0.258,0-0.488,0.039-0.689,0.118
				c-0.201,0.079-0.374,0.19-0.519,0.336c-0.145,0.145-0.264,0.318-0.356,0.519c-0.092,0.2-0.157,0.421-0.194,0.661h3.44
				c-0.079-0.517-0.263-0.918-0.554-1.204C41.137,18.922,40.761,18.779,40.299,18.779z M49.705,14.425
				c0.429,0,0.845,0.046,1.246,0.139c0.402,0.092,0.775,0.226,1.121,0.402c0.346,0.175,0.66,0.389,0.941,0.64
				c0.281,0.252,0.517,0.534,0.706,0.847l-1.308,0.872c-0.296-0.434-0.675-0.775-1.139-1.024s-0.986-0.374-1.567-0.374
				c-0.494,0-0.95,0.085-1.371,0.256c-0.42,0.171-0.782,0.411-1.087,0.719c-0.304,0.309-0.543,0.681-0.716,1.115
				c-0.173,0.434-0.26,0.911-0.26,1.432c0,0.522,0.086,0.999,0.26,1.432c0.173,0.434,0.412,0.805,0.716,1.115
				c0.305,0.309,0.667,0.549,1.087,0.719c0.42,0.171,0.877,0.256,1.371,0.256c0.576,0,1.095-0.122,1.553-0.367
				c0.459-0.245,0.841-0.586,1.146-1.024l1.274,0.934c-0.208,0.304-0.451,0.576-0.73,0.816c-0.279,0.24-0.588,0.445-0.928,0.616
				c-0.339,0.171-0.704,0.301-1.094,0.391c-0.39,0.09-0.797,0.135-1.222,0.135c-0.743,0-1.426-0.126-2.049-0.378
				c-0.623-0.251-1.158-0.601-1.606-1.048c-0.448-0.447-0.796-0.978-1.045-1.592c-0.249-0.614-0.374-1.283-0.374-2.007
				c0-0.725,0.125-1.393,0.374-2.007c0.249-0.614,0.597-1.144,1.045-1.592c0.447-0.447,0.983-0.797,1.606-1.048
				C48.279,14.551,48.962,14.425,49.705,14.425z M58.252,17.491c0.512,0,0.986,0.089,1.422,0.267
				c0.436,0.178,0.813,0.422,1.132,0.734c0.318,0.311,0.567,0.679,0.748,1.104c0.18,0.425,0.27,0.886,0.27,1.384
				c0,0.499-0.09,0.96-0.27,1.384c-0.18,0.425-0.429,0.793-0.748,1.104c-0.318,0.311-0.695,0.556-1.132,0.734
				c-0.436,0.178-0.91,0.267-1.422,0.267c-0.512,0-0.987-0.089-1.422-0.267c-0.436-0.178-0.812-0.422-1.128-0.734
				c-0.316-0.311-0.564-0.679-0.744-1.104c-0.18-0.424-0.27-0.886-0.27-1.384c0-0.498,0.09-0.959,0.27-1.384
				c0.18-0.424,0.428-0.792,0.744-1.104c0.316-0.311,0.692-0.556,1.128-0.734C57.266,17.58,57.74,17.491,58.252,17.491z
				 M58.252,18.855c-0.296,0-0.57,0.052-0.824,0.156c-0.254,0.103-0.473,0.249-0.657,0.436c-0.185,0.187-0.33,0.411-0.436,0.671
				c-0.106,0.261-0.159,0.548-0.159,0.862c0,0.314,0.053,0.601,0.159,0.862c0.106,0.261,0.252,0.485,0.436,0.671
				c0.184,0.187,0.404,0.332,0.657,0.436c0.254,0.104,0.528,0.156,0.824,0.156c0.295,0,0.569-0.052,0.823-0.156
				c0.254-0.104,0.474-0.249,0.661-0.436c0.187-0.187,0.333-0.411,0.44-0.671c0.106-0.261,0.159-0.548,0.159-0.862
				c0-0.313-0.053-0.601-0.159-0.862c-0.106-0.261-0.253-0.485-0.44-0.671c-0.187-0.187-0.407-0.332-0.661-0.436
				C58.822,18.907,58.547,18.855,58.252,18.855z M66.177,17.491c0.475,0,0.884,0.089,1.225,0.267
				c0.341,0.178,0.628,0.414,0.859,0.709v-4.139h1.447v9.966H68.26v-0.796c-0.231,0.295-0.517,0.531-0.859,0.706
				c-0.341,0.175-0.75,0.263-1.225,0.263c-0.466,0-0.9-0.086-1.301-0.26c-0.402-0.173-0.752-0.414-1.052-0.724
				c-0.3-0.309-0.536-0.677-0.706-1.104c-0.171-0.427-0.256-0.894-0.256-1.402c0-0.507,0.085-0.975,0.256-1.401
				c0.17-0.427,0.406-0.795,0.706-1.104c0.3-0.309,0.65-0.55,1.052-0.723C65.277,17.578,65.711,17.491,66.177,17.491z M66.35,18.855
				c-0.314,0-0.594,0.056-0.841,0.169c-0.247,0.113-0.455,0.266-0.626,0.457c-0.171,0.191-0.302,0.416-0.395,0.675
				c-0.092,0.259-0.139,0.533-0.139,0.823c0,0.291,0.046,0.565,0.139,0.824s0.224,0.484,0.395,0.675
				c0.171,0.191,0.379,0.343,0.626,0.457c0.247,0.113,0.527,0.169,0.841,0.169c0.3,0,0.572-0.054,0.817-0.163
				c0.245-0.108,0.454-0.257,0.63-0.446c0.175-0.189,0.311-0.413,0.408-0.671c0.097-0.258,0.146-0.54,0.146-0.845
				c0-0.304-0.049-0.586-0.146-0.844c-0.097-0.259-0.233-0.482-0.408-0.671c-0.175-0.189-0.385-0.338-0.63-0.447
				C66.922,18.909,66.65,18.855,66.35,18.855z M74.524,17.491c0.461,0,0.885,0.084,1.27,0.253c0.385,0.169,0.715,0.406,0.99,0.713
				c0.275,0.307,0.489,0.674,0.644,1.101c0.155,0.427,0.232,0.899,0.232,1.415c0,0.092-0.002,0.184-0.007,0.277
				c-0.005,0.092-0.012,0.18-0.021,0.263h-4.9c0.046,0.3,0.131,0.556,0.256,0.768c0.125,0.212,0.274,0.387,0.45,0.523
				c0.175,0.136,0.371,0.236,0.588,0.301c0.217,0.065,0.443,0.097,0.678,0.097c0.332,0,0.666-0.061,1-0.183
				c0.334-0.122,0.64-0.294,0.917-0.516l0.719,1.031c-0.406,0.346-0.836,0.588-1.291,0.727c-0.454,0.139-0.933,0.208-1.436,0.208
				c-0.498,0-0.955-0.083-1.37-0.249c-0.415-0.166-0.773-0.402-1.073-0.706c-0.3-0.305-0.533-0.672-0.699-1.101
				c-0.166-0.429-0.249-0.907-0.249-1.433c0-0.517,0.08-0.99,0.242-1.418c0.162-0.429,0.388-0.797,0.678-1.104
				s0.638-0.544,1.041-0.713C73.588,17.576,74.035,17.491,74.524,17.491z M78.35,24.294v-0.334h0.134v-0.068h-0.342v0.068h0.135
				v0.334H78.35z M79.015,24.294v-0.402H78.91l-0.121,0.277l-0.121-0.277h-0.105v0.402h0.074v-0.303l0.113,0.261h0.077l0.113-0.262
				v0.304H79.015z M74.496,18.779c-0.259,0-0.488,0.039-0.689,0.118c-0.201,0.079-0.374,0.19-0.519,0.336
				c-0.145,0.145-0.264,0.318-0.356,0.519c-0.092,0.2-0.157,0.421-0.194,0.661h3.44c-0.078-0.517-0.263-0.918-0.553-1.204
				C75.334,18.922,74.957,18.779,74.496,18.779z"/>
			<path fill="#EB001B" d="M12.111,10.623h-1.622v-8.27L7.553,9.64H5.844L2.908,2.432v8.191H1.286V0.573h2.491l2.922,7.179
				L9.62,0.573h2.491V10.623z M20.654,10.623h-1.5V9.798c-0.239,0.306-0.536,0.55-0.89,0.732c-0.354,0.182-0.778,0.273-1.271,0.273
				c-0.484,0-0.933-0.09-1.35-0.269c-0.416-0.18-0.78-0.43-1.091-0.751c-0.311-0.32-0.555-0.702-0.732-1.145
				c-0.177-0.443-0.266-0.927-0.266-1.454c0-0.527,0.088-1.011,0.266-1.454c0.177-0.442,0.421-0.824,0.732-1.145
				c0.311-0.321,0.675-0.571,1.091-0.751c0.416-0.179,0.866-0.269,1.35-0.269c0.493,0,0.917,0.092,1.271,0.277
				c0.354,0.184,0.651,0.429,0.89,0.736V3.746h1.5V10.623z M17.172,4.981c-0.326,0-0.616,0.059-0.872,0.176
				c-0.256,0.118-0.473,0.276-0.65,0.474c-0.177,0.199-0.314,0.432-0.409,0.7c-0.096,0.268-0.144,0.553-0.144,0.855
				c0,0.301,0.048,0.586,0.144,0.854c0.096,0.268,0.232,0.502,0.409,0.7c0.177,0.199,0.394,0.356,0.65,0.474
				c0.256,0.117,0.547,0.176,0.872,0.176c0.311,0,0.593-0.056,0.847-0.169c0.254-0.112,0.471-0.267,0.653-0.463
				c0.182-0.196,0.323-0.428,0.424-0.696c0.1-0.268,0.151-0.56,0.151-0.876c0-0.316-0.05-0.608-0.151-0.876
				c-0.101-0.268-0.242-0.5-0.424-0.696c-0.182-0.196-0.4-0.35-0.653-0.463C17.765,5.037,17.483,4.981,17.172,4.981z M27.545,5.469
				c-0.105-0.062-0.234-0.128-0.388-0.197c-0.153-0.069-0.323-0.133-0.51-0.19c-0.187-0.057-0.384-0.105-0.592-0.144
				c-0.208-0.038-0.42-0.057-0.635-0.057c-0.412,0-0.731,0.075-0.959,0.226c-0.227,0.151-0.341,0.348-0.341,0.592
				c0,0.12,0.03,0.22,0.09,0.301c0.06,0.082,0.14,0.149,0.241,0.201c0.101,0.053,0.22,0.094,0.359,0.126
				c0.139,0.031,0.287,0.059,0.445,0.082l0.711,0.108c0.751,0.11,1.338,0.329,1.759,0.657c0.421,0.328,0.632,0.786,0.632,1.375
				c0,0.33-0.071,0.633-0.212,0.908s-0.345,0.512-0.61,0.71c-0.266,0.199-0.593,0.353-0.983,0.463
				c-0.39,0.11-0.832,0.165-1.325,0.165c-0.177,0-0.383-0.011-0.617-0.032c-0.235-0.022-0.484-0.065-0.747-0.129
				c-0.263-0.065-0.531-0.155-0.804-0.269c-0.273-0.115-0.534-0.266-0.782-0.452l0.696-1.127c0.124,0.096,0.26,0.185,0.405,0.269
				c0.146,0.084,0.311,0.158,0.495,0.222c0.184,0.065,0.388,0.116,0.61,0.155c0.223,0.038,0.475,0.057,0.757,0.057
				c0.517,0,0.907-0.075,1.17-0.226c0.263-0.151,0.395-0.355,0.395-0.614c0-0.196-0.096-0.358-0.287-0.485
				c-0.192-0.127-0.493-0.219-0.904-0.276l-0.718-0.093c-0.766-0.105-1.346-0.329-1.741-0.671c-0.395-0.342-0.592-0.791-0.592-1.346
				c0-0.34,0.066-0.646,0.197-0.919c0.132-0.273,0.321-0.504,0.567-0.693c0.247-0.189,0.544-0.335,0.894-0.438
				c0.349-0.103,0.744-0.154,1.185-0.154c0.541,0,1.05,0.063,1.529,0.19c0.478,0.127,0.897,0.305,1.256,0.535L27.545,5.469z
				 M34.666,5.11h-2.635v2.994c0,0.229,0.029,0.426,0.086,0.588c0.057,0.163,0.135,0.296,0.233,0.399
				c0.098,0.103,0.213,0.178,0.344,0.226c0.132,0.048,0.274,0.072,0.427,0.072c0.234,0,0.472-0.045,0.714-0.137
				c0.242-0.091,0.465-0.201,0.671-0.33l0.596,1.198c-0.278,0.187-0.59,0.347-0.937,0.481c-0.347,0.134-0.738,0.201-1.174,0.201
				c-0.78,0-1.387-0.216-1.82-0.65c-0.433-0.433-0.65-1.107-0.65-2.021V5.11h-1.371V3.746h1.371V1.664h1.508v2.082h2.635V5.11z
				 M39.282,3.566c0.479,0,0.918,0.087,1.317,0.262c0.4,0.175,0.742,0.421,1.027,0.74c0.285,0.318,0.507,0.699,0.668,1.141
				c0.16,0.443,0.241,0.932,0.241,1.468c0,0.096-0.003,0.192-0.008,0.287c-0.005,0.096-0.012,0.187-0.021,0.273h-5.083
				c0.048,0.311,0.136,0.577,0.266,0.797c0.129,0.22,0.285,0.401,0.466,0.542c0.182,0.141,0.385,0.246,0.61,0.312
				c0.225,0.067,0.459,0.1,0.703,0.1c0.345,0,0.69-0.063,1.038-0.19c0.347-0.127,0.664-0.305,0.951-0.535l0.747,1.069
				c-0.421,0.359-0.868,0.611-1.339,0.754c-0.471,0.144-0.968,0.215-1.489,0.215c-0.517,0-0.991-0.086-1.421-0.259
				c-0.431-0.172-0.802-0.416-1.113-0.732c-0.311-0.316-0.553-0.696-0.725-1.142c-0.172-0.445-0.258-0.94-0.258-1.486
				c0-0.536,0.084-1.027,0.251-1.472c0.168-0.445,0.402-0.826,0.704-1.145c0.302-0.318,0.662-0.565,1.08-0.74
				C38.312,3.654,38.775,3.566,39.282,3.566z M39.254,4.902c-0.268,0-0.506,0.041-0.714,0.122c-0.208,0.081-0.388,0.197-0.538,0.348
				c-0.151,0.151-0.274,0.33-0.37,0.539c-0.096,0.208-0.163,0.437-0.201,0.685h3.568c-0.081-0.536-0.273-0.952-0.574-1.249
				C40.122,5.05,39.732,4.902,39.254,4.902z M47.732,3.566c0.23,0,0.437,0.016,0.621,0.047c0.184,0.031,0.362,0.08,0.535,0.147
				l-0.359,1.486c-0.158-0.081-0.342-0.144-0.553-0.187c-0.21-0.043-0.407-0.064-0.588-0.064c-0.239,0-0.459,0.041-0.661,0.122
				c-0.201,0.081-0.373,0.201-0.517,0.359c-0.144,0.158-0.256,0.352-0.337,0.581C45.791,6.287,45.75,6.548,45.75,6.84v3.783h-1.5
				V3.746h1.486v0.775c0.23-0.33,0.515-0.572,0.855-0.725C46.93,3.643,47.31,3.566,47.732,3.566z M52.864,3.566
				c0.517,0,0.998,0.092,1.443,0.277c0.445,0.184,0.82,0.458,1.127,0.822l-0.962,1.027c-0.244-0.23-0.497-0.406-0.76-0.528
				c-0.264-0.122-0.56-0.183-0.891-0.183c-0.287,0-0.555,0.054-0.804,0.162c-0.249,0.107-0.464,0.258-0.646,0.452
				c-0.182,0.194-0.324,0.426-0.427,0.696c-0.103,0.271-0.155,0.568-0.155,0.894c0,0.325,0.051,0.623,0.155,0.894
				c0.102,0.27,0.245,0.502,0.427,0.696c0.182,0.194,0.397,0.344,0.646,0.452c0.249,0.108,0.517,0.162,0.804,0.162
				c0.33,0,0.639-0.068,0.926-0.204c0.287-0.137,0.541-0.308,0.761-0.514l0.926,1.034c-0.315,0.364-0.694,0.638-1.134,0.822
				c-0.441,0.184-0.919,0.277-1.436,0.277c-0.545,0-1.041-0.092-1.486-0.277c-0.445-0.184-0.826-0.438-1.142-0.761
				c-0.316-0.323-0.56-0.705-0.732-1.145c-0.172-0.44-0.259-0.919-0.259-1.435c0-0.517,0.086-0.996,0.259-1.436
				c0.172-0.44,0.416-0.822,0.732-1.145c0.316-0.323,0.696-0.576,1.142-0.761C51.824,3.659,52.319,3.566,52.864,3.566z
				 M63.432,10.623h-1.5V9.798c-0.239,0.306-0.536,0.55-0.89,0.732c-0.354,0.182-0.778,0.273-1.271,0.273
				c-0.484,0-0.933-0.09-1.35-0.269c-0.416-0.18-0.78-0.43-1.091-0.751c-0.311-0.32-0.555-0.702-0.733-1.145
				c-0.177-0.443-0.266-0.927-0.266-1.454c0-0.527,0.089-1.011,0.266-1.454c0.177-0.442,0.421-0.824,0.733-1.145
				c0.311-0.321,0.675-0.571,1.091-0.751c0.416-0.179,0.866-0.269,1.35-0.269c0.493,0,0.916,0.092,1.271,0.277
				c0.354,0.184,0.651,0.429,0.89,0.736V3.746h1.5V10.623z M59.95,4.981c-0.325,0-0.616,0.059-0.872,0.176
				c-0.256,0.118-0.472,0.276-0.65,0.474c-0.177,0.199-0.313,0.432-0.409,0.7c-0.095,0.268-0.144,0.553-0.144,0.855
				c0,0.301,0.048,0.586,0.144,0.854c0.096,0.268,0.232,0.502,0.409,0.7c0.177,0.199,0.394,0.356,0.65,0.474
				c0.256,0.117,0.547,0.176,0.872,0.176c0.311,0,0.593-0.056,0.848-0.169c0.254-0.112,0.471-0.267,0.653-0.463
				c0.182-0.196,0.323-0.428,0.423-0.696c0.101-0.268,0.151-0.56,0.151-0.876c0-0.316-0.05-0.608-0.151-0.876
				c-0.1-0.268-0.241-0.5-0.423-0.696c-0.182-0.196-0.4-0.35-0.653-0.463C60.543,5.037,60.261,4.981,59.95,4.981z M69.124,3.566
				c0.23,0,0.437,0.016,0.621,0.047c0.184,0.031,0.362,0.08,0.535,0.147l-0.359,1.486c-0.158-0.081-0.342-0.144-0.552-0.187
				c-0.211-0.043-0.407-0.064-0.589-0.064c-0.239,0-0.459,0.041-0.66,0.122c-0.201,0.081-0.374,0.201-0.517,0.359
				c-0.144,0.158-0.256,0.352-0.337,0.581c-0.081,0.229-0.122,0.491-0.122,0.782v3.783h-1.5V3.746h1.486v0.775
				c0.229-0.33,0.514-0.572,0.854-0.725C68.323,3.643,68.704,3.566,69.124,3.566z M74.049,3.566c0.493,0,0.916,0.092,1.271,0.277
				c0.354,0.184,0.651,0.429,0.89,0.736V0.286h1.5v10.337h-1.5V9.798c-0.24,0.306-0.536,0.55-0.89,0.732
				c-0.354,0.182-0.778,0.273-1.271,0.273c-0.484,0-0.933-0.09-1.35-0.269c-0.416-0.18-0.78-0.43-1.091-0.751
				c-0.311-0.32-0.555-0.702-0.733-1.145c-0.177-0.443-0.266-0.927-0.266-1.454c0-0.527,0.089-1.011,0.266-1.454
				c0.177-0.442,0.421-0.824,0.733-1.145c0.311-0.321,0.675-0.571,1.091-0.751C73.116,3.656,73.566,3.566,74.049,3.566z
				 M79.463,9.987c0.062,0,0.119,0.011,0.173,0.034c0.054,0.023,0.101,0.054,0.142,0.094c0.04,0.04,0.072,0.086,0.095,0.139
				c0.023,0.053,0.035,0.11,0.035,0.17c0,0.06-0.012,0.117-0.035,0.169c-0.023,0.053-0.055,0.099-0.095,0.139
				c-0.04,0.04-0.088,0.071-0.142,0.094c-0.054,0.023-0.112,0.035-0.173,0.035c-0.063,0-0.122-0.012-0.176-0.035
				c-0.055-0.023-0.102-0.055-0.142-0.094c-0.04-0.04-0.072-0.086-0.095-0.139c-0.023-0.053-0.035-0.109-0.035-0.169
				c0-0.06,0.012-0.117,0.035-0.17c0.023-0.053,0.055-0.1,0.095-0.139c0.04-0.04,0.087-0.071,0.142-0.094
				C79.341,9.999,79.4,9.987,79.463,9.987z M79.463,10.765c0.047,0,0.091-0.009,0.132-0.027c0.041-0.018,0.076-0.042,0.107-0.073
				c0.031-0.031,0.055-0.067,0.072-0.108c0.018-0.041,0.026-0.086,0.026-0.133c0-0.047-0.009-0.091-0.026-0.133
				c-0.018-0.041-0.042-0.078-0.072-0.108c-0.031-0.031-0.066-0.055-0.107-0.072c-0.041-0.018-0.085-0.026-0.132-0.026
				c-0.048,0-0.093,0.009-0.135,0.026c-0.042,0.018-0.078,0.042-0.109,0.072c-0.031,0.031-0.055,0.067-0.072,0.108
				c-0.018,0.041-0.026,0.086-0.026,0.133c0,0.047,0.009,0.091,0.026,0.133c0.017,0.041,0.042,0.078,0.072,0.108
				c0.031,0.031,0.067,0.055,0.109,0.073C79.37,10.756,79.415,10.765,79.463,10.765z M79.488,10.22c0.052,0,0.092,0.012,0.121,0.035
				c0.028,0.023,0.042,0.055,0.042,0.095c0,0.034-0.011,0.061-0.034,0.083c-0.023,0.022-0.055,0.035-0.096,0.04l0.133,0.153h-0.104
				l-0.123-0.152h-0.04v0.152h-0.087V10.22H79.488z M79.388,10.296v0.108h0.1c0.023,0,0.041-0.004,0.055-0.013
				c0.014-0.009,0.02-0.023,0.02-0.041c0-0.018-0.007-0.031-0.02-0.04c-0.014-0.009-0.032-0.013-0.055-0.013H79.388z M74.229,4.981
				c-0.325,0-0.616,0.059-0.872,0.176c-0.256,0.118-0.472,0.276-0.65,0.474c-0.177,0.199-0.313,0.432-0.409,0.7
				c-0.095,0.268-0.144,0.553-0.144,0.855c0,0.301,0.048,0.586,0.144,0.854c0.096,0.268,0.232,0.502,0.409,0.7
				c0.177,0.199,0.394,0.356,0.65,0.474c0.256,0.117,0.547,0.176,0.872,0.176c0.311,0,0.593-0.056,0.848-0.169
				c0.254-0.112,0.471-0.267,0.653-0.463c0.182-0.196,0.323-0.428,0.423-0.696c0.101-0.268,0.151-0.56,0.151-0.876
				c0-0.316-0.05-0.608-0.151-0.876c-0.1-0.268-0.241-0.5-0.423-0.696c-0.182-0.196-0.4-0.35-0.653-0.463
				C74.822,5.037,74.54,4.981,74.229,4.981z"/>
		</g>
	</g>
</g>
</svg>
