<?xml version="1.0" encoding="utf-8"?>
<!-- Generator: Adobe Illustrator 17.0.0, SVG Export Plug-In . SVG Version: 6.00 Build 0)  -->
<!DOCTYPE svg PUBLIC "-//W3C//DTD SVG 1.1//EN" "http://www.w3.org/Graphics/SVG/1.1/DTD/svg11.dtd">
<svg version="1.1" id="Layer_1" xmlns="http://www.w3.org/2000/svg" xmlns:xlink="http://www.w3.org/1999/xlink" x="0px" y="0px"
	 width="40px" height="24px" viewBox="0 0 40 24" enable-background="new 0 0 40 24" xml:space="preserve">
<g>
	<linearGradient id="SVGID_1_" gradientUnits="userSpaceOnUse" x1="4.023314e-07" y1="12" x2="40" y2="12">
		<stop  offset="0" style="stop-color:#272158"/>
		<stop  offset="1" style="stop-color:#164193"/>
	</linearGradient>
	<path fill="url(#SVGID_1_)" d="M0,23c0,0.552,0.448,1,1,1h38c0.552,0,1-0.448,1-1V1c0-0.552-0.448-1-1-1H1C0.448,0,0,0.448,0,1V23z
		"/>
</g>
<path fill="#FFFFFF" d="M16.039,6.872l-4.31,10.283H8.917L6.796,8.949c-0.129-0.505-0.24-0.691-0.632-0.903
	C5.525,7.698,4.469,7.373,3.54,7.17l0.063-0.298h4.527c0.577,0,1.096,0.384,1.227,1.048l1.12,5.951l2.769-6.999H16.039z
	 M27.057,13.798c0.012-2.714-3.753-2.863-3.727-4.076c0.008-0.369,0.359-0.761,1.128-0.861c0.381-0.05,1.432-0.088,2.623,0.46
	l0.468-2.18c-0.641-0.233-1.464-0.456-2.489-0.456c-2.629,0-4.48,1.398-4.495,3.399c-0.018,1.481,1.321,2.306,2.329,2.799
	c1.036,0.504,1.383,0.827,1.38,1.278c-0.008,0.69-0.827,0.995-1.592,1.007c-1.337,0.021-2.114-0.362-2.732-0.65l-0.482,2.253
	c0.621,0.285,1.768,0.534,2.958,0.546C25.22,17.316,27.048,15.936,27.057,13.798 M34,17.155h2.46L34.313,6.872h-2.271
	c-0.511,0-0.941,0.297-1.132,0.754l-3.992,9.529h2.793l0.555-1.536h3.413L34,17.155z M31.032,13.512l1.4-3.861l0.806,3.861H31.032z
	 M19.84,6.872l-2.2,10.283h-2.66L17.18,6.872H19.84z"/>
</svg>
