<?xml version="1.0" encoding="UTF-8" standalone="no"?>
<svg width="169px" height="21px" viewBox="0 0 169 21" version="1.1" xmlns="http://www.w3.org/2000/svg" xmlns:xlink="http://www.w3.org/1999/xlink">
    <!-- Generator: Sketch 42 (36781) - http://www.bohemiancoding.com/sketch -->
    <title>Page 1</title>
    <desc>Created with Sketch.</desc>
    <defs></defs>
    <g id="Page-1" stroke="none" stroke-width="1" fill="none" fill-rule="evenodd">
        <g id="Home-Final" transform="translate(-62.000000, -621.000000)">
            <g id="Page-1" transform="translate(62.000000, 622.000000)">
                <path d="M108.398229,5.88408409 C108.164532,5.94065227 107.997607,5.98037955 107.827685,5.91085682 C107.696712,5.858175 107.594844,5.70444773 107.503677,5.563675 L105.927298,3.250425 C105.836131,3.112675 105.727843,2.95808409 105.598154,2.89978864 C105.429944,2.82853864 105.260023,2.87301591 105.028038,2.92958409 L99.9415079,4.42885682 L99.9415079,14.5683795 L105.044731,13.0773114 C105.280139,13.0229023 105.448777,12.9792886 105.616987,13.049675 C105.745392,13.1062432 105.848971,13.2569477 105.940566,13.3959932 L107.510098,15.7066523 C107.602121,15.8456977 107.706556,15.9920841 107.834961,16.0529705 C108.004027,16.1199023 108.172665,16.0806068 108.405505,16.0227432 L113.495888,14.5657886 L113.495888,4.41849318 L108.398229,5.88408409 Z" id="Fill-1" fill="#FFFFFF"></path>
                <path d="M150.284292,7.85377955 L151.770361,7.85377955 L152.028454,8.743325 L152.942694,8.743325 L151.523824,4.42902955 L151.522112,4.42902955 L150.348923,5.04134773 L149.117095,8.743325 L150.003515,8.743325 L150.284292,7.85377955 Z M151.02433,5.40148409 L151.035887,5.40148409 L151.534952,7.10846136 L150.508572,7.10846136 L151.02433,5.40148409 Z" id="Fill-3" fill="#FEFEFE"></path>
                <path d="M148.390369,6.41776818 C148.558579,6.32751818 148.88387,6.15306364 148.88387,5.53426818 C148.88387,5.08906364 148.631341,4.42881364 147.644339,4.42881364 L146.535352,4.42881364 L145.685742,4.87229091 L145.685742,8.74310909 L147.391382,8.74310909 C148.216595,8.74310909 148.434882,8.59326818 148.665582,8.35274545 C148.878306,8.13079091 149.013131,7.8052 149.013131,7.4632 C149.013131,7.03656364 148.88387,6.61554091 148.390369,6.41776818 L148.390369,6.41776818 Z M146.494262,5.17326818 L147.459008,5.17326818 C147.841225,5.17326818 148.075778,5.28208636 148.075778,5.63660909 C148.075778,5.97860909 147.812548,6.11765455 147.481265,6.11765455 L146.494262,6.11765455 L146.494262,5.17326818 Z M147.526206,7.99779091 L146.494262,7.99779091 L146.494262,6.84397273 L147.565156,6.84397273 C147.868618,6.84397273 148.172081,6.98863182 148.172081,7.36690455 C148.172081,7.8052 147.935817,7.99779091 147.526206,7.99779091 L147.526206,7.99779091 Z" id="Fill-4" fill="#FEFEFE"></path>
                <polygon id="Fill-6" fill="#FEFEFE" points="156.576841 8.74323864 156.576841 4.42894318 155.791433 4.83917045 155.791433 7.43310227 155.780733 7.43310227 154.181241 4.42894318 153.294822 4.89142045 153.294822 8.74323864 154.080229 8.74323864 154.080229 5.66610227 154.091358 5.66610227 155.735363 8.74323864"></polygon>
                <polygon id="Fill-7" fill="#FEFEFE" points="158.19401 7.28282955 158.5865 6.84971591 159.832452 8.74323864 160.914902 8.74323864 159.175449 6.19551136 160.818598 4.42980682 159.51358 4.676375 158.19401 6.18342045 158.19401 4.42980682 157.351677 4.86896591 157.351677 8.74323864 158.19401 8.74323864"></polygon>
                <path d="M122.865094,4.42885682 L121.691904,5.04160682 L120.460077,8.74315227 L121.346496,8.74315227 L121.627274,7.85360682 L123.114198,7.85360682 L123.372291,8.74315227 L124.287388,8.74315227 L122.866806,4.42885682 L122.865094,4.42885682 Z M121.851554,7.10828864 L122.36774,5.40174318 L122.378869,5.40174318 L122.877934,7.10828864 L121.851554,7.10828864 Z" id="Fill-8" fill="#FEFEFE"></path>
                <path d="M139.335882,4.42885682 L138.162693,5.04160682 L136.93001,8.74315227 L137.816429,8.74315227 L138.097207,7.85360682 L139.584131,7.85360682 L139.842224,8.74315227 L140.75732,8.74315227 L139.336738,4.42885682 L139.335882,4.42885682 Z M138.324483,7.10828864 L138.840669,5.40174318 L138.852225,5.40174318 L139.351291,7.10828864 L138.324483,7.10828864 Z" id="Fill-9" fill="#FEFEFE"></path>
                <polygon id="Fill-10" fill="#FEFEFE" points="125.850327 8.74323864 125.850327 5.19153409 126.653711 5.19153409 127.065462 4.42894318 124.200757 4.42894318 123.791575 5.18721591 123.791575 5.19153409 125.00885 5.19153409 125.00885 8.74323864"></polygon>
                <polygon id="Fill-11" fill="#FEFEFE" points="128.241861 4.42885682 128.240149 4.42885682 127.400384 4.86715227 127.400384 8.74315227 128.241861 8.74315227"></polygon>
                <path d="M130.736804,8.85775682 C131.270966,8.85775682 132.672715,8.61118864 132.672715,6.58596136 C132.672715,4.56073409 131.270966,4.31416591 130.736804,4.31416591 C130.700422,4.31416591 130.659333,4.31589318 130.614819,4.31848409 L129.220774,5.04652955 C128.97381,5.385075 128.801748,5.87605227 128.801748,6.58596136 C128.801748,8.61118864 130.204353,8.85775682 130.736804,8.85775682 M130.736804,5.07805227 C131.191356,5.07805227 131.831238,5.37816591 131.831238,6.58596136 C131.831238,7.79375682 131.191356,8.09430227 130.736804,8.09430227 C130.283108,8.09430227 129.643225,7.79375682 129.643225,6.58596136 C129.643225,5.37816591 130.283108,5.07805227 130.736804,5.07805227" id="Fill-12" fill="#FEFEFE"></path>
                <polygon id="Fill-14" fill="#FEFEFE" points="117.562758 5.666275 117.573886 5.666275 119.217892 8.74341136 120.05937 8.74341136 120.05937 4.42868409 119.273962 4.83934318 119.273962 7.43284318 119.263262 7.43284318 117.663769 4.42868409 116.77735 4.89116136 116.77735 8.74341136 117.562758 8.74341136"></polygon>
                <polygon id="Fill-15" fill="#FEFEFE" points="135.727673 7.43301591 135.716116 7.43301591 134.117052 4.42885682 133.231061 4.89219773 133.231061 8.74315227 134.016469 8.74315227 134.016469 5.66644773 134.028025 5.66644773 135.672031 8.74315227 136.51308 8.74315227 136.51308 4.42885682 135.727673 4.83951591"></polygon>
                <polygon id="Fill-16" fill="#FEFEFE" points="144.014343 7.96143182 142.012089 7.96143182 142.012089 4.42872727 141.170611 4.86875 141.170611 8.74302273 143.593604 8.74302273"></polygon>
                <path d="M131.35169,10.254775 L130.178501,10.8683886 L128.944961,14.572525 L129.832237,14.572525 L130.113014,13.6821159 L131.599939,13.6821159 L131.858032,14.572525 L132.773984,14.572525 L131.353402,10.254775 L131.35169,10.254775 Z M130.337294,12.9367977 L130.85348,11.2293886 L130.864609,11.2293886 L131.36453,12.9367977 L130.337294,12.9367977 Z" id="Fill-17" fill="#FEFEFE"></path>
                <path d="M146.873484,10.254775 L145.699438,10.8683886 L144.466755,14.572525 L145.353174,14.572525 L145.633952,13.6821159 L147.121732,13.6821159 L147.379825,14.572525 L148.295777,14.572525 L146.875196,10.254775 L146.873484,10.254775 Z M145.859088,12.9367977 L146.375274,11.2293886 L146.386402,11.2293886 L146.886324,12.9367977 L145.859088,12.9367977 Z" id="Fill-18" fill="#FEFEFE"></path>
                <path d="M139.298602,10.254775 L138.124129,10.8683886 L136.891018,14.572525 L137.778293,14.572525 L138.058643,13.6821159 L139.546851,13.6821159 L139.804944,14.572525 L140.72004,14.572525 L139.299458,10.254775 L139.298602,10.254775 Z M138.28335,12.9367977 L138.799537,11.2293886 L138.810665,11.2293886 L139.310586,12.9367977 L138.28335,12.9367977 Z" id="Fill-19" fill="#FEFEFE"></path>
                <path d="M128.128523,13.0974773 C128.027511,13.6268864 127.70222,13.9097273 127.236111,13.9097273 C126.52261,13.9097273 126.236268,13.2119091 126.236268,12.4363636 C126.236268,11.2151818 126.831637,10.9262955 127.236111,10.9262955 C127.932064,10.9262955 128.061324,11.41425 128.128523,11.6716136 L128.970856,11.6716136 C128.926343,11.0346818 128.43755,10.1447045 127.230547,10.1447045 C127.215139,10.1447045 127.19973,10.1455682 127.184322,10.1455682 L125.793701,10.87275 C125.532612,11.2467045 125.377242,11.7644545 125.377242,12.4238409 C125.377242,13.9157727 126.146385,14.6913182 127.219419,14.6913182 C128.229534,14.6913182 128.803074,14.0353864 128.970856,13.0974773 L128.128523,13.0974773 Z" id="Fill-20" fill="#FEFEFE"></path>
                <polygon id="Fill-22" fill="#FEFEFE" points="135.687225 13.2614386 135.676097 13.2614386 134.075749 10.2546886 133.188902 10.7180295 133.188902 14.5724386 133.974309 14.5724386 133.974309 11.4940068 133.985866 11.4940068 135.631583 14.5724386 136.473489 14.5724386 136.473489 10.2555523 135.687225 10.6662114"></polygon>
                <path d="M142.915757,10.2539545 L141.980544,10.2539545 L141.135215,10.6957045 L141.135215,14.5725682 L142.881944,14.5725682 C144.212643,14.5725682 144.555055,13.2373864 144.555055,12.3111364 C144.555055,11.4928409 144.274277,10.2539545 142.915757,10.2539545 M142.780504,13.8263864 L141.961284,13.8263864 L141.961284,11.0001364 L142.769376,11.0001364 C143.129337,11.0001364 143.6956,11.1024773 143.6956,12.3772045 C143.6956,13.0871136 143.465756,13.8263864 142.780504,13.8263864" id="Fill-23" fill="#FEFEFE"></path>
                <polygon id="Fill-25" fill="#FEFEFE" points="123.492093 11.0183591 123.903843 10.2549045 121.916998 10.2549045 121.035715 10.7147909 121.035715 14.5726545 121.878048 14.5726545 121.878048 12.7564273 123.24042 12.7564273 123.65217 11.9921091 121.878048 11.9921091 121.878048 11.0183591"></polygon>
                <g id="Group-38" transform="translate(116.420086, 9.850766)" fill="#FEFEFE">
                    <path d="M2.12321132,0.318163636 C2.08683005,0.318163636 2.0457406,0.319890909 2.00122704,0.322481818 L0.606326082,1.05139091 C0.358933398,1.38993636 0.186443344,1.88177727 0.186443344,2.59168636 C0.186443344,4.61864091 1.5899046,4.86477727 2.12321132,4.86477727 C2.65737407,4.86477727 4.06083533,4.61864091 4.06083533,2.59168636 C4.06083533,0.564731818 2.65737407,0.318163636 2.12321132,0.318163636 M2.12321132,4.10132273 C1.66865937,4.10132273 1.02877691,3.80034545 1.02877691,2.59168636 C1.02877691,1.38302727 1.66865937,1.08161818 2.12321132,1.08161818 C2.57861931,1.08161818 3.21850177,1.38302727 3.21850177,2.59168636 C3.21850177,3.80034545 2.57861931,4.10132273 2.12321132,4.10132273" id="Fill-26"></path>
                    <path d="M35.2840176,3.18940909 L36.1721488,3.18940909 L36.1721488,3.71277273 C36.0565848,3.80820455 35.9144838,3.89327273 35.7548342,3.95977273 C35.5857682,4.02670455 35.4265466,4.06513636 35.266469,4.06513636 C34.9377535,4.06513636 34.6715281,3.94077273 34.466937,3.69334091 C34.2632018,3.45584091 34.1651864,3.08534091 34.1651864,2.60040909 C34.1651864,2.14354545 34.2632018,1.80111364 34.466937,1.57268182 C34.6625398,1.34468182 34.9287652,1.23025 35.266469,1.23025 C35.4975971,1.23025 35.6837837,1.28725 35.8258847,1.41161364 C35.9765459,1.52518182 36.0835497,1.68754545 36.1366236,1.88704545 L36.9002024,1.73418182 C36.8291519,1.35418182 36.6519537,1.05925 36.3853003,0.840318182 C36.1190749,0.631318182 35.7458458,0.526386364 35.266469,0.526386364 C35.1949905,0.526386364 35.124796,0.526386364 35.0533175,0.535886364 L33.7923853,1.21081818 C33.7298951,1.29675 33.6678329,1.39218182 33.614331,1.48675 C33.4546814,1.82011364 33.3656543,2.20011364 33.3656543,2.62890909 C33.3656543,3.02790909 33.4461211,3.38890909 33.5873661,3.72227273 C33.7388834,4.06513636 33.9695835,4.32163636 34.2632018,4.50213636 C34.5649524,4.68263636 34.9112166,4.76856818 35.3105546,4.76856818 C35.6302818,4.76856818 35.9418767,4.70206818 36.2526156,4.57856818 C36.5543662,4.44513636 36.7936266,4.30263636 36.9537042,4.13077273 L36.9537042,2.49504545 L35.2840176,2.49504545 L35.2840176,3.18940909 Z" id="Fill-28"></path>
                    <path d="M40.2036651,3.227625 C40.0966614,3.10455682 39.9644047,2.98969318 39.7949108,2.885625 C40.1334706,2.838125 40.3817194,2.70426136 40.5499293,2.50476136 C40.7189952,2.30526136 40.8080223,2.04832955 40.8080223,1.74389773 C40.8080223,1.50596591 40.7455321,1.28746591 40.6389564,1.09746591 C40.5233923,0.907465909 40.372731,0.773602273 40.1946768,0.707534091 C40.0084903,0.631534091 39.7067397,0.593102273 39.2984133,0.593102273 L38.4988813,0.593102273 L37.6732403,1.04003409 L37.6732403,4.70185227 L38.4458074,4.70185227 L38.4458074,2.98019318 L38.5968967,2.98019318 C38.7740949,2.98019318 38.9076356,2.99919318 38.9868184,3.028125 C39.0758455,3.066125 39.146896,3.12355682 39.2273628,3.19869318 C39.2984133,3.28505682 39.431098,3.48455682 39.6267009,3.80798864 L40.1856885,4.70185227 L41.1187612,4.70185227 L40.6479447,3.90255682 C40.4617582,3.57998864 40.3192292,3.36105682 40.2036651,3.227625 M39.0142114,2.33376136 L38.4458074,2.33376136 L38.4458074,1.28746591 L39.0493086,1.28746591 C39.3600475,1.28746591 39.5466621,1.28746591 39.6091522,1.29696591 C39.7426929,1.32546591 39.830864,1.37339773 39.9019145,1.45846591 C39.972965,1.54439773 40.0084903,1.65882955 40.0084903,1.80089773 C40.0084903,1.92439773 39.9819533,2.01982955 39.9284515,2.10576136 C39.8749496,2.19082955 39.8038991,2.24782955 39.715728,2.27676136 C39.6181406,2.31476136 39.3865844,2.33376136 39.0142114,2.33376136" id="Fill-30"></path>
                    <path d="M43.2326418,0.526343182 C43.1881283,0.526343182 43.1346264,0.526343182 43.0901128,0.535843182 L43.0811245,0.535843182 L41.7666904,1.23970682 L41.7666904,1.24920682 C41.6776632,1.36363864 41.6074688,1.48713864 41.5539669,1.62057045 C41.4384029,1.90600227 41.3759127,2.25750227 41.3759127,2.67593409 C41.3759127,3.32322955 41.5449786,3.83666136 41.8822544,4.20716136 C42.2195303,4.588025 42.6727982,4.76895682 43.2407741,4.76895682 C43.8096061,4.76895682 44.2534577,4.578525 44.5907335,4.20716136 C44.9284373,3.83666136 45.0975033,3.31372955 45.0975033,2.64786591 C45.0975033,1.98157045 44.9284373,1.45820682 44.5907335,1.08770682 C44.2534577,0.707706818 43.8006178,0.526343182 43.2326418,0.526343182 M43.9962206,3.70322955 C43.8006178,3.94072955 43.552369,4.06509318 43.2407741,4.06509318 C42.9300352,4.06509318 42.6727982,3.94072955 42.4771953,3.70322955 C42.2730321,3.46529773 42.1754447,3.10429773 42.1754447,2.64786591 C42.1754447,2.17243409 42.2730321,1.82007045 42.468207,1.58257045 C42.6638099,1.34463864 42.9210469,1.23020682 43.2407741,1.23020682 C43.5609294,1.23020682 43.8181664,1.34463864 44.0052089,1.58257045 C44.1999558,1.81057045 44.2979712,2.16293409 44.2979712,2.62886591 C44.2979712,3.10429773 44.1999558,3.46529773 43.9962206,3.70322955" id="Fill-32"></path>
                    <path d="M47.9831806,2.86658182 C47.9831806,3.18958182 47.9652039,3.41758182 47.9476553,3.56094545 C47.9211184,3.70301364 47.8586282,3.81744545 47.7439202,3.91244545 C47.6369164,4.01737727 47.4687065,4.06487727 47.2461387,4.06487727 C47.0334152,4.06487727 46.8643493,4.00787727 46.7397969,3.91244545 C46.6161006,3.80794545 46.5360618,3.67451364 46.5001085,3.50351364 C46.4825599,3.39858182 46.4735716,3.17015 46.4735716,2.81908182 L46.4735716,0.593059091 L45.7010045,1.00199091 L45.7010045,2.78065 C45.7010045,3.24658182 45.7185531,3.58944545 45.772055,3.82737727 C45.8075802,3.98844545 45.8782027,4.14044545 45.9937667,4.28380909 C46.1007705,4.42587727 46.2518598,4.54030909 46.4380463,4.63530909 C46.6246609,4.72080909 46.9088629,4.76874091 47.2726756,4.76874091 C47.5748542,4.76874091 47.8231029,4.73074091 48.0097175,4.64437727 C48.1967601,4.55974091 48.3474214,4.45437727 48.4629854,4.31230909 C48.5695611,4.16894545 48.6491719,3.99837727 48.6936855,3.79844545 C48.7377711,3.58944545 48.7557477,3.24658182 48.7557477,2.75215 L48.7557477,0.593059091 L47.9831806,1.01149091 L47.9831806,2.86658182 Z" id="Fill-34"></path>
                    <path d="M52.2814786,1.05907727 C52.1389496,0.850077273 51.9531911,0.716213636 51.7306233,0.650577273 C51.5889503,0.612145455 51.2871997,0.593145455 50.8163832,0.593145455 L50.4076289,0.593145455 L49.5729996,1.04007727 L49.5729996,4.70189545 L50.3455667,4.70189545 L50.3455667,3.15123636 L50.8519085,3.15123636 C51.1981726,3.15123636 51.464398,3.1331 51.6514405,3.09466818 C51.7841252,3.05666818 51.9172378,2.99923636 52.0507785,2.89430455 C52.1834632,2.79973636 52.2904669,2.66630455 52.3794941,2.49530455 C52.4676652,2.32430455 52.5031904,2.10580455 52.5031904,1.85837273 C52.5031904,1.52500909 52.4325679,1.25857727 52.2814786,1.05907727 M51.6244756,2.19044091 C51.5624134,2.27637273 51.4823746,2.34330455 51.3753708,2.39123636 C51.2782114,2.42837273 51.0736202,2.45687273 50.7718696,2.45687273 L50.3455667,2.45687273 L50.3455667,1.28750909 L50.7183678,1.28750909 C50.9935814,1.28750909 51.180196,1.29700909 51.2782114,1.31600909 C51.4019078,1.34450909 51.5089115,1.40194091 51.5889503,1.49650909 C51.6689891,1.59194091 51.7126467,1.71500909 51.7126467,1.86787273 C51.7126467,1.99094091 51.6771214,2.09587273 51.6244756,2.19044091" id="Fill-36"></path>
                </g>
                <polygon id="Fill-39" stroke="#FFFFFF" fill="#FFFFFF" points="90.4472786 18.9189477 90.8123754 18.9189477 90.8123754 0.000129545454 90.4472786 0.000129545454"></polygon>
                <path d="M39.9216888,4.75414545 L44.4355352,4.75414545 C46.4176728,4.75414545 47.4320684,5.66614545 47.4320684,7.34375909 C47.4320684,8.37019091 47.0703957,9.07103182 46.2935485,9.45750909 C47.2861153,9.87896364 47.7787606,10.6877591 47.7787606,11.8882136 C47.7787606,13.8257818 46.5417972,14.9973045 44.28573,14.9973045 L39.9216888,14.9973045 L39.9216888,4.75414545 Z M44.0524618,8.70744091 C45.0026552,8.70744091 45.4589192,8.38098636 45.4589192,7.59939545 C45.4589192,6.79750909 44.9932388,6.52978182 44.0430455,6.52978182 L41.8152273,6.52978182 L41.8152273,8.70744091 L44.0524618,8.70744091 Z M44.1397769,13.1469636 C45.2123825,13.1469636 45.7080239,12.7596227 45.7080239,11.8161 C45.7080239,10.8168727 45.2123825,10.4653727 44.1329286,10.4653727 L41.8152273,10.4653727 L41.8152273,13.1469636 L44.1397769,13.1469636 Z" id="Fill-40" fill="#FEFEFE"></path>
                <path d="M55.3711907,4.75414545 L58.8201357,14.9973045 L56.7699438,14.9973045 L56.1043804,12.8908955 L52.4071866,12.8908955 L51.7715843,14.9973045 L49.7012757,14.9973045 L53.1082753,4.75414545 L55.3711907,4.75414545 Z M52.9267969,11.1735545 L55.5869103,11.1735545 L54.2613477,6.79750909 L52.9267969,11.1735545 Z" id="Fill-42" fill="#FEFEFE"></path>
                <polygon id="Fill-43" fill="#FEFEFE" points="61.2981287 4.75414545 63.3654413 4.75414545 67.2475375 11.7953727 67.2475375 4.75414545 69.1958619 4.75414545 69.1958619 14.9973045 67.1555143 14.9973045 63.2490212 7.95823636 63.2490212 14.9973045 61.2981287 14.9973045"></polygon>
                <polygon id="Fill-44" fill="#FEFEFE" points="72.9945808 4.75414545 74.964306 4.75414545 74.964306 8.94796364 78.6910328 4.75414545 81.1581114 4.75414545 77.3440695 8.90391818 81.5022355 14.9973045 79.0907988 14.9973045 75.9864059 10.3086227 74.964306 11.3847136 74.964306 14.9973045 72.9945808 14.9973045"></polygon>
                <path d="M3.40143539,4.75431818 L0,14.9970455 L2.07159271,14.9970455 L2.6952106,12.8915 L6.40396077,12.8915 L7.05368758,14.9970455 L9.11629197,14.9970455 L5.67205508,4.75431818 L3.40143539,4.75431818 Z M4.54509153,6.80545455 L5.87108207,11.1655227 L3.21268076,11.1655227 L4.54509153,6.80545455 Z" id="Fill-45" fill="#FEFEFE"></path>
                <path d="M11.8738644,4.75414545 L16.3774384,4.75414545 C18.3565799,4.75414545 19.3786798,5.6791 19.3786798,7.34375909 C19.3786798,8.36889545 19.0088748,9.06930455 18.2375917,9.45448636 C19.2344387,9.88241818 19.7146716,10.6791227 19.7146716,11.8808727 C19.7146716,13.8296682 18.4901206,14.9973045 16.2336254,14.9973045 L11.8738644,14.9973045 L11.8738644,4.75414545 Z M16.0059214,8.71305455 C16.9471264,8.71305455 17.4016784,8.38573636 17.4016784,7.59939545 C17.4016784,6.80528182 16.9385661,6.53366818 15.9909409,6.53366818 L13.7614106,6.53366818 L13.7614106,8.71305455 L16.0059214,8.71305455 Z M16.0838201,13.1469636 C17.1607059,13.1469636 17.6704718,12.7570318 17.6704718,11.8199864 C17.6704718,10.8207591 17.1607059,10.4636455 16.0722637,10.4636455 L13.7614106,10.4636455 L13.7614106,13.1469636 L16.0838201,13.1469636 Z" id="Fill-46" fill="#FEFEFE"></path>
                <path d="M27.3271756,4.75414545 L30.7722685,14.9973045 L28.7122322,14.9973045 L28.0590812,12.8913273 L24.3516151,12.8913273 L23.7271412,14.9973045 L21.6585446,14.9973045 L25.0556998,4.75414545 L27.3271756,4.75414545 Z M24.8695133,11.16535 L27.5279146,11.16535 L26.200212,6.80528182 L24.8695133,11.16535 Z" id="Fill-48" fill="#FEFEFE"></path>
                <polygon id="Fill-49" fill="#FFFFFF" points="31.6598432 6.78874318 33.504588 6.78874318 33.504588 2.718425 31.6598432 2.718425"></polygon>
            </g>
        </g>
    </g>
</svg>