<?xml version="1.0" encoding="utf-8"?>
<!-- Generator: Adobe Illustrator 17.0.0, SVG Export Plug-In . SVG Version: 6.00 Build 0)  -->
<!DOCTYPE svg PUBLIC "-//W3C//DTD SVG 1.1//EN" "http://www.w3.org/Graphics/SVG/1.1/DTD/svg11.dtd">
<svg version="1.1" id="Layer_1" xmlns="http://www.w3.org/2000/svg" xmlns:xlink="http://www.w3.org/1999/xlink" x="0px" y="0px"
	 width="228.823px" height="23.983px" viewBox="0 0 228.823 23.983" enable-background="new 0 0 228.823 23.983"
	 xml:space="preserve">
<g>
	<path id="XMLID_50_" fill="#FFFFFF" d="M53.828,5.859h6.086c2.673,0,4.041,1.147,4.041,3.256c0,1.29-0.488,2.171-1.535,2.657
		c1.338,0.53,2.003,1.546,2.003,3.055c0,2.436-1.668,3.909-4.71,3.909h-5.884V5.859z M59.398,10.829
		c1.281,0,1.896-0.411,1.896-1.393c0-1.008-0.628-1.344-1.909-1.344h-3.004v2.738H59.398z M59.515,16.41
		c1.447,0,2.115-0.487,2.115-1.673c0-1.256-0.668-1.698-2.124-1.698h-3.125v3.371H59.515z"/>
	<path id="XMLID_47_" fill="#FFFFFF" d="M74.659,5.859l4.651,12.877h-2.765l-0.897-2.648h-4.985l-0.857,2.648h-2.792l4.594-12.877
		H74.659z M71.363,13.929h3.587l-1.787-5.501L71.363,13.929z"/>
	<polygon id="XMLID_46_" fill="#FFFFFF" points="82.651,5.859 85.438,5.859 90.673,14.711 90.673,5.859 93.3,5.859 93.3,18.736 
		90.548,18.736 85.281,9.887 85.281,18.736 82.651,18.736 	"/>
	<polygon id="XMLID_45_" fill="#FFFFFF" points="98.422,5.859 101.077,5.859 101.077,11.132 106.102,5.859 109.429,5.859 
		104.286,11.076 109.893,18.736 106.641,18.736 102.455,12.842 101.077,14.195 101.077,18.736 98.422,18.736 	"/>
	<path id="XMLID_42_" fill="#FFFFFF" d="M7.648,5.859l4.643,12.877H9.511l-0.876-2.647h-5l-0.841,2.647H0L4.586,5.859H7.648z
		 M4.332,13.919h3.584L6.128,8.438L4.332,13.919z"/>
	<path id="XMLID_26_" fill="#FFFFFF" d="M16.01,5.859h6.073c2.668,0,4.046,1.163,4.046,3.256c0,1.288-0.499,2.169-1.539,2.653
		c1.344,0.538,1.991,1.539,1.991,3.05c0,2.45-1.651,3.918-4.694,3.918H16.01V5.859z M21.582,10.836c1.269,0,1.882-0.411,1.882-1.4
		c0-0.998-0.624-1.339-1.902-1.339h-3.006v2.739H21.582z M21.686,16.41c1.452,0,2.139-0.49,2.139-1.668
		c0-1.256-0.687-1.705-2.155-1.705h-3.116v3.373H21.686z"/>
	<path id="XMLID_23_" fill="#FFFFFF" d="M36.846,5.859l4.645,12.877h-2.778l-0.88-2.647h-4.999l-0.842,2.647h-2.789l4.58-12.877
		H36.846z M33.532,13.919h3.584l-1.79-5.481L33.532,13.919z"/>
	<rect id="XMLID_22_" x="42.688" y="3.3" fill="#E20A13" width="2.488" height="5.117"/>
	<g>
		<path id="XMLID_21_" fill="#E20A13" d="M146.22,7.68c-0.314,0.071-0.537,0.12-0.765,0.034c-0.176-0.066-0.313-0.258-0.435-0.434
			l-2.114-2.893c-0.123-0.172-0.268-0.366-0.442-0.438c-0.226-0.089-0.454-0.034-0.765,0.037l-6.823,1.875v12.682l6.846-1.865
			c0.316-0.068,0.542-0.123,0.767-0.035c0.173,0.071,0.312,0.259,0.434,0.433l2.106,2.89c0.124,0.174,0.264,0.357,0.436,0.433
			c0.227,0.084,0.453,0.035,0.765-0.038l6.829-1.822V5.847L146.22,7.68z"/>
		<path fill="#FFFFFF" d="M202.41,10.143h1.994l0.346,1.112h1.226l-1.904-5.396h-0.002l-1.574,0.766l-1.653,4.63h1.189
			L202.41,10.143z M203.403,7.076h0.015l0.67,2.135h-1.377L203.403,7.076z"/>
		<path fill="#FFFFFF" d="M199.87,8.347c0.226-0.113,0.662-0.331,0.662-1.105c0-0.557-0.339-1.383-1.663-1.383h-1.488l-1.14,0.555
			v4.842h2.288c1.107,0,1.4-0.188,1.709-0.488c0.285-0.278,0.467-0.685,0.467-1.112C200.705,9.121,200.532,8.595,199.87,8.347z
			 M197.326,6.791h1.295c0.512,0,0.827,0.136,0.827,0.58c0,0.428-0.353,0.601-0.798,0.601h-1.324V6.791z M198.711,10.323h-1.385
			V8.88h1.437c0.407,0,0.814,0.181,0.814,0.654C199.577,10.083,199.26,10.323,198.711,10.323z"/>
		<polygon fill="#FFFFFF" points="210.852,11.256 210.852,5.86 209.798,6.373 209.798,9.617 209.784,9.617 207.638,5.86 
			206.449,6.438 206.449,11.256 207.503,11.256 207.503,7.407 207.518,7.407 209.723,11.256 		"/>
		<polygon fill="#FFFFFF" points="213.021,9.429 213.548,8.888 215.219,11.256 216.671,11.256 214.338,8.069 216.542,5.861 
			214.792,6.169 213.021,8.054 213.021,5.861 211.892,6.41 211.892,11.256 213.021,11.256 		"/>
		<path fill="#FFFFFF" d="M165.627,5.86l-1.574,0.766l-1.653,4.63h1.189l0.377-1.112h1.995l0.346,1.112h1.227L165.63,5.86H165.627z
			 M164.267,9.211l0.692-2.135h0.015l0.67,2.135H164.267z"/>
		<path fill="#FFFFFF" d="M187.723,5.86l-1.574,0.766l-1.654,4.63h1.189l0.377-1.112h1.995l0.346,1.112h1.227l-1.906-5.396H187.723z
			 M186.366,9.211l0.692-2.135h0.015l0.67,2.135H186.366z"/>
		<polygon fill="#FFFFFF" points="169.632,11.256 169.632,6.814 170.71,6.814 171.262,5.86 167.419,5.86 166.87,6.808 166.87,6.814 
			168.503,6.814 168.503,11.256 		"/>
		<polygon fill="#FFFFFF" points="172.84,5.86 172.838,5.86 171.712,6.408 171.712,11.256 172.84,11.256 		"/>
		<path fill="#FFFFFF" d="M176.187,11.399c0.716,0,2.597-0.308,2.597-2.841s-1.881-2.841-2.597-2.841
			c-0.049,0-0.104,0.002-0.164,0.005l-1.87,0.911c-0.331,0.423-0.562,1.038-0.562,1.925
			C173.591,11.091,175.473,11.399,176.187,11.399z M176.187,6.671c0.61,0,1.468,0.376,1.468,1.886c0,1.511-0.859,1.886-1.468,1.886
			c-0.609,0-1.467-0.376-1.467-1.886C174.72,7.047,175.578,6.671,176.187,6.671z"/>
		<polygon fill="#FFFFFF" points="158.514,7.407 158.529,7.407 160.735,11.256 161.864,11.256 161.864,5.86 160.81,6.373 
			160.81,9.617 160.796,9.617 158.65,5.86 157.46,6.438 157.46,11.256 158.514,11.256 		"/>
		<polygon fill="#FFFFFF" points="182.883,9.617 182.867,9.617 180.722,5.86 179.533,6.439 179.533,11.256 180.587,11.256 
			180.587,7.407 180.602,7.407 182.808,11.256 183.936,11.256 183.936,5.86 182.883,6.373 		"/>
		<polygon fill="#FFFFFF" points="193.999,10.278 191.313,10.278 191.313,5.86 190.184,6.41 190.184,11.256 193.435,11.256 		"/>
		<path fill="#FFFFFF" d="M177.012,13.146l-1.574,0.767l-1.655,4.633h1.191l0.377-1.113h1.995l0.346,1.113h1.229l-1.906-5.4H177.012
			z M175.651,16.501l0.692-2.136h0.015l0.671,2.136H175.651z"/>
		<path fill="#FFFFFF" d="M197.835,13.146l-1.575,0.767l-1.654,4.633h1.189l0.377-1.113h1.996l0.346,1.113h1.229l-1.906-5.4H197.835
			z M196.474,16.501l0.692-2.136h0.015l0.671,2.136H196.474z"/>
		<path fill="#FFFFFF" d="M187.673,13.146l-1.576,0.767l-1.654,4.633h1.191l0.376-1.113h1.997l0.346,1.113h1.227l-1.906-5.4H187.673
			z M186.311,16.501l0.692-2.136h0.015l0.671,2.136H186.311z"/>
		<path fill="#FFFFFF" d="M172.688,16.702c-0.136,0.662-0.572,1.016-1.197,1.016c-0.957,0-1.341-0.873-1.341-1.843
			c0-1.527,0.799-1.888,1.341-1.888c0.933,0,1.107,0.61,1.197,0.932h1.13c-0.06-0.797-0.715-1.91-2.334-1.91
			c-0.021,0-0.041,0.001-0.062,0.001l-1.866,0.91c-0.351,0.468-0.559,1.116-0.559,1.94c0,1.866,1.032,2.836,2.471,2.836
			c1.356,0,2.125-0.821,2.35-1.994H172.688z"/>
		<polygon fill="#FFFFFF" points="182.828,16.907 182.813,16.907 180.666,13.146 179.477,13.726 179.477,18.547 180.531,18.547 
			180.531,14.696 180.546,14.696 182.753,18.547 183.883,18.547 183.883,13.147 182.828,13.661 		"/>
		<path fill="#FFFFFF" d="M192.526,13.145h-1.255l-1.134,0.552v4.849h2.343c1.785,0,2.244-1.67,2.244-2.828
			C194.724,14.695,194.348,13.145,192.526,13.145z M192.344,17.613h-1.099v-3.535h1.084c0.483,0,1.243,0.128,1.243,1.722
			C193.572,16.689,193.263,17.613,192.344,17.613z"/>
		<polygon fill="#FFFFFF" points="166.469,14.101 167.021,13.146 164.355,13.146 163.173,13.722 163.173,18.547 164.303,18.547 
			164.303,16.275 166.131,16.275 166.683,15.319 164.303,15.319 164.303,14.101 		"/>
		<path fill="#FFFFFF" d="M159.83,13.039c-0.049,0-0.104,0.002-0.164,0.005l-1.871,0.912c-0.332,0.423-0.563,1.039-0.563,1.926
			c0,2.535,1.883,2.843,2.598,2.843c0.716,0,2.599-0.308,2.599-2.843C162.429,13.347,160.546,13.039,159.83,13.039z M159.83,17.771
			c-0.61,0-1.468-0.377-1.468-1.888c0-1.512,0.859-1.889,1.468-1.889c0.611,0,1.47,0.377,1.47,1.889
			C161.299,17.394,160.441,17.771,159.83,17.771z"/>
		<path fill="#FFFFFF" d="M204.315,16.63h1.192v0.654c-0.155,0.119-0.346,0.226-0.56,0.309c-0.227,0.084-0.441,0.131-0.655,0.131
			c-0.441,0-0.798-0.155-1.072-0.465c-0.274-0.297-0.405-0.761-0.405-1.368c0-0.571,0.131-1,0.405-1.285
			c0.263-0.286,0.62-0.429,1.072-0.429c0.31,0,0.56,0.072,0.751,0.227c0.202,0.142,0.345,0.345,0.417,0.595l1.025-0.191
			c-0.095-0.475-0.333-0.844-0.691-1.118c-0.357-0.262-0.857-0.393-1.501-0.393c-0.096,0-0.19,0-0.286,0.012l-1.692,0.844
			c-0.084,0.107-0.167,0.227-0.239,0.345c-0.214,0.417-0.333,0.892-0.333,1.428c0,0.499,0.107,0.951,0.297,1.368
			c0.203,0.429,0.512,0.75,0.906,0.976c0.405,0.226,0.869,0.333,1.406,0.333c0.429,0,0.847-0.084,1.263-0.238
			c0.405-0.167,0.726-0.345,0.941-0.56v-2.046h-2.24V16.63z"/>
		<path fill="#FFFFFF" d="M210.915,16.678c-0.143-0.154-0.321-0.297-0.548-0.428c0.454-0.06,0.787-0.227,1.013-0.476
			c0.227-0.25,0.346-0.571,0.346-0.952c0-0.297-0.084-0.571-0.227-0.809c-0.155-0.238-0.357-0.405-0.596-0.487
			c-0.25-0.095-0.654-0.143-1.202-0.143h-1.072l-1.108,0.559v4.58h1.037v-2.153h0.203c0.238,0,0.417,0.024,0.523,0.06
			c0.119,0.048,0.215,0.119,0.322,0.214c0.096,0.107,0.273,0.357,0.536,0.762l0.75,1.118h1.251l-0.632-1
			C211.261,17.119,211.07,16.845,210.915,16.678z M209.319,15.56h-0.763v-1.309h0.81c0.417,0,0.667,0,0.751,0.012
			c0.179,0.036,0.297,0.096,0.393,0.202c0.095,0.107,0.143,0.251,0.143,0.429c0,0.154-0.036,0.274-0.107,0.381
			c-0.072,0.106-0.167,0.178-0.285,0.214C210.129,15.536,209.819,15.56,209.319,15.56z"/>
		<path fill="#FFFFFF" d="M214.978,13.299c-0.06,0-0.131,0-0.191,0.012h-0.012l-1.764,0.88v0.012
			c-0.119,0.143-0.214,0.297-0.285,0.465c-0.155,0.357-0.239,0.797-0.239,1.32c0,0.81,0.227,1.452,0.679,1.916
			c0.453,0.476,1.06,0.702,1.822,0.702c0.763,0,1.359-0.238,1.811-0.702c0.453-0.463,0.679-1.118,0.679-1.95
			c0-0.834-0.227-1.488-0.679-1.951C216.348,13.526,215.74,13.299,214.978,13.299z M216.003,17.273
			c-0.263,0.297-0.596,0.453-1.014,0.453c-0.417,0-0.762-0.155-1.024-0.453c-0.274-0.297-0.405-0.749-0.405-1.32
			c0-0.595,0.131-1.035,0.393-1.333c0.263-0.297,0.608-0.441,1.036-0.441c0.43,0,0.775,0.143,1.026,0.441
			c0.261,0.285,0.393,0.726,0.393,1.309C216.408,16.524,216.276,16.975,216.003,17.273z"/>
		<path fill="#FFFFFF" d="M221.351,16.226c0,0.404-0.024,0.689-0.048,0.868c-0.036,0.178-0.119,0.321-0.273,0.44
			c-0.143,0.131-0.369,0.191-0.667,0.191c-0.285,0-0.512-0.072-0.679-0.191c-0.166-0.13-0.273-0.297-0.321-0.511
			c-0.024-0.131-0.036-0.417-0.036-0.856v-2.784l-1.036,0.511v2.225c0,0.583,0.024,1.012,0.095,1.309
			c0.048,0.202,0.142,0.392,0.297,0.571c0.143,0.178,0.346,0.321,0.596,0.44c0.251,0.107,0.632,0.167,1.12,0.167
			c0.405,0,0.738-0.048,0.989-0.155c0.251-0.106,0.453-0.238,0.608-0.416c0.143-0.179,0.25-0.393,0.309-0.642
			c0.06-0.262,0.084-0.69,0.084-1.309v-2.7l-1.036,0.523V16.226z"/>
		<path fill="#FFFFFF" d="M227.117,13.966c-0.191-0.262-0.441-0.429-0.739-0.511c-0.19-0.048-0.595-0.072-1.226-0.072h-0.548
			l-1.12,0.559v4.58h1.036v-1.94h0.679c0.465,0,0.822-0.023,1.072-0.07c0.178-0.048,0.357-0.119,0.536-0.251
			c0.178-0.118,0.321-0.286,0.441-0.499c0.118-0.214,0.166-0.487,0.166-0.797C227.415,14.549,227.32,14.215,227.117,13.966z
			 M226.236,15.381c-0.084,0.107-0.191,0.191-0.334,0.251c-0.13,0.047-0.405,0.082-0.81,0.082h-0.572v-1.463h0.5
			c0.369,0,0.62,0.012,0.751,0.036c0.166,0.036,0.309,0.107,0.417,0.226c0.107,0.119,0.166,0.274,0.166,0.465
			C226.354,15.131,226.307,15.263,226.236,15.381z"/>
	</g>
	<rect x="122.139" y="0.32" fill="#FFFFFF" width="0.49" height="23.663"/>
</g>
</svg>
